<svg width="1440" height="1267" viewBox="0 0 1440 1267" fill="none" xmlns="http://www.w3.org/2000/svg">
<path d="M300.8 8.1333C292.667 10 280.4 17.2 276.533 22.2666C274.533 24.9333 271.867 30 270.4 33.6C261.067 58.1333 245.733 77.8666 223.867 93.3333C180.133 124.133 127.067 131.733 36.8 119.867C25.8666 118.4 16.8 117.467 16.5333 117.733C15.3333 118.933 11.8666 138.933 10.5333 152.933C3.99995 219.467 26.4 296.267 72.6666 365.333C99.7333 405.733 147.2 457.733 186.8 490.133C204.4 504.533 222.267 511.2 235.067 508.267C238.933 507.333 242.933 506.4 244 506.267C245.067 506 247.6 502.8 249.6 499.2C252.8 493.6 253.333 491.067 253.333 481.867C253.333 474.8 254.4 466.933 256.667 458.533C260.267 444.933 260.8 436.133 258.533 431.733C257.6 430.133 253.333 424.267 248.933 418.8C217.867 379.733 192 324.133 187.867 287.333C185.333 264.133 190.8 246.667 205.2 232.4C218.4 219.333 235.467 210.933 259.467 206C281.733 201.333 339.067 193.467 341.333 194.667C343.733 195.867 389.733 257.2 394.667 265.733C396.133 268.267 397.467 272.533 397.6 275.2C397.733 278.133 398.4 280 399.467 280C400.533 280 402.267 282.133 403.333 284.8C404.4 287.467 409.067 293.733 413.733 298.533C418.4 303.467 423.867 309.867 426 312.8C428.133 315.6 431.733 320.133 434.133 322.667C443.6 332.933 469.6 376.933 476.267 394C477.733 397.6 479.733 401.6 480.667 402.667C481.733 403.733 486.133 411.867 490.667 420.667C495.2 429.467 499.6 437.6 500.533 438.667C501.467 439.733 504.267 444.4 506.667 449.067C509.067 453.6 514.8 461.733 519.2 467.067C523.733 472.4 529.067 479.067 531.2 482C533.333 484.933 537.333 489.733 540.133 492.667C542.933 495.6 548.133 503.467 551.733 510.133C560.4 526.133 565.067 533.333 566.667 533.333C567.333 533.333 569.2 535.867 570.8 538.933C573.867 544.933 581.6 558.4 585.333 564C586.533 565.867 588.533 570.267 589.867 573.733C591.2 577.333 593.467 580.8 594.8 581.733C596.133 582.533 597.333 583.867 597.333 584.667C597.333 585.333 598.667 588 600.4 590.533C602 593.067 604.933 597.6 606.933 600.533C608.933 603.6 613.467 611.333 617.067 618C624 630.533 631.333 642.133 633.067 642.933C634.4 643.467 641.333 652.933 641.333 654.133C641.333 654.667 643.733 657.6 646.667 660.8C649.6 664 652 667.467 652 668.4C652 669.467 653.6 672 655.6 674.133C657.6 676.267 662.133 684 665.733 691.333C679.467 719.6 697.067 750.133 700.8 752.4C705.733 755.333 728 791.333 750.667 833.333C761.867 854 767.2 862.133 774.533 870C785.2 881.333 808.133 912.933 814.267 924.533C816.133 928.133 819.6 934.133 822 937.867C824.4 941.6 829.467 949.733 833.333 956C837.333 962.267 843.6 971.467 847.467 976.667C856.267 988.4 889.733 1039.6 893.467 1047.07C897.2 1054.27 909.067 1074.4 912.267 1078.67C913.733 1080.53 918 1087.2 921.733 1093.6C925.6 1100 931.2 1108.13 934.267 1111.6C937.2 1115.2 941.867 1121.07 944.533 1124.67C947.067 1128.4 951.467 1134.4 954.133 1138.27C956.8 1142.13 959.2 1146.67 959.333 1148.4C959.867 1152.67 971.733 1173.33 973.733 1173.33C974.667 1173.47 983.467 1187.07 993.333 1203.6C1013.6 1237.73 1019.07 1244.13 1033.6 1251.2C1065.07 1266.53 1099.07 1256.13 1113.87 1226.67C1119.73 1214.67 1121.87 1204.67 1120.93 1192C1120 1180.13 1117.33 1174.53 1083.2 1112C1070.93 1089.6 1059.6 1067.73 1057.87 1063.33C1056 1058.93 1053.87 1054.67 1052.93 1054C1052 1053.2 1049.33 1049.6 1046.93 1045.73C1044.53 1042 1041.6 1038.13 1040.4 1037.2C1037.87 1035.07 1028 1020.4 1019.73 1006.67C1016.4 1001.2 1008.53 988 1002.13 977.333C982.4 944.4 974.267 931.867 964.267 918.667C958.933 911.733 953.867 903.6 953.067 900.667C951.333 895.067 916 840.533 895.2 811.2C888 801.2 882.267 791.733 881.867 789.2C881.333 786.667 876.667 778 871.467 770C866.133 761.867 858.267 749.333 854 742C849.733 734.667 844.667 727.333 842.933 725.467C841.2 723.733 837.067 718.133 833.867 713.2C830.667 708.133 824 698.533 819.2 691.733C814.267 684.933 808.933 676.133 807.333 672C805.733 668 802.8 662.133 800.933 659.067C798.933 655.867 797.333 653.067 797.333 652.667C797.333 652.267 793.733 647.467 789.2 642C776.533 626.4 767.6 613.333 764.133 605.333C762.267 601.333 759.333 595.867 757.333 593.333C755.467 590.8 751.2 583.867 747.867 578.133C744.667 572.133 737.333 562.4 731.333 555.867C720.667 544.267 712 533.067 712 530.933C712 529.2 699.6 511.733 690.667 500.667C680 487.6 670.667 473.333 663.6 459.333C660.267 452.667 653.6 441.333 648.8 434C644 426.667 640 419.867 640 418.933C640 417.867 636.133 413.067 631.467 408.267C614.533 390.533 594.533 361.867 580.4 334.8C578.8 331.6 575.333 326.4 572.667 323.333C570.133 320.133 568 317.067 568 316.4C568 315.733 564.8 310.933 560.8 305.867C556.8 300.8 551.867 293.867 549.867 290.4C547.733 287.067 543.2 280 539.733 274.933C536.267 269.733 531.2 260.8 528.4 255.067C524.4 246.8 519.867 240.933 506 226C482 200.267 450.533 158.133 444 142.933C436.133 124.533 431.067 105.2 428.267 82.5333C426 64.5333 419.6 56.7999 395.467 42.9333C388.133 38.5333 376.267 31.6 369.333 27.3333C339.867 9.19995 320 3.59998 300.8 8.1333ZM340 21.0667C345.067 24.2666 356 36.2666 356 38.7999C356 39.2 350.933 40 344.933 40.5333C329.867 41.7333 305.067 46.9333 288.933 52.1333C276.133 56.4 275.6 56.4 273.867 54C271.333 50.5333 271.6 47.0667 274.8 41.8666C276.933 38.4 281.6 35.3333 296.4 27.8666C306.8 22.5333 316.8 17.7333 318.667 17.2C324.133 15.3333 333.6 17.0667 340 21.0667ZM398.133 54.5333C404 58.1333 406.933 63.4667 415.867 86.7999C424.933 110.667 426 114.933 424.133 118.533C421.467 123.333 418 123.2 411.2 118C403.067 111.733 399.067 109.733 385.467 105.2C374 101.333 369.333 98.4 369.333 95.0667C369.333 94.1333 369.6 93.3333 369.867 93.3333C370.4 93.3333 398 105.333 414.4 112.667C420.8 115.6 421.333 115.733 421.333 113.467C421.333 107.6 403.467 96.6666 381.067 88.6666C368.933 84.4 366.933 82 365.2 69.6C363.867 60.5333 361.2 54.7999 358.267 54.5333C357.467 54.5333 357.867 54 359.333 53.3333C360.8 52.6666 369.2 52.1333 378 52.1333C391.467 52 394.667 52.4 398.133 54.5333ZM355.733 72.2666C359.333 94.1333 363.067 130.667 362.4 136.667L361.867 140.667L360.133 136.667C359.2 134.4 357.867 126.667 357.2 119.333C355.333 101.2 351.467 82.2666 346.133 66.5333L341.733 53.3333H347.2H352.667L355.733 72.2666ZM335.067 62.6666C337.333 67.2 337.333 67.3333 334.667 67.7333C331.467 68.2666 318.267 64.5333 312.667 61.6L308.667 59.4667L312.667 58.5333C314.933 58 320.267 57.7333 324.667 57.7333C332.4 58 332.8 58.1333 335.067 62.6666ZM306.267 68C316.267 70.4 336.667 78.4 335.6 79.6C335.333 79.8666 328.8 78.5333 321.2 76.6666C302.933 72.4 282.667 68.9333 281.6 70C279.867 71.6 288 77.2 294.933 79.2C298.8 80.4 307.067 82.2666 313.333 83.3333C319.867 84.6666 327.467 87.0667 331.333 89.2C339.867 93.8667 347.467 104.533 349.6 114.667C351.2 122.933 350.133 133.6 347.333 136.533C346.267 137.467 340.533 139.6 334.4 141.2C328.267 142.8 312.8 147.467 300 151.6C242.133 170 206.933 195.2 187.333 232.4C166.133 272.533 169.733 303.6 203.467 370.267C215.467 394 215.6 393.333 200 382.133C196 379.333 185.733 370 177.333 361.467C148.4 332.4 125.733 292.133 108 238.667C96 202.267 94.4 183.067 102.4 166.4C106.4 157.867 113.867 149.2 120 146C121.867 145.067 131.467 142.133 141.467 139.467C185.6 127.733 216.8 114.667 238.933 98.4C254.933 86.6666 263.333 81.6 270 79.8666C278 77.7333 279.333 76.7999 280 72.5333C281.333 65.0667 288.8 63.7333 306.267 68ZM374.8 109.867C377.333 110.8 385.2 113.867 392.4 116.533C405.867 121.733 408.4 124 400.8 124C395.067 124 380.667 128.4 375.067 132L370.667 134.667V129.467C370.667 126.667 370.267 120.667 369.867 116.133C369.333 111.733 369.2 108 369.6 108C370 108 372.4 108.8 374.8 109.867ZM64.6666 144.133L87.3333 155.333L87.2 160C87.2 162.533 86.4 169.467 85.6 175.467C81.8666 202.533 92.6666 247.467 112.667 288.667C137.733 339.867 173.733 381.333 223.067 415.333C232.667 421.867 241.6 428.933 243.067 430.933C246.933 436.133 247.333 445.467 244.133 459.6C242.533 466.4 241.333 475.733 241.333 480.4C241.333 488 240.933 489.2 237.333 492.667C234.533 495.333 231.733 496.533 226.933 497.067C218 497.867 210.8 494 192.667 478.267C176.8 464.533 130.267 417.867 115.2 400.667C55.8666 332.533 23.2 250.533 22.2666 168C22 142.8 22.8 138.933 29.6 134C34.5333 130.533 40.4 132.267 64.6666 144.133ZM419.467 136.667C423.467 139.2 427.467 144.667 436.667 159.6L444.133 172L445.333 186.933C446 195.2 448.133 208 450.133 215.333C455.333 235.2 455.467 236.933 451.867 241.067C450.133 242.933 449.733 243.733 451.067 242.8C452.267 241.733 453.733 241.333 454.133 241.733C455.6 243.2 455.067 291.467 453.467 294.4C452.667 295.867 452 298.8 451.867 300.933C451.867 302.933 450.8 307.867 449.6 311.733L447.333 318.8L434.267 304.533C418.933 287.733 416.133 282.933 417.333 275.333C422 246.8 422.933 237.067 422.267 226C420.533 201.733 414.667 176.4 405.2 153.2C400.533 141.867 400.667 137.467 405.6 134.933C409.2 133.2 415.333 133.867 419.467 136.667ZM109.867 139.2C109.067 141.333 101.467 145.333 98.4 145.333C94.9333 145.333 84.1333 141.2 82.5333 139.2C81.2 137.6 83.2 137.333 95.7333 137.333C108 137.333 110.4 137.6 109.867 139.2ZM395.733 153.6C408.667 186.933 412.533 204.133 412.667 228.667C412.667 247.6 410.133 264.4 407.333 263.6C406.667 263.467 404 259.333 401.6 254.667C397.2 246 397.2 246 398.133 232C399.467 210 394.4 188.533 381.333 160.4C376.4 149.6 375.867 147.733 377.467 145.867C379.333 143.6 386.133 140.133 388.933 140C389.733 140 392.8 146.133 395.733 153.6ZM348 151.733C348 152.4 345.6 154.8 342.667 157.2C339.2 159.867 335.733 164.667 333.333 169.733C331.2 174.267 328.133 178.8 326.533 179.733C325.067 180.667 306.533 184.4 285.333 187.867C250.933 193.6 246 194.667 236.667 199.067C224.933 204.667 222.533 205.2 226.133 201.2C233.6 193.067 276 173.333 311.6 161.467C345.2 150.4 348 149.6 348 151.733ZM375.067 193.867C380.933 210.267 384.267 222.8 383.333 224.933C382.667 226.8 382.267 226.667 379.867 224.533C375.333 220.533 372.267 213.2 368.667 198.133C366.933 190.4 363.333 179.867 360.667 174.8C356 165.333 355.2 162.133 356.933 157.867C357.6 156 359.6 159.067 364.8 169.867C368.667 177.867 373.2 188.533 375.067 193.867ZM354.533 186.267C354.667 188.933 352.933 188.4 348 184.133L343.467 180.4L345.2 174.533L347.067 168.667L350.8 176.667C352.8 181.067 354.533 185.467 354.533 186.267ZM490.667 230C500.4 238.4 511.867 251.333 510.533 252.667C510.133 252.933 505.867 250.4 500.8 247.067C495.733 243.733 488 239.2 483.467 237.067C474 232.4 467.467 226.667 464 220C461.2 214.533 457.333 198 457.333 191.733C457.333 187.733 458.4 188.933 468.533 204C477.333 217.2 482 222.667 490.667 230ZM477.333 246.533C497.867 256 526.267 277.067 534.8 289.2C537.733 293.333 543.067 300.533 546.667 305.333C560.267 323.2 562.8 327.6 566.8 340.8C568.933 348.133 571.2 355.2 571.867 356.667C574 361.067 577.067 371.867 580 384.667C581.6 391.2 584.267 401.2 586 406.8C588.8 415.733 592.667 441.067 591.467 442.4C591.2 442.667 589.6 441.067 588.133 438.8C583.067 431.6 559.467 406.933 554 402.933C544 395.733 526.4 378 514.267 363.333C507.733 355.2 501.2 347.733 499.867 346.533C498.533 345.333 491.467 332.267 484 317.467C468.4 286.267 465.6 276.933 464.4 252L463.6 235.333L468.133 239.867C470.667 242.4 474.8 245.333 477.333 246.533ZM472.4 317.333C474.4 320.667 476 324.533 476 326C476 329.867 483.733 344.667 491.333 355.333C498 364.4 502.133 368.933 518.8 384.933C530.933 396.533 531.867 397.867 535.333 407.733C541.867 426.8 552.267 480 549.467 480C548 480 540.933 469.867 537.333 462.667C534.667 457.6 528.533 449.333 513.467 430.667C511.467 428 508.4 423.2 506.667 420C505.067 416.667 502.667 413.067 501.333 412C499.2 410.4 486.533 386.533 480.533 373.333C475.733 362.8 461.2 335.333 459.2 333.2C456.933 330.8 456.933 330.267 459.067 323.467C460.267 319.6 461.733 312.667 462.267 308L463.067 299.6L466 305.467C467.6 308.667 470.533 314 472.4 317.333ZM592.133 376.133C594.8 379.333 598.4 384.667 600 388C601.733 391.333 604.667 396.133 606.533 398.667C616.4 411.6 627.867 458.267 626.133 478C625.467 485.333 626.133 491.867 629.467 509.333C634.8 537.733 639.067 557.067 642.533 568.667C647.333 584.267 648.4 606.8 645.467 626.933L643.733 638.533L635.867 628.933C628.667 620.133 618.8 601.2 621.067 600.4C622.133 600 620.667 560.267 619.467 557.333C619.067 556.267 618.533 553.2 618.133 550.667C617.6 546 614.933 535.733 608.8 514.267C604.267 498.533 603.733 494.8 603.333 473.333C602.8 446.933 600.933 435.067 590.133 392.267C583.733 366.933 583.067 362.8 585.733 367.467C586.667 368.933 589.467 372.933 592.133 376.133ZM560.667 421.6L570 430.533V445.6C570 462.8 567.6 488.8 565.2 496.667L563.733 501.867L561.333 498.933C559.333 496.533 558.933 493.6 558.933 484.267C558.933 475.733 557.467 465.333 553.333 445.333C550.267 430.267 547.2 415.733 546.667 412.933C545.733 407.867 545.733 407.867 548.533 410.267C550 411.6 555.6 416.667 560.667 421.6ZM657.067 478C660.667 488.4 661.067 494.933 659.333 510.533C656.267 537.867 655.6 553.333 657.333 567.333C659.6 587.2 663.733 607.867 666.667 614.667C668.133 618 670.533 625.333 672 630.933C673.333 636.533 675.733 643.867 677.2 647.2C679.733 652.533 684.133 670.133 690.133 698C691.2 703.067 692.4 708.533 692.8 710C694.267 716.133 682.933 692.933 678.667 681.6C677.067 677.067 674.533 672.667 673.333 672C672 671.333 669.067 667.6 666.667 663.733C664.267 659.867 660.8 654.933 658.8 652.933C655.333 649.2 655.333 648.933 656 634.267C657.467 599.333 656 571.867 651.867 559.733C650.4 555.467 649.067 550.267 648.8 548.267C648.533 546.267 647.6 542.8 646.667 540.667C643.6 533.2 642.533 527.333 641.333 511.333C640.533 502.533 639.733 493.2 639.467 490.667C638.133 479.6 635.067 449.6 634.8 445.333C634.667 441.2 635.6 442.267 644.8 456.667C650.533 465.467 656 475.067 657.067 478ZM585.733 453.6C587.467 457.467 590.667 468.4 592.667 478C594.667 487.467 597.733 501.067 599.467 508C608.933 546.4 612.667 567.2 611.467 573.867C609.067 585.6 609.6 585.333 604.8 576.667C602.533 572.267 598.133 564.8 595.067 560C592 555.2 587.467 546.4 584.8 540.4C582.267 534.4 578 526 575.333 522C571.067 515.2 570.667 514 572 510.267C573.733 504.667 577.067 484.267 578.667 468.133C580.133 454.667 581.333 446.667 582 446.667C582.267 446.667 584 449.867 585.733 453.6ZM680 510.8C680 511.6 684.4 517.333 689.733 523.333C701.6 536.8 713.333 551.733 713.333 553.2C713.333 553.867 715.467 560 718 566.667C720.667 573.6 722.667 581.333 722.667 584.533C722.667 587.6 720.667 600.667 718.133 613.467C711.067 649.6 704.933 686.8 705.2 692.667C705.333 695.6 705.2 697.6 704.8 697.333C704.133 696.533 696.133 664 692.667 647.6C691.333 641.6 689.333 636 687.867 634.533C685.067 631.733 679.467 615.333 677.333 604C676.667 600 674.933 592.8 673.467 588C669.333 574 667.6 550.133 668.667 521.6L669.733 496.267L674.8 502.8C677.733 506.267 680 510 680 510.8ZM750.933 604.4C753.867 610.267 757.867 617.6 759.867 620.533C762 623.6 764.933 628.667 766.667 632C768.267 635.333 771.6 640.133 773.867 642.933C783.333 654.133 788 659.867 788 660.4C788 661.467 800.4 682.533 804.933 689.333C810.8 698 818.133 711.333 816.4 710.267C815.2 709.467 809.733 701.6 794.8 678.667C792.133 674.667 789.333 670.667 788.4 670C787.6 669.2 783.867 664.8 780 660C770.667 648.267 753.467 630.667 751.2 630.667C748.667 630.667 748.8 632.4 751.867 637.6C754.267 641.867 757.467 654.267 764.8 687.333C768.267 703.2 768.4 703.6 767.6 742.667C766.667 789.6 767.333 797.067 775.6 826C776.133 828.133 775.6 828 772 824.667C769.733 822.4 766.8 818.8 765.733 816.667C763.067 811.6 751.867 798.267 739.467 785.333C734.133 779.867 728.667 773.467 727.333 771.333C726 769.067 723.6 765.867 722 764C716.4 757.6 714.267 742 714.933 714.533C715.333 699.467 716.533 686.133 717.867 680C718.933 674.533 721.867 656.8 724.133 640.667C726.267 624.533 728.667 608.933 729.333 606C730 603.067 730.933 595.2 731.467 588.533L732.4 576.267L739.067 585.067C742.8 589.867 748.133 598.533 750.933 604.4ZM792.267 689.2C808.533 712.8 817.867 724.133 836.533 742.4C851.467 757.2 861.6 771.2 865.867 783.067C868.533 790.267 876.133 804.4 880.933 810.933C883.467 814.533 884.933 817.333 884.267 817.333C883.467 817.333 881.6 815.333 880.133 812.933C875.2 804.8 853.467 786.133 841.867 780.133C839.067 778.533 831.467 772.4 825.067 766.267C815.6 757.2 812.533 753.2 808.533 744.933C805.733 738.8 802.933 734.667 801.733 734.667C800.133 734.667 800 735.6 800.667 738.267C801.2 740.4 801.867 744.933 802.133 748.667C802.533 752.267 803.6 758.667 804.667 762.667C813.2 795.467 825.467 818.667 843.733 836.533C865.333 857.467 908 911.867 908 918.267C908 921.467 911.333 919.333 911.467 916C911.6 914.267 910.267 908.667 908.533 903.467C906.8 898.267 904.533 888.533 903.467 882C899.6 858 896 839.2 894 833.467C892.933 830.133 892.267 827.333 892.533 826.933C892.933 826.667 895.2 829.2 897.6 832.667C900 836.133 905.067 843.333 908.933 848.533C920.933 864.933 927.867 878.667 929.867 890.267C931.867 901.333 933.867 925.067 933.467 934C933.333 936.933 934.533 942.933 936 947.2C937.467 951.6 938.667 956 938.667 957.2C938.667 958.4 941.467 965.867 944.8 974C952 991.733 957.2 1005.73 958.8 1012C959.333 1014.53 960 1027.2 960 1040C960.133 1059.2 960.8 1066.13 963.467 1079.2C965.333 1088 967.6 1096.93 968.667 1099.2C972.133 1106.93 974.8 1138.67 972.667 1147.07C971.733 1150.67 971.6 1150.53 966.133 1141.73C962.933 1136.8 958.133 1128.27 955.2 1123.07C952.4 1117.73 949.333 1113.33 948.4 1113.33C947.6 1113.33 943.467 1108.27 939.333 1102.13L931.733 1090.93L930.667 1077.87C930.133 1070.67 930.267 1060.27 930.8 1054.8C931.333 1049.2 931.867 1035.07 931.867 1023.33C932 1001.73 930.933 994.8 926 983.467C924.8 980.533 923.6 977.067 923.333 975.867C923.067 974.533 918.533 967.333 913.2 959.733C898.667 938.933 866 906.4 839.333 886.4C827.6 877.6 817.333 870 816.667 869.6C814.267 868 802 851.867 794.933 840.933C784.133 824.267 781.467 817.867 778 798.667C775.067 782.933 774.667 777.2 774.533 747.2C774.533 728.533 774.8 712.8 775.333 712.133C776.267 710.533 772.933 690.267 768.667 671.333C766.8 663.333 765.333 656.4 765.333 656C765.467 653.867 781.733 673.867 792.267 689.2ZM830.4 725.333C831.333 726.8 831.867 728 831.6 728C831.333 728 830 726.8 828.667 725.333C827.333 723.867 826.8 722.667 827.467 722.667C828.133 722.667 829.467 723.867 830.4 725.333ZM827.467 782.933C830 785.6 834.667 789.067 838 790.667C843.6 793.467 847.067 795.733 860.4 806.267C866.933 811.333 875.467 823.2 882 836C886.267 844.267 892.267 868.133 891.733 874.133C891.333 878.533 891.333 878.533 880.667 865.733C874.8 858.667 862.4 844.933 853.2 835.2C838 819.333 835.6 816 829.6 803.733C825.867 796.133 821.067 785.2 818.8 779.333L814.8 768.667L818.8 773.333C821.067 775.867 824.933 780.267 827.467 782.933ZM802.4 874.667C828 892.133 836.133 898.267 847.867 909.067C873.067 932 880.8 940 892.667 955.333C899.6 964.133 906.8 973.067 908.667 975.333C920.533 988.667 924 1013.07 919.333 1050C918.133 1058.8 917.067 1066.53 916.8 1067.33C915.467 1071.2 906 1043.6 902 1024.8C897.333 1001.73 894.133 993.467 884.4 979.067C872.533 961.067 869.333 957.867 842 936C830.933 927.2 817.6 911.733 810.4 899.6C807.467 894.667 803.467 888.667 801.333 886.267C797.2 881.467 785.2 864 786.133 864C786.533 864 793.733 868.8 802.4 874.667ZM951.2 919.867C954.533 924.267 957.333 928.533 957.333 929.6C957.333 930.533 959.2 936.4 961.467 942.667C967.733 960.267 972 975.333 975.467 992C978.133 1004.93 978.667 1011.47 978.667 1034.4C978.8 1057.73 979.333 1063.47 982 1075.07C983.6 1082.53 986 1091.07 987.067 1094C991.067 1104.8 996 1122.53 996 1126.67C996 1130.4 988.933 1164.13 987.067 1169.33C986.533 1170.8 986 1170.67 984.933 1168.27C983.867 1166 984 1161.87 985.2 1153.07C988.133 1132.53 986.8 1110.93 982 1101.73C980.933 1099.73 980 1097.2 980 1096.27C980 1095.2 979.067 1092.8 978 1090.93C973.467 1082.67 970.667 1067.33 969.2 1042C967.733 1015.33 964.4 994 959.867 981.467C948.933 952 942.4 924.4 942.8 909.333C942.933 904.8 942.933 904.8 944 908.267C944.533 910.267 947.867 915.467 951.2 919.867ZM863.6 964.533C867.467 968.667 872.4 974.933 874.8 978.4C877.2 981.867 880.8 987.067 882.8 990C887.2 996.533 890.4 1005.73 891.867 1016.53C892.533 1020.93 892.933 1024.8 892.8 1024.93C892.533 1025.2 887.6 1018 881.6 1008.93C875.6 1000 867.333 988.4 863.333 983.333C855.467 973.2 839.067 949.2 837.733 945.733C836.267 942.133 856.533 956.667 863.6 964.533ZM992.933 983.467C994.4 985.6 997.6 991.2 1000 996C1002.4 1000.8 1006.67 1008.13 1009.6 1012.4C1012.53 1016.67 1015.73 1022.13 1016.8 1024.67C1020.27 1033.07 1046.27 1070.13 1047.73 1068.67C1048.13 1068.27 1052.93 1076.53 1058.27 1086.8C1063.73 1097.2 1070.93 1110.53 1074.53 1116.53L1080.93 1127.47H1076.67C1066.67 1127.47 1060 1136.27 1060 1149.2C1060 1165.73 1071.07 1209.73 1080.8 1231.87C1085.6 1242.53 1085.33 1243.2 1077.07 1242.13C1068.27 1240.93 1062.67 1238.53 1054.4 1232.4C1045.07 1225.6 1037.73 1215.07 1027.47 1194C1022.67 1184.13 1018.13 1176 1017.47 1176C1014.4 1176 1014 1208 1016.8 1218.67L1017.73 1222L1014.13 1218.67C1012.13 1216.93 1008.27 1210.93 1005.6 1205.47C1000.93 1196 1000.67 1194.8 1000.67 1182.8C1000.8 1171.6 1001.47 1168 1005.87 1154.67C1012.53 1134.67 1013.47 1122.67 1009.33 1111.33C1003.2 1094.53 997.333 1075.2 997.333 1071.73C997.333 1069.87 996.533 1068 995.733 1067.73C994.4 1067.2 994 1059.47 993.867 1035.2C993.6 1001.73 993.333 998.8 986.667 979.467C984.533 972.8 982.667 967.2 982.667 966.8C982.667 966.4 984.4 969.067 986.533 972.8C988.533 976.667 991.467 981.467 992.933 983.467ZM1084 1140.27C1089.33 1144 1092.93 1148.67 1094.13 1153.87L1095.07 1157.87L1091.33 1154.93C1086.8 1151.33 1085.07 1151.2 1082 1154.67C1080 1156.93 1079.73 1158.67 1080.53 1166.67C1082.13 1184 1089.6 1210.27 1097.33 1225.33C1100.27 1231.2 1100 1233.33 1096 1233.33C1091.47 1233.33 1088.8 1227.6 1079.2 1196.67C1074.13 1180.53 1069.33 1157.33 1069.33 1149.47C1069.33 1143.73 1073.47 1137.33 1077.2 1137.33C1078.53 1137.33 1081.6 1138.67 1084 1140.27ZM962.667 1152C963.467 1153.47 963.733 1154.67 963.467 1154.67C963.067 1154.67 962.133 1153.47 961.333 1152C960.533 1150.53 960.267 1149.33 960.533 1149.33C960.933 1149.33 961.867 1150.53 962.667 1152ZM1106.53 1178.4C1119.47 1195.87 1119.6 1196.4 1116 1209.2C1114.27 1215.2 1112.4 1220 1111.87 1220C1111.47 1220 1110.67 1216.93 1110.4 1213.33C1110 1208.93 1107.47 1202 1103.33 1193.6C1098.8 1184.53 1096.67 1178.53 1096.27 1173.47C1095.87 1168.93 1096.13 1166.53 1097.07 1166.8C1097.73 1167.07 1102.13 1172.27 1106.53 1178.4ZM1035.87 1225.73C1041.87 1233.73 1052.53 1243.2 1057.33 1244.67C1061.33 1245.87 1060.53 1247.87 1055.33 1250.13C1050 1252.27 1042.27 1252.53 1038.67 1250.67C1032.53 1247.47 1025.2 1227.33 1025.47 1214.67V1211.33L1027.73 1214.67C1028.93 1216.4 1032.67 1221.47 1035.87 1225.73Z" fill="black"/>
<path d="M479.333 256.8C481.2 259.467 482.667 262.667 482.667 264C482.667 265.2 483.867 270.934 485.333 276.8C486.933 282.534 488.667 290.134 489.333 293.6C490 297.2 491.733 302.534 493.2 305.6C494.533 308.8 496.8 314 498.267 317.334C501.2 324 513.067 342.267 519.067 349.334C521.333 351.867 532 363.334 542.8 374.667C563.333 396.267 566.8 400.534 571.867 411.067C574.667 416.8 577.867 420 579.333 418.534C579.6 418.267 578.667 414.667 577.2 410.667C575.733 406.667 573.067 396.4 571.333 388.134C564.8 357.6 553.467 326.134 546.133 318.4C543.867 316 533.867 307.067 524 298.534C513.333 289.334 503.6 279.467 500 274.534C492.133 263.6 480.933 252 478.267 252C476.4 252 476.667 252.8 479.333 256.8ZM522.267 310C527.6 314 532.267 317.334 532.8 317.334C534.667 317.334 541.733 326.4 544.667 332.667C548.667 341.067 554.533 361.2 555.6 370L556.4 376.667L548.533 368C544.267 363.2 536.667 355.067 531.867 350C516.533 333.6 504.4 314.267 500.533 299.334C499.467 295.6 498.667 292.134 498.667 291.467C498.667 290.8 501.867 293.067 505.733 296.534C509.467 300 516.933 306 522.267 310Z" fill="black"/>
</svg>
