<svg width="1440" height="1267" viewBox="0 0 1440 1267" fill="none" xmlns="http://www.w3.org/2000/svg">
<path d="M1109.6 8.66648C1099.6 11.4665 1085.33 18.2665 1070.67 27.3331C1063.73 31.5998 1051.87 38.5331 1044.53 42.9331C1020.4 56.7998 1014 64.5331 1011.73 82.5331C1008.93 105.2 1003.87 124.533 996 142.933C989.466 158.133 958 200.266 934 226C920.133 240.933 915.6 246.8 911.6 255.066C908.8 260.8 903.733 269.733 900.266 274.933C896.8 280 892.266 287.066 890.133 290.4C888.133 293.866 883.2 300.8 879.2 305.866C875.2 310.933 872 315.733 872 316.4C872 317.066 869.866 320.133 867.333 323.333C864.666 326.4 861.2 331.6 859.6 334.8C845.466 361.866 825.466 390.533 808.533 408.266C803.866 413.066 800 417.866 800 418.933C800 419.866 796 426.666 791.2 434C786.4 441.333 779.733 452.666 776.4 459.333C769.333 473.333 760 487.6 749.333 500.666C740.4 511.733 728 529.2 728 530.933C728 533.066 719.333 544.266 708.666 555.866C702.666 562.4 695.333 572.133 692.133 578.133C688.8 583.866 684.533 590.8 682.666 593.333C680.666 595.866 677.733 601.333 675.866 605.333C672.4 613.333 663.466 626.4 650.8 642C646.266 647.466 642.666 652.266 642.666 652.666C642.666 653.066 641.066 655.866 639.066 659.066C637.2 662.133 634.266 668 632.666 672C631.066 676.133 625.733 684.933 620.8 691.733C616 698.533 609.333 708.133 606.133 713.2C602.933 718.133 598.8 723.733 597.066 725.466C595.333 727.333 590.266 734.666 586 742C581.733 749.333 573.866 761.866 568.533 770C563.333 778 558.666 786.666 558.133 789.2C557.733 791.733 552 801.2 544.8 811.2C524 840.533 488.666 895.066 486.933 900.666C486.133 903.6 481.066 911.733 475.733 918.666C465.733 931.866 457.6 944.4 437.866 977.333C431.466 988 423.6 1001.2 420.266 1006.67C412 1020.4 402.133 1035.07 399.6 1037.2C398.4 1038.13 395.466 1042 393.066 1045.73C390.666 1049.6 388 1053.2 387.066 1054C386.133 1054.67 384 1058.93 382.133 1063.33C380.4 1067.73 369.066 1089.6 356.8 1112C322.666 1174.53 320 1180.13 319.066 1192C318.133 1204.67 320.266 1214.67 326.133 1226.67C334.666 1243.73 349.333 1254.4 368.533 1257.6C386.533 1260.53 409.333 1253.2 422.4 1240.13C426.266 1236.13 435.466 1222.53 446.666 1203.6C456.533 1187.07 465.333 1173.47 466.266 1173.33C468.266 1173.33 480.133 1152.67 480.666 1148.4C480.8 1146.67 483.2 1142.13 485.866 1138.27C488.533 1134.4 492.933 1128.4 495.466 1124.67C498.133 1121.07 502.8 1115.2 505.733 1111.6C508.8 1108.13 514.4 1100 518.266 1093.6C522 1087.2 526.266 1080.53 527.733 1078.67C530.933 1074.4 542.8 1054.27 546.533 1047.07C550.266 1039.6 583.733 988.4 592.533 976.666C596.4 971.466 602.666 962.266 606.666 956C610.533 949.733 615.6 941.6 618 937.866C620.4 934.133 623.866 928.133 625.733 924.533C631.866 912.933 654.8 881.333 665.466 870C672.8 862.133 678.133 854 689.333 833.333C712 791.333 734.266 755.333 739.2 752.4C742.933 750.133 760.533 719.6 774.266 691.333C777.866 684 782.4 676.266 784.4 674.133C786.4 672 788 669.466 788 668.4C788 667.466 790.4 664 793.333 660.8C796.266 657.6 798.666 654.666 798.666 654.133C798.666 652.933 805.6 643.466 806.933 642.933C808.666 642.133 816 630.533 822.933 618C826.533 611.333 831.066 603.6 833.066 600.533C835.066 597.6 838 593.066 839.6 590.533C841.333 588 842.666 585.333 842.666 584.666C842.666 583.866 843.866 582.533 845.2 581.733C846.533 580.8 848.8 577.333 850.133 573.733C851.466 570.266 853.466 565.866 854.666 564C858.4 558.4 866.133 544.933 869.2 538.933C870.8 535.866 872.666 533.333 873.333 533.333C874.933 533.333 879.6 526.133 888.266 510.133C891.866 503.466 897.066 495.6 899.866 492.666C902.666 489.733 906.666 484.933 908.8 482C910.933 479.066 916.266 472.4 920.8 467.066C925.2 461.733 930.933 453.6 933.333 449.066C935.733 444.4 938.533 439.733 939.466 438.666C940.4 437.6 944.8 429.466 949.333 420.666C953.866 411.866 958.266 403.733 959.333 402.666C960.266 401.6 962.266 397.6 963.733 394C970.4 376.933 996.4 332.933 1005.87 322.666C1008.27 320.133 1011.87 315.6 1014 312.8C1016.13 309.866 1021.6 303.466 1026.27 298.533C1030.93 293.733 1035.6 287.466 1036.67 284.8C1037.73 282.133 1039.47 280 1040.53 280C1041.6 280 1042.27 278.133 1042.4 275.2C1042.53 272.533 1043.87 268.266 1045.33 265.733C1050.27 257.2 1096.27 195.866 1098.67 194.666C1100.93 193.466 1158.27 201.333 1180.53 206C1222 214.666 1247.2 235.733 1252 265.866C1257.6 300.933 1230.13 369.733 1191.07 418.8C1186.67 424.266 1182.4 430.133 1181.47 431.733C1179.2 436.133 1179.73 444.933 1183.33 458.533C1185.6 466.933 1186.67 474.8 1186.67 481.866C1186.67 491.066 1187.2 493.6 1190.4 499.2C1192.4 502.8 1194.93 506 1196 506.266C1197.07 506.4 1201.07 507.333 1204.93 508.266C1217.73 511.2 1235.6 504.533 1253.2 490.133C1292.8 457.733 1340.27 405.733 1367.33 365.333C1413.6 296.266 1436 219.466 1429.47 152.933C1428.13 138.933 1424.67 118.933 1423.47 117.733C1423.2 117.466 1414.13 118.4 1403.2 119.866C1368 124.533 1348.8 125.733 1323.47 124.933C1295.87 124.133 1279.73 121.733 1260.4 115.333C1215.6 100.4 1184.27 72.3998 1169.6 33.5998C1165.6 23.0665 1160.67 17.8665 1149.87 12.5331C1141.47 8.26648 1138.67 7.59981 1128.4 7.19981C1120.67 6.79981 1114.27 7.33315 1109.6 8.66648ZM1142.67 27.3331C1158.27 35.3331 1163.07 38.3998 1165.2 41.8665C1168.4 47.0665 1168.67 50.5331 1166.13 53.9998C1164.4 56.3998 1163.87 56.3998 1151.07 52.1331C1134.93 46.9331 1110.13 41.7331 1095.07 40.5331C1089.07 39.9998 1084 39.3331 1084 39.0665C1084 38.7998 1085.87 35.8665 1088 32.6665C1095.6 21.5998 1106.8 15.4665 1117.07 16.6665C1120.53 17.0665 1130.53 21.1998 1142.67 27.3331ZM1080.67 53.3331C1082.13 53.9998 1082.53 54.5331 1081.73 54.5331C1078.8 54.7998 1076.13 60.5331 1074.8 69.5998C1073.07 81.9998 1071.07 84.3998 1058.93 88.6665C1036.53 96.6665 1018.67 107.6 1018.67 113.466C1018.67 115.733 1019.2 115.6 1025.73 112.666C1042 105.333 1069.6 93.3331 1070.13 93.3331C1070.4 93.3331 1070.67 94.1331 1070.67 95.0665C1070.67 98.3998 1066 101.333 1054.53 105.2C1040.93 109.733 1036.93 111.733 1028.8 118C1022 123.2 1018.53 123.333 1015.87 118.533C1014 114.933 1015.07 110.666 1024.13 86.7998C1037.2 52.7998 1038 51.9998 1062 52.1331C1070.8 52.1331 1079.2 52.6665 1080.67 53.3331ZM1093.87 66.5331C1088.53 82.2665 1084.67 101.2 1082.8 119.333C1082.13 126.666 1080.8 134.4 1079.87 136.666L1078.13 140.666L1077.6 136.666C1076.93 130.666 1080.67 94.1331 1084.27 72.2665L1087.33 53.3331H1092.8H1098.27L1093.87 66.5331ZM1127.33 58.5331L1131.33 59.4665L1127.33 61.5998C1122.27 64.2665 1109.73 67.9998 1105.73 67.9998C1103.07 67.9998 1102.8 67.5998 1104.13 64.3998C1104.93 62.3998 1106.13 59.9998 1106.93 59.0665C1108.4 57.1998 1120.27 56.9331 1127.33 58.5331ZM1156 67.0665C1158 68.1331 1159.6 70.2665 1160 72.5331C1160.67 76.7998 1162 77.7331 1170 79.8665C1176.67 81.5998 1185.07 86.6665 1201.07 98.3998C1223.2 114.666 1254.4 127.733 1298.53 139.466C1319.47 145.066 1321.47 146 1328.53 152.933C1340.93 165.066 1345.2 184.266 1340.67 207.333C1336 231.6 1319.73 275.066 1305.2 302.666C1285.47 339.733 1257.6 371.6 1229.2 389.6C1226 391.6 1226.93 389.2 1236.53 370.266C1253.2 337.333 1262.53 312 1265.2 292.666C1269.73 260.666 1254.27 223.733 1225.2 196.8C1200.53 174 1161.33 155.733 1105.6 141.2C1099.47 139.6 1093.73 137.466 1092.67 136.533C1089.87 133.6 1088.8 122.933 1090.4 114.666C1092.53 104.533 1100.13 93.8665 1108.67 89.1998C1112.53 87.0665 1120.13 84.6665 1126.67 83.3331C1132.93 82.2665 1141.2 80.3998 1145.07 79.1998C1152 77.1998 1160.13 71.5998 1158.4 69.9998C1157.33 68.9331 1137.07 72.3998 1118.8 76.6665C1111.2 78.5331 1104.67 79.8665 1104.4 79.5998C1103.33 78.5331 1123.6 70.3998 1133.2 67.9998C1145.33 65.0665 1151.47 64.7998 1156 67.0665ZM1070.13 116.133C1069.73 120.666 1069.33 126.666 1069.33 129.466V134.666L1065.07 132C1059.33 128.4 1044.93 124 1039.2 124C1036.67 124 1034.67 123.466 1034.67 122.8C1034.67 122.133 1041.07 119.066 1049.07 116.133C1056.93 113.066 1064.53 110 1066 109.333C1070.67 107.2 1071.07 107.866 1070.13 116.133ZM1410.4 134.133C1417.2 138.8 1418 142.8 1417.73 168C1416.8 250.533 1384.13 332.533 1324.8 400.666C1309.73 417.866 1263.2 464.533 1247.33 478.266C1229.2 494 1222 497.866 1213.07 497.066C1208.27 496.533 1205.47 495.333 1202.67 492.666C1199.07 489.2 1198.67 488 1198.67 480.4C1198.67 475.733 1197.47 466.4 1195.87 459.6C1192.67 445.466 1193.07 436.133 1196.93 430.933C1198.4 428.933 1207.33 421.866 1216.93 415.333C1266.27 381.333 1302.27 339.866 1327.33 288.666C1341.73 259.066 1352 225.333 1354.53 199.333C1355.73 186.933 1355.47 182 1352.53 162.533C1351.73 156.8 1352 156.133 1354.93 154.133C1362.13 149.466 1400.8 132 1404 132C1405.87 132 1408.8 132.933 1410.4 134.133ZM1034 134.933C1039.33 137.333 1039.6 141.733 1034.8 153.2C1025.33 176.4 1019.47 201.733 1017.73 226C1017.07 237.066 1018 246.8 1022.67 275.333C1023.87 282.933 1021.07 287.733 1005.73 304.533L992.666 318.8L990.4 311.733C989.2 307.866 988.133 302.933 988.133 300.933C988 298.8 987.333 295.866 986.533 294.4C984.933 291.466 984.4 243.2 985.866 241.733C986.266 241.333 987.733 241.733 988.933 242.8C990.266 243.733 989.866 242.933 988.133 241.066C984.533 236.933 984.666 235.2 989.866 215.333C991.866 208 994 195.2 994.666 187.066L995.866 172L1003.6 159.333C1013.33 143.333 1018 137.466 1023.2 135.2C1028.4 132.933 1029.73 132.933 1034 134.933ZM1357.47 139.2C1355.87 141.2 1345.07 145.333 1341.6 145.333C1338.53 145.333 1330.93 141.333 1330.13 139.2C1329.6 137.6 1332 137.333 1344.27 137.333C1356.8 137.333 1358.8 137.6 1357.47 139.2ZM1056.4 141.733C1064.8 145.333 1065.07 146.666 1058.67 160.4C1045.6 188.533 1040.53 210 1041.87 232C1042.8 246 1042.8 246 1038.4 254.666C1036 259.333 1033.33 263.466 1032.67 263.6C1027.47 265.2 1025.47 218.666 1029.87 199.333C1034.67 178.4 1048.13 140 1050.8 140C1051.47 140 1054 140.8 1056.4 141.733ZM1105.2 154C1146 165.466 1204.53 190.933 1213.87 201.2C1217.47 205.2 1215.07 204.666 1203.33 199.066C1194 194.666 1189.07 193.6 1154.67 187.866C1133.47 184.4 1114.93 180.666 1113.47 179.733C1111.87 178.8 1108.8 174.266 1106.67 169.733C1104.27 164.666 1100.8 159.866 1097.33 157.2C1092.53 153.333 1090.67 150.666 1092.8 150.666C1093.2 150.666 1098.8 152.133 1105.2 154ZM1084 162.4C1084 164 1081.87 169.6 1079.33 174.8C1076.67 179.866 1073.07 190.4 1071.33 198.133C1067.73 213.2 1064.67 220.533 1060.13 224.533C1057.73 226.666 1057.33 226.8 1056.67 224.933C1055.07 220.933 1064.8 191.733 1074.93 170.266C1081.6 156.4 1083.87 154.266 1084 162.4ZM1096 178.933C1096 181.333 1087.07 188.933 1085.73 187.6C1085.33 187.066 1086.67 182.8 1088.8 177.866L1092.53 168.933L1094.27 172.8C1095.2 174.933 1095.87 177.733 1096 178.933ZM980.666 205.2C976.666 222.666 971.333 229.733 956.533 237.066C952 239.2 944.266 243.733 939.2 247.066C934.133 250.4 929.866 252.933 929.466 252.666C928.133 251.333 939.6 238.4 949.733 229.6C958.666 222 963.2 216.666 971.466 204.133C983.333 186.133 984.8 186.266 980.666 205.2ZM975.6 252.266C974.266 276.933 971.466 286.533 956 317.466C948.533 332.266 941.466 345.333 940.133 346.533C938.8 347.733 932.266 355.2 925.733 363.333C913.6 378 896 395.733 886 402.933C880.533 406.933 856.933 431.6 851.866 438.8C850.4 441.066 848.8 442.666 848.533 442.4C847.333 441.066 851.2 415.733 854 406.8C855.733 401.2 858.4 391.2 860 384.666C862.933 371.866 866 361.066 868.133 356.666C868.8 355.2 871.066 348.133 873.2 340.8C877.2 327.6 879.733 323.2 893.333 305.333C896.933 300.533 902.266 293.333 905.2 289.2C913.866 277.066 942.266 256 962.666 246.533C965.333 245.333 969.2 242.533 971.333 240.266C973.6 237.866 975.6 236 975.866 236C976.133 236 976 243.333 975.6 252.266ZM980.8 322.933C982.933 330.266 982.933 330.8 980.8 333.2C978.8 335.333 964.266 362.8 959.466 373.333C953.466 386.533 940.8 410.4 938.666 412C937.333 413.066 934.933 416.666 933.333 420C931.6 423.2 928.533 428 926.533 430.666C911.466 449.333 905.333 457.6 902.666 462.666C899.066 469.866 892 480 890.533 480C887.733 480 898.133 426.8 904.666 407.733C908.133 397.866 909.066 396.533 921.2 384.933C937.866 368.933 942 364.4 948.666 355.333C956.266 344.533 964 329.866 964 325.866C964 324.4 966 319.866 968.4 315.866C970.8 311.866 973.6 306.533 974.666 304L976.666 299.333L977.6 307.333C978.133 311.733 979.6 318.8 980.8 322.933ZM849.866 392.133C839.066 435.066 837.2 446.933 836.666 473.333C836.266 494.8 835.733 498.533 831.2 514.266C825.066 535.733 822.4 546 821.866 550.666C821.466 553.2 820.933 556.266 820.533 557.333C819.333 560.266 817.866 600 818.933 600.4C821.2 601.2 811.333 620.133 804.133 628.933L796.266 638.533L794.533 626.933C791.6 606.8 792.666 584.266 797.466 568.666C800.933 557.066 805.2 537.733 810.533 509.333C813.866 491.866 814.533 485.333 813.866 478C812.133 458.266 823.6 411.6 833.466 398.666C835.333 396.133 838.533 390.933 840.4 387.333C842.266 383.6 846.266 377.733 849.2 374.133C852.266 370.666 854.666 367.066 854.8 366.133C854.8 365.066 855.066 365.066 855.466 366.133C855.866 366.933 853.333 378.666 849.866 392.133ZM893.333 412.933C892.8 415.733 889.733 430.266 886.666 445.333C882.533 465.333 881.066 475.733 881.066 484.266C881.066 493.6 880.666 496.533 878.666 498.933L876.266 501.866L874.8 496.666C872.4 488.8 870 462.8 870 445.466V430.4L881.866 419.2C888.266 413.066 893.733 408 894 408C894.133 408 893.866 410.266 893.333 412.933ZM805.2 445.6C804.933 449.6 801.866 479.733 800.533 490.666C800.266 493.2 799.466 502.533 798.666 511.333C797.466 527.333 796.4 533.2 793.333 540.666C792.4 542.8 791.466 546.266 791.2 548.266C790.933 550.266 789.6 555.466 788.133 559.733C784 571.866 782.533 599.333 784 634.266C784.666 648.933 784.666 649.2 781.2 652.933C779.2 654.933 775.733 659.866 773.333 663.733C770.933 667.6 768 671.333 766.666 672C765.466 672.666 762.933 677.066 761.333 681.6C757.066 692.933 745.733 716.133 747.2 710C747.6 708.533 748.8 703.066 749.866 698C755.866 670.133 760.266 652.533 762.8 647.2C764.266 643.866 766.666 636.533 768 630.933C769.466 625.333 771.866 618 773.333 614.666C776.266 607.866 780.4 587.2 782.666 567.333C784.4 553.333 783.733 537.866 780.666 510.533C778 487.466 779.6 481.066 794.266 457.866C800 448.8 804.8 441.466 805.066 441.333C805.2 441.333 805.333 443.333 805.2 445.6ZM860.666 462.4C861.866 476.4 866.666 506.933 868.133 510.8C869.333 513.866 868.8 515.466 864.666 521.866C862 526 857.733 534.4 855.2 540.4C852.533 546.4 848 555.2 844.933 560C841.866 564.8 837.466 572.266 835.2 576.666C831.333 583.733 830.8 584.266 830.133 581.333C829.866 579.466 829.2 576.4 828.8 574.533C827.2 567.333 830.666 547.733 840.533 508C842.266 501.066 845.333 487.466 847.333 478C849.333 468.4 852.533 457.333 854.4 453.333C857.733 446.266 857.866 446.133 858.8 449.733C859.333 451.733 860.133 457.466 860.666 462.4ZM770.666 562C769.866 571.466 768 583.2 766.533 588C765.066 592.8 763.333 600 762.666 604C760.533 615.333 754.933 631.733 752.133 634.533C750.666 636 748.666 641.6 747.333 647.6C743.866 664 735.866 696.533 735.2 697.333C734.8 697.6 734.666 695.6 734.8 692.666C735.066 686.8 728.933 649.6 721.866 613.466C719.333 600.666 717.333 587.6 717.333 584.533C717.333 581.333 719.333 573.6 722 566.666C724.533 560 726.666 553.866 726.666 553.2C726.666 551.733 738.4 536.8 750.4 523.333C755.6 517.333 760 511.6 760 510.8C760 510 762.266 506.4 765.066 502.933L770 496.533L771.2 520.533C772 537.333 771.866 550 770.666 562ZM714.4 630.666C716.666 644.933 718.933 660.266 719.333 664.666C719.866 669.066 721.2 676.266 722.266 680.666C723.466 685.466 724.533 698.8 724.933 713.866C725.733 742 723.6 757.466 718 764C716.4 765.866 714 769.066 712.666 771.333C711.333 773.466 705.866 779.866 700.533 785.333C688.133 798.266 676.933 811.6 674.266 816.666C673.2 818.8 670.266 822.4 668 824.666C664.4 828 663.866 828.133 664.4 826C672.666 797.066 673.333 789.6 672.4 742.666C671.6 703.6 671.733 703.2 675.2 687.333C682.533 654.266 685.733 641.866 688.133 637.6C691.2 632.4 691.333 630.666 688.8 630.666C686.533 630.666 669.333 648.266 660 660C656.133 664.8 652.4 669.2 651.6 670C650.666 670.666 647.866 674.666 645.2 678.666C630.266 701.6 624.8 709.466 623.6 710.266C621.866 711.333 629.2 698 635.066 689.333C639.733 682.4 652 661.466 652 660.4C652 660 654 657.333 656.4 654.666C667.2 642 670.533 637.6 673.333 632C674.933 628.666 678.133 623.466 680.266 620.4C682.266 617.333 686.133 610.4 688.666 605.066C691.2 599.733 696.533 591.066 700.266 586L707.333 576.533L708.8 590.666C709.733 598.4 712.266 616.4 714.4 630.666ZM671.333 671.466C667.066 690.266 663.733 710.533 664.666 712.133C665.2 712.8 665.466 728.533 665.466 747.2C665.333 777.2 664.933 782.933 662 798.666C658.533 817.866 655.866 824.266 645.066 840.933C638 851.866 625.733 868 623.333 869.6C622.666 870 612.4 877.6 600.666 886.4C574 906.4 541.333 938.933 526.8 959.733C521.466 967.333 516.933 974.533 516.666 975.866C516.4 977.066 515.2 980.533 514 983.466C509.066 994.8 508 1001.73 508.133 1023.33C508.133 1035.07 508.666 1049.2 509.2 1054.8C509.733 1060.27 509.866 1070.67 509.333 1077.87L508.266 1090.93L500.666 1102.13C496.533 1108.27 492.4 1113.33 491.6 1113.33C490.666 1113.33 487.6 1117.73 484.8 1123.07C481.866 1128.27 477.066 1136.8 473.866 1141.73C468.4 1150.53 468.266 1150.67 467.333 1147.07C465.2 1138.67 467.866 1106.93 471.333 1099.2C472.4 1096.93 474.666 1088 476.533 1079.2C479.2 1066.13 479.866 1059.2 480 1040C480 1027.2 480.666 1014.53 481.2 1012C482.8 1005.73 488 991.733 495.2 974C498.533 965.866 501.333 958.4 501.333 957.2C501.333 956 502.533 951.6 504 947.2C505.466 942.933 506.666 936.933 506.533 934C506.133 925.066 508.133 901.333 510.133 890.266C512.133 878.666 519.066 864.933 531.066 848.533C534.933 843.333 540 836.133 542.4 832.666C544.8 829.2 547.066 826.666 547.466 826.933C547.733 827.333 547.066 830.133 546 833.466C544 839.2 540.4 858 536.533 882C535.466 888.533 533.2 898.266 531.466 903.466C529.733 908.666 528.4 914.266 528.533 916C528.666 919.333 532 921.466 532 918.266C532 911.866 574.666 857.466 596.266 836.533C614.533 818.666 626.8 795.466 635.333 762.666C636.4 758.666 637.466 752.266 637.866 748.666C638.133 744.933 638.8 740.4 639.333 738.266C640 735.6 639.866 734.666 638.266 734.666C637.066 734.666 634.266 738.8 631.466 744.933C627.466 753.2 624.4 757.2 614.933 766.266C608.533 772.4 600.933 778.533 598.133 780.133C586.533 786.133 564.8 804.8 559.866 812.933C558.4 815.333 556.533 817.333 555.733 817.333C555.066 817.333 556.533 814.533 559.066 810.933C563.866 804.4 571.466 790.266 574.133 783.066C578.4 771.2 588.533 757.2 603.466 742.4C622.4 723.866 630.8 713.733 646.533 690.933C657.6 674.8 673.2 655.333 674.266 656.4C674.4 656.666 673.2 663.466 671.333 671.466ZM613.333 723.066C613.333 723.333 612 724.666 610.533 726.133C607.6 728.666 607.6 728.666 609.466 725.6C611.066 723.066 613.333 721.6 613.333 723.066ZM621.066 779.6C618.933 785.333 614.133 796.133 610.4 803.733C604.4 816 602 819.333 586.8 835.2C577.6 844.933 565.2 858.666 559.333 865.733C548.666 878.533 548.666 878.533 548.266 874.133C547.733 868.133 553.733 844.266 558 836C564.533 822.933 573.066 811.333 579.866 806C583.733 803.066 588.4 799.333 590.4 797.733C592.533 796.133 596.933 793.333 600.4 791.6C608.933 786.933 612.4 784.133 618.666 776.133C621.6 772.4 624.266 769.333 624.533 769.333C624.8 769.333 623.333 774 621.066 779.6ZM648.4 872.933C645.066 878 640.666 883.866 638.666 886.266C636.533 888.666 632.533 894.666 629.6 899.6C622.4 911.733 609.066 927.2 598 936C570.666 957.866 567.466 961.066 555.6 979.066C545.866 993.466 542.666 1001.73 538 1024.8C534 1043.6 524.533 1071.2 523.2 1067.33C522.933 1066.53 521.866 1058.8 520.666 1050C516 1013.07 519.466 988.666 531.333 975.333C533.2 973.066 540.4 964.133 547.333 955.333C554.133 946.533 564.533 934.8 570.266 929.333C591.733 908.933 603.6 898.533 613.2 891.733C629.6 879.866 652.666 864.133 653.6 864.133C654 864 651.733 868 648.4 872.933ZM496.133 923.733C494.8 935.733 488 960.4 480.133 981.466C475.6 994 472.266 1015.33 470.8 1042C469.333 1067.33 466.533 1082.67 462 1090.93C460.933 1092.8 460 1095.2 460 1096.27C460 1097.2 459.066 1099.73 458 1101.73C453.2 1110.93 451.866 1132.53 454.8 1153.07C456 1161.87 456.133 1166 455.066 1168.27C454 1170.67 453.466 1170.8 452.933 1169.33C451.066 1164.13 444 1130.4 444 1126.67C444 1122.53 448.933 1104.8 452.933 1094C454 1091.07 456.4 1082.53 458 1075.07C460.666 1063.47 461.2 1057.73 461.333 1034.4C461.333 1011.47 461.866 1004.93 464.533 992C468 975.333 472.266 960.266 478.533 942.666C480.8 936.4 482.666 930.533 482.666 929.6C482.666 928.666 485.733 923.866 489.333 919.066C493.066 914.266 496.133 909.066 496.133 907.466C496.4 904.933 496.4 904.933 496.933 907.733C497.333 909.466 496.933 916.666 496.133 923.733ZM595.2 957.6C590.933 964.4 585.466 972.133 583.2 974.666C578.4 980.133 564.933 998.933 554.8 1014.4C550.8 1020.4 547.466 1025.2 547.333 1025.07C547.066 1024.8 547.466 1020.93 548.133 1016.53C549.6 1005.6 552.8 996.533 557.466 989.6C559.6 986.533 563.2 981.333 565.466 978C572.4 967.733 582.8 957.333 592.533 950.666C597.733 947.2 602.266 944.533 602.533 944.8C602.8 945.066 599.466 950.8 595.2 957.6ZM453.333 979.466C446.666 998.8 446.4 1001.73 446.133 1035.2C446 1059.47 445.6 1067.2 444.4 1067.73C443.466 1068 442.666 1069.87 442.666 1071.73C442.666 1075.2 436.8 1094.53 430.666 1111.33C426.533 1122.67 427.466 1134.67 434.133 1154.67C438.533 1168 439.2 1171.6 439.333 1182.8C439.333 1194.8 439.066 1196 434.4 1205.47C431.733 1210.93 427.866 1216.93 425.866 1218.67L422.266 1222L423.2 1218.67C426 1208 425.6 1176 422.533 1176C421.866 1176 417.333 1184.13 412.533 1194C402.266 1215.07 394.933 1225.6 385.6 1232.4C377.333 1238.53 371.733 1240.93 362.933 1242.13C354.666 1243.2 354.4 1242.53 359.2 1231.87C368.933 1209.73 380 1165.73 380 1149.2C380 1136.27 373.333 1127.47 363.333 1127.47H359.066L365.466 1116.53C369.066 1110.53 376.266 1097.2 381.733 1086.8C387.066 1076.53 391.866 1068.27 392.266 1068.67C393.733 1070.13 419.733 1033.07 423.2 1024.67C424.266 1022.13 427.466 1016.67 430.4 1012.4C433.333 1008.13 437.466 1000.93 439.866 996.4C442.133 991.866 446.4 984.4 449.333 980C452.133 975.466 454.933 970.533 455.466 969.066C455.866 967.6 456.533 966.666 456.8 967.066C457.066 967.333 455.466 972.933 453.333 979.466ZM367.866 1140.8C371.333 1145.33 371.466 1150.67 368 1168.27C364.4 1187.2 352.933 1223.73 348.666 1230.27C346.533 1233.33 342.133 1234.4 340.666 1232C340.266 1231.33 341.2 1228.27 342.666 1225.33C350.4 1210.27 357.866 1184 359.466 1166.67C360.266 1158.67 360 1156.93 358 1154.67C354.933 1151.2 353.2 1151.33 348.666 1154.93L344.933 1157.87L345.866 1153.87C347.066 1148.67 350.666 1144 356 1140.27C361.733 1136.4 364.533 1136.53 367.866 1140.8ZM478.666 1152C477.866 1153.47 476.933 1154.67 476.533 1154.67C476.266 1154.67 476.533 1153.47 477.333 1152C478.133 1150.53 479.066 1149.33 479.466 1149.33C479.733 1149.33 479.466 1150.53 478.666 1152ZM343.733 1173.6C343.333 1178.53 341.066 1184.67 336.666 1193.6C332.533 1202 330 1208.93 329.6 1213.33C329.333 1216.93 328.533 1220 328.133 1220C327.6 1220 325.733 1215.2 324 1209.2C321.2 1199.2 321.066 1198.13 323.066 1194.13C325.733 1188.4 341.733 1166.67 343.2 1166.67C343.866 1166.67 344 1169.87 343.733 1173.6ZM413.466 1225.47C411.866 1235.33 405.6 1248.4 401.333 1250.67C397.733 1252.53 390 1252.27 384.666 1250.13C378.933 1247.73 378.8 1246.13 384.266 1243.87C389.866 1241.6 402.4 1229.2 408.8 1219.47C414.8 1210.4 415.6 1211.33 413.466 1225.47Z" fill="black"/>
<path d="M952.8 259.067C949.066 263.067 943.333 270 940 274.533C936.4 279.467 926.666 289.333 916 298.533C906.133 307.067 896.133 316 893.866 318.4C886.533 326.133 875.2 357.6 868.666 388.133C866.933 396.4 864.266 406.667 862.8 410.667C861.333 414.667 860.4 418.267 860.666 418.533C862.133 420 865.333 416.8 868.133 411.067C873.2 400.533 876.666 396.267 897.2 374.667C908 363.333 918.666 351.867 920.933 349.333C926.933 342.267 938.8 324 941.733 317.333C943.2 314 945.466 308.8 946.8 305.6C948.266 302.533 950 297.2 950.666 293.6C951.333 290.133 953.066 282.533 954.666 276.8C956.133 270.933 957.333 265.2 957.333 264C957.333 262.667 958.8 259.467 960.666 256.8C965.866 249.2 960.933 250.667 952.8 259.067ZM939.866 298.133C936.266 313.067 923.733 333.467 908.133 350C903.333 355.067 895.733 363.2 891.466 368L883.6 376.667L884.4 370C885.466 361.2 891.333 341.067 895.333 332.667C898.266 326.4 905.333 317.333 907.2 317.333C908.8 317.333 923.066 306.4 931.866 298.4C936.666 294.267 940.8 290.933 940.933 291.2C941.2 291.467 940.8 294.533 939.866 298.133Z" fill="black"/>
</svg>
