<svg width="1440" height="1267" viewBox="0 0 1440 1267" fill="none" xmlns="http://www.w3.org/2000/svg">
<ellipse cx="724.4" cy="638.167" rx="487" ry="486.5" fill="white"/>
<path d="M687.4 133.467C684.467 133.734 675.533 134.667 667.4 135.334C585.4 143.334 498.333 175.067 438.467 218.934C392.867 252.4 350.467 291.734 325.667 323.734C304.2 351.2 283 385.334 270.6 412C267.667 418.534 262.467 429.6 259.267 436.4C252.2 451.067 242.6 474 243.4 474C243.667 474 243 476.534 241.933 479.6C233.533 503.467 224.867 546.534 221.4 582C219.533 601.467 219.533 650 221.4 670C232.333 788.267 278.733 894.534 356.333 979.334C371.8 996.267 376.867 1001.07 393.533 1014.27C399.667 1019.2 409.533 1027.2 415.267 1031.87C421 1036.53 429.133 1042.13 433.267 1044.13C437.4 1046.27 447.667 1052.53 456.2 1058.27C516.6 1098.4 584.6 1122.4 665.4 1132.13C689.267 1135.07 747.4 1135.47 772.067 1132.93C840.067 1125.87 905.8 1105.87 953.4 1077.73C985.267 1058.8 989.267 1056.67 991.133 1056.67C992.2 1056.67 995.133 1055.07 997.8 1053.07C1000.47 1050.93 1008.73 1044.53 1016.33 1038.8C1081.13 989.067 1129.53 931.6 1165 862C1192.6 808 1209.93 749.067 1218.2 680.667C1220.87 658.4 1221.27 601.467 1218.87 579.334C1213.67 531.734 1204.47 494.667 1190.07 462.667C1188.07 458.267 1183.8 446.8 1180.47 437.334C1166.07 395.067 1131.53 340.8 1089.93 294.667C1076.2 279.467 1036.73 243.067 1030.47 239.867C1028.33 238.8 1016.73 230.4 1004.87 221.467C992.733 212.267 978.733 202.8 973 200.134C967.4 197.334 962.467 194.667 962.067 194C960.733 191.734 939.8 180.934 922.067 173.334C879.933 155.2 830.067 141.867 781.4 136C764.467 133.867 700.6 132.134 687.4 133.467ZM749.533 156.667C866.2 165.734 975.667 215.2 1056.2 295.334C1123.27 362 1169.27 450.134 1187.93 547.6C1193 574.267 1195 594.4 1195.67 628.267C1196.47 664 1195.27 683.2 1190.6 713.334C1168.6 853.734 1076.47 983.334 947.667 1055.33C890.067 1087.47 829.267 1106.13 762.467 1112.27C741.933 1114.27 684.867 1113.33 664.733 1110.8C566.333 1098.67 474.067 1058.8 403.533 998C366.6 966.134 335.533 929.467 310.6 888.534C235.667 764.934 217.667 614 262.067 482.4C293 391.067 353.133 309.734 435 248.534C479.8 215.067 533.267 188.4 585.8 173.2C636.6 158.534 695.933 152.534 749.533 156.667Z" fill="black"/>
<path d="M681.4 191.467C662.333 192.934 629.4 198.267 611.533 202.8C467.666 239.2 348.2 350.267 298.733 493.6C274.6 563.467 269.666 644 284.866 719.334C304.466 816.8 354.6 904.8 425 965.6C487.266 1019.47 555.4 1052.67 636.066 1068.53C671.266 1075.47 690.6 1077.07 733.266 1076.27C771.8 1075.6 781.4 1074.67 812.066 1068.53C869.133 1057.07 933.8 1027.73 981.933 991.334C1042.2 945.867 1087.53 891.467 1120.07 825.334C1142.73 779.334 1154.33 739.867 1161 686.934C1163.67 665.334 1163.93 614.4 1161.67 593.334C1149.67 488 1106.73 394.134 1038.2 323.6C948.467 231.334 814.066 181.6 681.4 191.467ZM756.2 210C810.333 215.334 859.4 229.2 907.4 252.534C955.8 276.134 988.733 299.734 1024.87 337.067C1086.6 400.667 1126.47 486.134 1139.53 582.667C1142.47 604.534 1142.87 658.534 1140.2 680C1126.6 792.534 1071.67 890.4 981.8 962.134C959 980.267 938.467 993.6 911.667 1007.33C869.533 1028.93 831.667 1040.93 780.066 1048.8C753.8 1052.93 694.066 1053.2 667.4 1049.47C553.4 1033.73 460.333 981.334 389.933 893.467C375.533 875.467 362.333 855.467 365.4 856.267C367.8 856.934 368.066 856.267 368.066 849.2C368.066 837.467 369 835.334 373.8 835.334C380.6 835.334 384.066 839.734 384.066 848.8C384.066 857.334 386.466 860.934 390.2 857.867C394.2 854.534 389.933 834.134 384.6 830.934C381.8 829.334 382.333 826 386.733 818.667C388.866 814.934 390.733 810.267 390.733 808.134V804.134L386.066 808.667C383.4 811.2 379.8 816.4 377.8 820.267C374.2 827.6 372.333 828.667 368.866 825.2C367.266 823.6 366.866 821.6 367.533 816.134C368.2 810.667 367.933 808.934 366.066 807.334C362.066 804 361.266 808.267 361.666 831.6C361.933 843.734 361.933 853.734 361.933 853.6C355.133 844.934 334.6 804.4 326.2 783.067C291.933 696 288.466 592.8 317 504C352.2 394.267 433.533 300.534 538.067 249.334C582.067 227.734 626.2 215.2 674.733 210.134C691 208.534 740.066 208.4 756.2 210Z" fill="black"/>
<path d="M652.867 230.001C644.067 240.001 640.867 249.067 640.867 264.667C640.867 278.801 642.201 282.934 651.801 297.867C660.867 311.734 660.867 319.067 652.067 327.067C645.667 332.801 645.267 336.801 650.067 347.067C656.601 360.934 656.201 368.934 648.734 372.001C643.667 374.134 641.934 377.867 644.067 381.867C645.801 385.334 649.534 387.334 653.934 387.334H657.401L653.534 392.667C651.401 395.601 648.867 401.067 648.067 404.801C645.934 413.601 647.001 428.001 650.067 434.001L652.601 438.667L654.467 433.601C655.534 430.934 656.734 428.667 657.267 428.667C657.667 428.667 660.067 434.001 662.601 440.401C669.667 458.667 683.001 486.001 684.734 486.001C686.601 486.001 696.067 476.001 696.067 474.001C696.067 470.134 699.401 473.734 703.134 481.601C706.867 489.734 707.401 492.001 707.401 502.934C707.401 510.401 707.934 515.334 708.734 515.334C711.401 515.334 723.667 506.134 731.534 498.267C735.934 493.734 741.801 486.267 744.601 481.467C747.401 476.534 749.934 472.667 750.067 472.667C750.201 472.667 753.134 476.001 756.467 480.134L762.601 487.467L765.801 482.401C772.467 471.734 783.667 447.067 789.134 430.667L790.467 426.667L793.001 432.534C795.001 437.067 795.801 437.867 796.867 436.534C799.801 432.934 801.401 425.467 801.401 416.134C801.401 408.401 800.734 405.067 797.534 398.534C795.401 394.001 793.001 389.867 792.201 389.467C789.267 387.601 790.867 386.001 795.401 386.001C799.934 386.001 806.734 383.601 806.734 382.001C806.734 381.601 804.601 379.067 801.934 376.534C795.534 370.401 793.401 366.001 793.401 358.667C793.401 353.601 794.067 351.734 797.267 348.534C799.534 346.401 801.534 343.467 802.067 342.134C803.134 338.801 800.067 332.267 793.934 324.667C789.667 319.334 789.134 318.134 789.667 312.667C790.067 308.267 791.934 304.134 795.934 298.134C803.934 286.401 806.734 279.334 807.667 268.934C808.867 254.267 803.534 238.401 794.067 228.267C792.201 226.267 790.201 224.667 789.667 224.667C789.134 224.667 788.734 230.267 788.601 237.067C788.467 251.734 785.267 260.267 777.934 264.667C767.001 271.467 759.801 270.534 750.734 261.201C741.401 251.734 736.067 249.334 723.401 249.334C710.467 249.334 704.334 252.134 696.867 261.201C691.134 268.267 685.267 270.534 677.801 268.401C665.001 264.934 659.534 255.067 659.401 235.601C659.401 228.934 659.267 223.334 659.134 223.334C659.134 223.334 656.201 226.401 652.867 230.001ZM800.601 263.334C800.467 276.534 797.267 286.667 790.334 294.534L786.067 299.601L781.134 290.934C778.334 286.267 776.067 281.601 776.067 280.667C776.067 279.734 778.467 276.267 781.534 273.067C787.801 266.267 792.734 255.867 794.201 246.534L795.134 240.001L797.934 246.001C799.934 250.534 800.601 254.667 800.601 263.334ZM655.401 250.801C657.134 260.001 659.401 264.801 665.934 272.534C671.401 279.067 671.801 282.667 668.201 289.867C664.334 297.467 661.934 298.934 658.734 296.001C653.267 291.067 647.934 277.601 647.134 267.067C646.334 256.267 649.534 241.334 652.467 242.401C653.267 242.667 654.601 246.401 655.401 250.801ZM731.267 257.067C733.934 260.801 734.067 262.134 733.667 295.067C733.401 313.867 732.601 329.867 731.934 330.534C730.067 332.534 717.934 332.134 715.401 330.001C713.534 328.401 713.267 324.267 713.667 293.201C714.067 260.801 714.201 258.134 716.601 255.467C720.467 251.334 727.534 252.134 731.267 257.067ZM705.801 330.134C704.334 331.467 667.934 327.601 665.934 325.867C663.801 324.134 666.867 312.134 672.734 300.001C678.601 287.867 687.534 277.067 697.801 269.201L706.067 263.067L706.467 296.134C706.601 314.267 706.334 329.601 705.801 330.134ZM752.067 270.134C761.534 278.001 770.467 289.467 776.067 301.201C779.934 309.467 784.601 324.667 783.534 325.734C781.934 327.201 771.134 328.801 757.134 329.601L741.401 330.401V296.934C741.401 276.667 741.934 263.334 742.601 263.334C743.401 263.334 747.667 266.401 752.067 270.134ZM794.067 335.467C795.401 339.467 793.934 343.734 790.601 345.734C785.667 348.801 743.401 350.534 699.667 349.334C663.267 348.401 659.801 348.134 656.734 345.734C653.001 342.801 652.334 337.867 655.401 335.334C657.667 333.467 665.267 333.734 692.734 336.801C710.334 338.667 760.467 337.467 777.401 334.801C793.134 332.267 793.134 332.267 794.067 335.467ZM785.534 362.134C786.334 366.801 787.801 372.001 788.867 373.601C791.401 377.601 791.267 378.001 787.134 378.001C778.334 378.134 778.334 382.534 786.867 399.601C791.801 409.467 793.534 416.667 790.867 416.667C789.134 416.667 780.067 405.601 771.534 392.801C763.667 380.934 763.001 379.334 765.934 379.334C771.667 379.334 779.134 368.401 780.734 357.601C782.067 349.334 783.801 351.067 785.534 362.134ZM671.134 369.601C673.534 374.134 679.401 379.334 682.201 379.334C683.267 379.334 684.067 379.734 684.067 380.267C683.934 384.001 659.934 416.401 657.134 416.534C654.467 416.801 656.467 408.001 660.867 399.734C669.401 383.867 669.401 378.001 661.267 378.001C657.801 378.001 657.267 377.601 658.067 375.601C658.601 374.401 660.601 368.667 662.601 362.934L666.067 352.667L667.534 358.934C668.334 362.534 669.934 367.201 671.134 369.601ZM679.401 358.001C685.001 366.934 695.534 368.401 703.801 361.334C710.467 355.734 713.001 357.334 707.934 363.867C699.534 374.534 683.267 373.467 676.067 361.734C673.267 357.067 672.601 352.667 674.734 352.667C675.401 352.667 677.534 355.067 679.401 358.001ZM775.267 355.601C771.401 368.534 761.401 374.934 750.067 372.134C745.401 370.934 736.067 362.267 736.067 359.201C736.067 355.601 739.934 356.001 744.067 360.001C751.801 367.334 760.467 366.401 767.534 357.467C771.934 351.867 776.867 350.801 775.267 355.601ZM698.734 355.201L702.067 356.134L698.334 358.534C693.267 361.867 682.734 359.601 682.734 355.201C682.734 353.867 693.801 353.867 698.734 355.201ZM761.534 358.134C757.934 361.067 754.067 361.334 749.401 358.667L746.067 356.934L749.401 356.134C753.534 355.201 763.134 354.534 764.067 355.067C764.467 355.334 763.267 356.667 761.534 358.134ZM728.067 359.334C729.534 360.801 730.734 362.534 730.734 363.201C730.734 363.734 732.467 366.534 734.601 369.201C740.067 376.001 737.534 382.001 728.201 384.667C724.201 385.734 722.467 385.467 717.534 382.934C708.334 378.401 708.067 377.201 715.134 366.267C718.601 360.934 722.201 356.667 723.401 356.667C724.467 356.667 726.601 357.867 728.067 359.334ZM708.601 384.801C715.001 389.201 720.067 396.534 720.067 401.334C720.067 405.467 719.801 405.734 714.067 406.667C705.801 407.867 699.134 413.734 697.267 421.467C696.467 424.801 695.267 427.734 694.601 428.001C691.134 430.267 682.601 406.534 683.667 398.001C684.867 389.734 692.467 382.001 699.401 382.001C702.467 382.001 706.201 383.201 708.601 384.801ZM757.934 387.867C765.667 395.734 765.934 406.267 758.601 419.201L754.467 426.401L750.867 419.201C748.067 413.467 746.201 411.334 741.401 408.934C738.201 407.334 733.534 406.001 731.134 406.001C727.134 406.001 726.734 405.601 726.734 402.001C726.734 399.467 728.201 396.401 731.001 393.201C740.867 382.001 750.201 380.267 757.934 387.867ZM678.334 411.601C679.267 414.801 682.467 421.467 685.667 426.667C691.267 435.867 691.401 436.134 691.401 448.001C691.267 460.401 688.867 472.001 686.734 470.667C686.067 470.267 684.601 466.801 683.401 463.067C682.334 459.467 678.734 452.134 675.401 446.934C670.201 438.801 669.401 436.534 669.401 430.401C669.401 423.734 674.201 406.001 675.934 406.001C676.467 406.001 677.534 408.534 678.334 411.601ZM775.401 411.601C780.601 424.134 779.001 436.001 770.201 451.334C767.001 456.801 763.534 463.734 762.601 466.667L761.001 472.001L759.001 467.334C757.934 464.801 756.734 457.734 756.334 451.734L755.801 440.801L763.534 424.134C767.934 414.934 771.934 407.334 772.467 407.334C773.001 407.334 774.334 409.334 775.401 411.601ZM736.601 415.867C745.267 419.467 748.867 435.867 744.867 453.201C741.134 468.934 725.534 495.334 720.067 495.334C717.401 495.334 717.401 495.201 719.534 490.267C724.734 478.801 726.601 471.467 726.734 463.867C726.867 443.201 718.734 442.134 715.401 462.401C714.867 465.467 713.934 467.334 713.001 466.934C712.067 466.667 709.267 462.401 706.734 457.334C702.601 449.334 702.067 447.067 702.067 438.134C702.067 425.201 705.267 418.134 712.067 415.734C718.467 413.601 731.267 413.601 736.601 415.867Z" fill="black"/>
<path d="M396.466 475.334C384.066 477.067 369.4 481.467 352.2 488.8C333.8 496.534 329 499.334 325.933 504C323.666 507.334 323.8 507.734 326.733 513.734C329.666 519.6 329.933 522.267 330.866 550C331.4 566.534 331.933 602 331.933 628.8C332.066 683.867 331.533 688.4 323.266 696.134L318.866 700.4L330.733 701.334C357.266 703.467 397 698.4 428.066 689.2C458.333 680.134 473.8 664.667 479.533 638C485.8 608.534 471.133 573.334 442.866 550.667C438.466 546.934 434.733 543.067 434.733 541.867C434.733 538.667 439.8 534.667 450.733 529.734C466.866 522.267 471.533 515.067 466.733 505.334C463.266 498.667 459.4 494.134 451.4 488C437.4 477.334 416.6 472.534 396.466 475.334ZM422.066 497.2C430.6 500.8 434.733 512.4 429.933 519.2C428.733 520.934 418.466 529.067 407.266 537.467C393 548.134 386.466 553.734 385.933 556.134C385.4 558 385.266 559.6 385.533 559.867C385.8 560 391.533 563.067 398.066 566.667C434.733 586.4 451.8 604.4 456.2 628C457.4 634.534 457.133 636.934 454.866 644.667C447.8 667.867 423.533 681.334 383.266 684.134C364.866 685.467 366.333 693.2 367.133 602.4C367.533 547.6 368.2 525.067 369.4 521.067C373.666 506.667 391 495.6 409.8 495.467C414.066 495.334 419.533 496.134 422.066 497.2Z" fill="black"/>
<path d="M564.866 528.534C559.266 531.334 550.733 536.534 545.8 540.134C535.4 547.467 516.733 565.601 511.4 573.734C509.4 576.801 507.266 578.934 506.733 578.667C506.066 578.267 505.266 574.267 504.733 569.601C503.666 559.201 506.466 544.934 511.666 535.201C513.666 531.201 515.533 527.601 515.8 526.934C516.066 526.401 509 526.001 500.2 526.001C491.266 526.001 484.066 526.267 484.066 526.667C484.066 526.934 485.8 530.001 487.933 533.334C494.066 542.934 495.266 553.201 494.466 588.001C493.266 636.267 496.066 661.067 505.266 684.001C509.666 695.067 519.133 710.401 524.066 714.667L527.133 717.334L526.2 711.467C525.666 708.267 522.733 699.334 519.533 691.467C512.6 674.801 510.733 665.867 510.733 649.334C510.733 614.401 530.333 582.667 561.666 566.534C566.6 564.001 572.066 562.001 573.933 562.001C580.733 562.001 580.733 561.734 580.333 625.867C580.066 660.001 579.4 687.067 578.6 689.601C577.8 691.867 575.133 695.334 572.6 697.334C570.2 699.201 568.066 701.334 568.066 702.134C568.066 703.467 600.466 703.867 601.8 702.534C602.333 702.001 601.133 699.867 599.4 697.734C593.266 690.534 593 687.201 592.466 627.601C591.8 564.134 592.2 559.467 599.4 551.467L603.933 546.534L600.6 540.534C594.2 529.467 586.6 523.334 578.866 523.334C576.733 523.334 570.333 525.734 564.866 528.534Z" fill="black"/>
<path d="M835.934 527.734C817.4 537.334 800.2 550.934 788.467 565.2C785 569.467 780.734 574.667 779 576.534L776.067 580L776.334 559.2C776.734 536.534 777.267 534.8 785.134 530.934C792.867 527.2 787.4 525.067 769.267 524.8C762.867 524.8 755.8 525.067 753.534 525.467L749.4 526.4L754.467 531.867C764.067 542.267 764.734 545.867 762.734 578.667C759.534 631.334 764.067 664.8 778.067 692.667C783.534 703.6 794.334 718.4 796.067 717.334C798.6 715.734 797.267 710.534 790.867 697.334C781.8 679.067 779.534 670 779.534 651.334C779.534 638.934 780.067 634.134 782.6 626C791 598.534 809.267 576.934 834.067 564.934C849 557.6 847.4 550.8 847.8 624C848.067 669.734 847.667 689.067 846.6 691.734C845.8 693.734 843.267 696.4 841.267 697.6C835.134 701.334 836.6 702.934 846.867 703.867C858.334 704.934 873.4 703.6 873.4 701.467C873.4 700.667 871.4 698.4 868.867 696.4C861.667 690.667 861.267 686.4 861.667 619.2C862.067 564.134 862.2 559.6 864.6 556.134C865.934 554 868.2 552 869.534 551.734C873.8 550.534 872.734 543.334 867.4 536.267C857.134 522.8 849.267 520.667 835.934 527.734Z" fill="black"/>
<path d="M626.467 525.734C620.734 526 616.067 526.534 616.067 527.2C616.067 527.734 617.534 529.6 619.4 531.334C621.267 533.067 623.267 536.667 624.067 539.2C625.934 546.134 625.8 678.534 623.934 687.6C622.867 692.4 621 696 618.067 698.934C614.734 702.267 614.2 703.334 615.8 704C619.534 705.467 646.067 706.4 655.134 705.467L664.067 704.4L660.867 700.534C654.867 693.467 654.334 689.067 653.8 646.667C653.4 610.267 653.534 606.267 655.667 602C658.6 596.267 663.534 595.067 673.4 597.6C684.2 600.267 693.134 605.734 702.867 615.334C725.134 637.2 730.2 668.667 716.067 696.667C713.8 701.2 709.934 707.067 707.4 709.867C702.067 715.734 701.8 716.667 705.134 716.667C712.734 716.667 729.534 700.267 736.867 685.734C750.867 658 747.534 628.134 728.067 603.6C721.267 595.2 706.734 584.534 697.267 581.2C689.934 578.534 687.8 576 689 571.6C689.4 570 700.734 559.067 714.2 547.2C727.667 535.467 738.734 525.467 738.734 525.067C738.734 524.267 686.6 526 685.134 526.8C684.734 527.067 686.334 529.334 688.867 531.867C691.534 534.534 693.4 537.734 693.4 539.6C693.4 548.8 672.067 570.8 659.267 574.534C655.4 575.734 654.6 573.334 653.8 559.067C653.134 548.4 653.267 546.8 656.6 540.134C658.734 535.867 661.934 531.734 664.334 530.134L668.6 527.467L665.4 526.8C660.867 525.867 638.867 525.2 626.467 525.734Z" fill="black"/>
<path d="M887.667 525.867L881.134 526.667L885.267 530.534C887.534 532.667 890.467 537.2 891.667 540.534C894.334 547.467 894.6 564.934 893 628C891.4 687.067 890.734 691.734 883.267 698.667C881.267 700.534 880.067 702.534 880.6 703.067C881.934 704.4 931.667 704.267 933 702.934C933.534 702.267 932.734 700.8 931.134 699.6C929.534 698.4 926.734 694.267 925.134 690.667C922.067 684.134 922.067 683.2 922.067 637.2C922.067 592.934 922.2 590.134 924.6 587.467C927 584.934 928.467 584.667 946.334 584.667C963.8 584.667 965.667 584.934 968.2 587.467C970.867 590.134 970.867 591.2 970.467 637.734C970.067 680.667 969.8 685.867 967.534 691.067C966.2 694.134 963.667 697.867 961.8 699.334L958.467 701.867L962.334 702.934C968.334 704.667 1005.67 704.134 1008.73 702.4C1010.2 701.467 1010.6 700.667 1009.8 700.667C1008.87 700.667 1006.73 698.134 1005.13 694.934C1002.47 689.867 1002.2 686.934 1001.67 666.667C1001.53 654.134 1001.8 620.534 1002.33 592C1003.4 540 1003.4 539.867 1006.87 533.067L1010.2 526.267L986.734 525.734C973.934 525.467 963.134 525.334 962.867 525.6C962.6 525.734 964.067 529.734 966.067 534.267C971.267 545.6 972.334 562.4 968.467 567.2C965.534 570.8 956.067 572.534 937.267 572.534C928.6 572.667 926.734 572.267 924.6 569.867C919.8 564.534 922.334 540.8 928.867 530.4C929.934 528.8 930.2 527.2 929.667 526.934C927.934 525.734 894.2 524.934 887.667 525.867Z" fill="black"/>
<path d="M1050.47 532.534C1028.2 533.067 1018.33 533.867 1017.27 534.934C1016.33 535.867 1015.8 536.8 1016.2 536.934C1016.47 537.2 1018.47 538.267 1020.73 539.334C1026.33 542.267 1030.33 548.8 1031.13 556.934C1031.67 560.8 1031.53 593.067 1030.87 628.667C1029.8 698.134 1029.67 699.2 1022.47 706.934L1019.8 709.734L1026.2 710.8C1032.6 711.734 1071.67 710.8 1072.87 709.6C1073.13 709.334 1071.67 707.2 1069.53 704.8C1067.4 702.534 1064.6 697.734 1063.4 694.267C1059.93 684.4 1058.6 655.334 1059 604.267C1059.4 560.934 1059.53 556.934 1061.93 552.267C1067.4 542 1082.73 539.2 1096.47 546C1099.67 547.6 1108.47 554.667 1116.07 561.734C1123.67 568.667 1130.2 573.734 1130.47 572.934C1131.27 570.267 1113.93 535.867 1110.6 533.6C1107.13 531.2 1109 531.2 1050.47 532.534Z" fill="black"/>
<path d="M458.734 741.067C456.2 742.001 453.934 743.734 453.667 744.934C453.267 747.201 467 747.334 728.6 747.334C904.2 747.334 1005.13 746.801 1007.27 746.001C1011.53 744.401 1011.67 742.667 1007.8 741.201C1006.07 740.534 883 739.867 734.067 739.734C525.934 739.467 462.334 739.867 458.734 741.067Z" fill="black"/>
<path d="M343.134 754.534L339.4 757.734L339.667 775.467C339.934 793.467 341 797.201 344.734 794.001C346.334 792.667 346.734 789.334 346.734 778.401C346.734 762.401 347.8 759.334 353.4 759.334H357.4V774.267C357.4 782.534 357.8 790.667 358.2 792.267C359.267 796.401 362.467 796.134 364.067 791.867C365.8 787.334 365.8 763.467 363.934 758.267C361.4 751.067 349.667 748.934 343.134 754.534Z" fill="black"/>
<path d="M377 754C372.467 757.6 370.733 766.267 370.733 785.867C370.733 800.8 372.333 810 374.867 810C376.2 810 378.733 801.334 378.733 796.4C378.733 793.067 379 792.934 383.267 793.6C389 794.534 392.467 792.534 395.267 786.667C398.2 780.534 398.333 765.067 395.533 759.467C391.267 751.334 383.4 749.067 377 754ZM389.8 770.4C391 781.734 389.267 787.334 384.333 787.334C379.933 787.334 378.733 784.4 378.733 773.867C378.733 762.534 380.6 758.8 385.933 759.6C388.333 760 388.867 761.2 389.8 770.4Z" fill="black"/>
<path d="M407.8 753.6C403.534 758.534 402.334 762.934 402.2 773.6C402.067 782.667 402.467 785.067 404.867 788.267C411 796.534 419 797.067 424.6 789.6C427.934 785.067 429.267 768.8 426.734 761.334C423.934 753.067 412.467 748.267 407.8 753.6ZM418.334 759.067C422.867 761.867 424.334 779.067 420.6 784.4C418.334 787.6 412.867 788.267 410.2 785.6C407.934 783.334 406.6 769.734 408.2 764.4C409.8 758.534 414.067 756.4 418.334 759.067Z" fill="black"/>
<path d="M434.2 752.267C433.8 752.8 433.4 759.6 433.4 767.6C433.4 783.2 434.734 788 440.334 791.867C443.4 794.134 450.334 794.667 452.867 792.934C456.334 790.667 457.4 785.467 457.4 771.067C457.4 760 456.867 755.067 455.534 753.2C454.467 751.867 453.267 751.067 452.734 751.467C452.334 752 451.667 759.734 451.4 768.667C451 777.6 450.467 785.467 450.067 786.134C448.734 788.267 444.6 787.467 441.934 784.534C439.8 782.134 439.4 779.467 439.267 768.8C439.267 761.734 439.134 755.334 439 754.534C438.734 752.667 435.4 751.2 434.2 752.267Z" fill="black"/>
<path d="M1022.73 760.534L1021.27 769.6L1017 768.8C1013.27 768 1012.73 767.334 1012.33 763.334C1011.8 755.734 1010.73 752.667 1008.87 752.667C1005.93 752.667 1005.4 755.867 1005.4 775.467C1005.4 791.067 1005.8 794.267 1007.4 794.934C1010.47 796 1010.73 795.334 1012.33 784.8C1013.4 777.467 1014.2 775.334 1015.93 775.334C1021.13 775.467 1024.33 781.6 1023.13 789.334C1022.33 793.867 1022.6 794.267 1025.53 793.734C1028.73 793.334 1028.73 793.2 1029.13 775.334C1029.53 755.734 1029 751.334 1026.2 751.334C1024.87 751.334 1023.8 754.267 1022.73 760.534Z" fill="black"/>
<path d="M1036.87 756.267C1035.53 765.067 1036.07 780.534 1037.93 785.067C1041.67 794.134 1053.4 797.2 1058.6 790.534C1061.13 787.334 1061.4 785.2 1061.4 770.667C1061.4 757.467 1061 754 1059.27 752.534C1057.53 751.2 1057 751.2 1055.93 752.8C1054.73 754.8 1054.07 764.134 1054.6 774.267C1055.27 785.067 1051.67 789.867 1046.6 785.2C1044.47 783.334 1044.07 780.934 1044.07 770.534C1044.07 763.734 1043.53 756.667 1042.73 754.8C1040.87 749.734 1037.93 750.534 1036.87 756.267Z" fill="black"/>
<path d="M1073.93 752.667C1067 755.467 1064.73 764.934 1068.87 773.067C1071 776.934 1070.87 777.734 1068.73 784C1064.73 795.867 1066.47 796.934 1074.07 787.6C1077.8 783.2 1081.67 779.6 1082.73 779.734C1084.07 779.867 1085 782.134 1085.4 786.667C1085.93 791.334 1086.73 793.467 1088.2 793.734C1091 794.267 1092.07 789.067 1092.07 776.134C1092.07 765.067 1090.33 758 1087 754.934C1083.93 752.134 1077.67 751.067 1073.93 752.667ZM1083.53 762.667C1085.4 765.467 1085.53 766.8 1084.33 769.334C1081.53 775.334 1073.4 771.734 1073.4 764.534C1073.4 758.534 1080.07 757.334 1083.53 762.667Z" fill="black"/>
<path d="M468.733 754.267C463.266 757.2 461.4 761.867 463.933 765.867C465 767.467 465.933 766.934 468.866 763.467C473.533 757.867 478.066 758.134 478.066 764C478.066 767.6 477.533 768.134 473.4 768.667C469.8 769.2 468.733 770 468.733 772C468.733 774 469.8 774.8 472.733 775.067C477.933 775.734 480.066 777.6 480.066 781.467C480.066 788 471.533 788.267 467 781.734C464.733 778.534 462.866 779.734 463.666 784C464.733 789.067 470.466 794 475.4 794C478.733 794 480.733 792.934 483.4 789.734C486.6 786 486.866 784.8 486.066 779.334C485.533 776 485.266 769.867 485.4 765.734C485.533 759.734 485 757.6 482.866 755.467C479.8 752.4 473.133 751.867 468.733 754.267Z" fill="black"/>
<path d="M497.8 754.667C493.133 757.867 491.666 764.934 492.6 777.734C493.933 793.467 494.6 794.4 503.666 793.734C509 793.2 511.8 792.267 514.2 789.867C517.4 786.667 517.4 786.267 516.6 772.667C515.8 760.667 515.266 758.4 512.6 755.734C509 752.134 502.066 751.6 497.8 754.667ZM507.933 761.2C510.066 763.867 507.533 768.667 504.066 768.667C500.6 768.667 498.066 763.867 500.2 761.2C501 760.134 502.733 759.334 504.066 759.334C505.4 759.334 507.133 760.134 507.933 761.2ZM509.533 778.134C511.666 782.134 509.133 787.334 505 787.334C496.2 787.334 496.866 775.467 505.666 775.334C507 775.334 508.6 776.667 509.533 778.134Z" fill="black"/>
<path d="M526.6 755.2C523.667 757.467 523.4 758.934 523 770.934C522.734 781.467 523.134 784.934 525 788.667C527.134 792.8 528.067 793.334 533.267 793.734C538.067 794.134 539.667 793.6 542.867 790.534C549.134 784.534 551.267 771.734 547.534 762.8C543.667 753.6 533.267 749.867 526.6 755.2ZM539.8 761.6C542.067 766 543 776.667 541.4 781.334C540.334 784.534 538.867 786.267 536.467 786.8C531.934 788 529.8 785.067 528.734 776.134C527.534 766.8 530.467 759.334 535.267 759.334C537.134 759.334 539.134 760.4 539.8 761.6Z" fill="black"/>
<path d="M560.067 755.334C556.067 759.334 554.734 763.734 554.734 773.067C554.734 779.067 553.8 783.334 551.4 788.401C547.534 796.801 547.267 799.067 550.2 800.267C551.534 800.801 553.4 799.734 555.134 797.467C560.6 790.801 575.134 791.734 576.867 798.801C577.8 802.534 579.534 802.934 581.267 799.601C582.067 798.134 581.667 794.267 579.934 788.001C578.6 782.801 577.534 773.867 577.534 767.867C577.4 759.201 576.867 756.667 575 754.934C571.534 751.734 563.4 752.001 560.067 755.334ZM571.8 771.867C572.2 784.934 571.267 787.334 565.267 787.334H561.4V776.267C561.4 766.801 561.8 764.667 564.2 762.134C565.667 760.534 567.934 759.334 569.134 759.601C571 760.001 571.534 762.134 571.8 771.867Z" fill="black"/>
<path d="M592.2 754.401C585.934 757.601 583.4 762.801 583.4 772.401C583.534 783.201 586.334 789.201 592.6 792.267C600.467 796.001 609.4 791.201 609.4 783.334C609.4 778.401 605.4 777.734 603.4 782.267C601.667 786.134 596.6 786.934 593.267 783.867C589.534 780.534 589.667 765.734 593.4 762.001C597 758.401 598.2 758.667 603 763.334C605.134 765.467 607.134 767.334 607.4 767.334C608.734 767.334 609.134 762.801 607.934 759.334C605.667 752.934 599.134 750.801 592.2 754.401Z" fill="black"/>
<path d="M613.667 753.601C609.933 754.267 610.467 756.801 614.733 758.934C619.533 761.334 620.067 763.201 619.267 776.001C618.467 788.534 619.8 795.334 623.267 795.334C625.8 795.334 626.733 789.334 626.733 773.201C626.733 762.667 627.133 759.334 628.467 759.334C630.6 759.334 635.667 755.734 634.733 754.934C633.667 753.867 617.133 752.801 613.667 753.601Z" fill="black"/>
<path d="M642.734 756.267C637.534 760.934 635.934 767.867 637 779.867C637.934 790.267 640.467 794 646.467 794C652.6 794 659.934 791.334 661.4 788.534C663 785.734 662.067 768.934 659.934 760.4C657.8 752 649.667 750 642.734 756.267ZM654.067 760.8C655.934 763.6 653.4 768.667 650.334 768.667C645.134 768.667 643.4 766.667 645.134 762.8C646.734 759.2 652.334 757.867 654.067 760.8ZM655.8 780.934C655.534 784.267 654.6 785.6 651.667 786.534C647.267 788.134 645.8 786.934 644.6 780.934L643.8 776.667H649.934C656.2 776.667 656.2 776.667 655.8 780.934Z" fill="black"/>
<path d="M675.266 754.134C670.333 756.667 668.066 762.4 668.066 772.534C668.066 788 671.933 794 681.933 794C687.533 794 692.066 789.067 692.066 782.934V778.8L688.2 782.534C683.8 786.8 675.8 787.067 675 783.067C674.6 780.667 675.133 780.267 685.133 776.667C689.8 774.8 693.4 769.467 693.4 764.134C693.4 756.534 682.466 750.534 675.266 754.134ZM684.6 761.867C686.466 763.867 686.6 765.067 685.533 767.2C683.933 770.134 678.466 772.134 676.2 770.667C674.066 769.467 674.466 763.867 676.866 761.467C679.666 758.667 681.8 758.8 684.6 761.867Z" fill="black"/>
<path d="M718.067 754.4C717.667 755.2 716.867 758.667 716.334 762C715.4 767.733 715.134 768 710.734 768C706.067 768 706.067 767.867 705.4 761.333C704.6 753.2 701 751.2 699.534 758.133C697.934 766.267 698.6 790.667 700.467 793.333C703.4 797.2 705.4 794.4 705.4 786.8C705.4 779.067 708.334 774.667 713 775.6C714.867 776 715.534 777.867 716.334 784.533C717.4 793.867 719 796.933 721.8 794.267C723.534 792.4 724.867 766.133 723.534 758.667C722.6 754.133 719.134 751.467 718.067 754.4Z" fill="black"/>
<path d="M766.067 756C764.2 757.733 762.734 760.8 762.734 762.667V766.133L767.667 762.667C773.667 758.667 775 758.533 778.067 762C780.067 764.133 780.067 764.933 778.734 766.667C777.8 767.733 775.934 768.667 774.467 768.667C763.4 768.667 757 783.467 764.867 790.667C768.867 794.4 776.467 795.067 780.334 792.133C788.867 785.733 788.734 758.667 780.334 754.133C775.667 751.6 769.534 752.4 766.067 756ZM777.534 776.667C778.867 777.467 780.067 779.067 780.067 780.267C780.067 782.933 776.334 787.333 773.934 787.333C771.667 787.333 768.067 783.6 768.067 781.333C768.067 779.2 771.667 775.333 773.534 775.333C774.334 775.333 776.067 776 777.534 776.667Z" fill="black"/>
<path d="M794.733 756C791.933 758.934 791.8 760 792.733 766.267C794.467 777.2 794.067 785.467 791.667 789.2C788.867 793.467 788.867 794 791.8 794C794.733 794 798.867 789.734 801.933 783.6C805.267 777.067 808.6 778.4 809.533 786.4C810.2 792.4 812.6 796 815 794.534C817 793.2 816.2 763.467 814.067 759.334C810.2 751.867 800.2 750.134 794.733 756ZM806.867 760.667C809.667 762.267 810.467 770.534 807.933 772C805.4 773.734 799.933 771.334 798.733 767.867C796.2 761.467 800.733 757.467 806.867 760.667Z" fill="black"/>
<path d="M859.533 756.001C857.4 758.134 854.2 762.267 852.467 764.934C848.333 771.067 846.2 770.134 847.133 762.667C847.933 757.067 846.6 754.001 843.133 754.001C840.467 754.001 840.6 791.734 843.4 794.001C846.333 796.401 848.067 794.401 848.067 788.801C848.067 780.934 849.533 775.334 851.533 775.334C855.4 775.334 858.733 780.534 858.733 786.534C858.733 792.401 861.267 796.401 864.067 794.667C866.333 793.334 865.533 781.734 862.733 775.467C859.533 768.534 859.4 767.067 862.2 761.867C863.267 759.601 864.067 756.534 863.8 754.934C863.4 752.134 863.267 752.134 859.533 756.001Z" fill="black"/>
<path d="M874.734 756.401C869.667 761.601 867.667 769.067 869.4 777.867C871 786.267 872.334 788.934 876.867 792.534C881.667 796.267 886.867 796.134 890.867 791.867C893.667 788.934 894.067 787.067 894.467 774.801C895 761.601 894.867 761.067 891.4 756.934C886.6 751.201 880.2 751.067 874.734 756.401ZM886.067 761.201C887.934 762.534 888.734 765.067 889 771.467C889.667 782.267 887.534 786.667 882.067 786.667H878.067L877.667 774.801C877.4 768.267 877.534 762.134 877.934 761.067C878.867 758.801 882.867 758.801 886.067 761.201Z" fill="black"/>
<path d="M948.067 753.467C943.534 755.334 942.734 758.401 942.867 774.534C942.867 791.334 943.667 795.867 946.2 794.267C949.8 792.001 950.734 787.334 949.934 776.267C949.134 766.001 949.267 764.801 951.934 762.134C953.4 760.667 955.8 759.334 957.267 759.334C959.534 759.334 959.8 760.801 960.334 776.001C961 793.867 962.6 798.267 966.2 793.467C968.734 789.867 968.867 759.601 966.2 756.001C964.467 753.467 952.334 751.867 948.067 753.467Z" fill="black"/>
<path d="M978.467 754.667C975.533 756.267 974.733 757.734 974.733 761.334C974.733 763.867 975.133 766 975.533 766C975.933 766 978.067 764.534 980.333 762.667C984.867 758.8 987 758.534 990.067 761.467C993.133 764.667 992.067 767.6 987.4 768.134C975.533 769.334 969.133 781.867 976.6 789.334C985.933 798.667 997.267 793.334 999.533 778.534C1002.07 761.067 990.467 747.867 978.467 754.667ZM990.867 778.8C993 784.8 986.067 790.134 981.667 785.734C979.4 783.467 979.667 779.867 982.2 777.467C985.4 774.267 989.267 774.8 990.867 778.8Z" fill="black"/>
<path d="M731.667 754.8C730.333 756.267 730.6 793.734 731.933 794.667C734.733 796.267 737.4 791.067 737.4 783.867C737.4 777.334 737.667 776.667 740.867 775.867C745.933 774.534 748.6 778 749.4 787.067C749.933 792.934 750.6 794.8 752.467 795.067C754.6 795.467 754.733 794.134 754.467 775.067C754.067 755.734 753.933 754.667 751.4 754.667C749.267 754.667 748.867 755.467 749.133 758.934C749.667 764 745.4 769.067 741 768.4C738.6 768.134 737.933 766.934 737.4 761.334C737 756.8 736.067 754.534 734.733 754.267C733.533 754.134 732.2 754.267 731.667 754.8Z" fill="black"/>
<path d="M902.2 765.6C901 780.667 901.267 793.734 902.733 794.667C906.333 796.934 907.933 792.267 908.333 779.6L908.733 766.667L911.667 771.334C917.8 781.2 919.933 781.6 924.2 774C925.933 771.067 927.667 768.667 928.333 768.667C928.867 768.667 929.4 774 929.4 780.534C929.4 788.8 929.933 792.8 931.133 793.867C932.2 794.667 933.4 794.934 933.8 794.4C934.333 794 934.733 784.934 934.733 774.4C934.733 756.934 934.6 755.334 932.333 755.334C929.133 755.334 923.133 761.6 921.267 767.067C919.533 772.267 918.333 771.734 914.067 763.467C911 757.334 908.733 755.334 904.867 755.334C903.667 755.334 902.867 758.667 902.2 765.6Z" fill="black"/>
<path d="M794.734 808.133C793.934 810 793.4 818.533 793.4 827.067C793.4 839.333 793.934 843.867 795.934 848.133C802.734 863.2 820.6 863.2 823.4 848.267C825 840 823.667 809.067 821.667 807.067C820.2 805.6 819.534 805.733 817.934 807.867C816.467 809.867 816.067 815.067 816.067 829.333C816.067 849.6 815.534 851.333 809.134 851.333C803.134 851.333 801.8 847.467 801 828C800.2 810.267 799.4 804.667 797.267 804.667C796.6 804.667 795.4 806.267 794.734 808.133Z" fill="black"/>
<path d="M406.733 806.934C402.733 808.534 398.733 813.201 397.933 817.467C396.6 824.801 398.6 825.467 404.067 819.467C409.533 813.601 412.467 812.801 417.133 816.134C419.133 817.601 420.067 819.467 420.067 822.801V827.334H413.533C398.333 827.334 391.133 843.867 401.667 854.934C407.933 861.601 420.467 859.467 425 851.067C427.533 846.267 428.333 829.601 426.333 820.667C424.867 813.601 419 807.334 413.4 806.667C410.867 806.401 407.8 806.401 406.733 806.934ZM417.533 835.334C419.267 836.267 420.067 838.134 420.067 841.201C420.067 847.067 416.333 851.601 411.4 851.601C403.8 851.601 401.267 841.734 407.533 836.801C411.533 833.734 413.667 833.334 417.533 835.334Z" fill="black"/>
<path d="M456.733 807.6C456.467 808.534 455.667 814.667 455.133 821.334C454.2 832.534 453.8 833.334 451 833.734C443.533 834.8 437.4 826 437.4 814C437.4 808.267 437 807.334 434.733 807.334C432.467 807.334 432.067 808.267 431.933 812.934C431.8 816.134 431.933 820.134 431.933 822C432.733 832.934 439.4 840.667 448.067 840.667C450.867 840.667 453.533 841.2 453.933 841.867C454.467 842.534 455.133 846.8 455.667 851.334C456.333 858.667 456.733 859.467 459.267 859.067C461.933 858.667 462.067 857.867 462.467 836.934C462.6 825.067 462.333 813.334 461.667 811.067C460.6 806.534 457.8 804.667 456.733 807.6Z" fill="black"/>
<path d="M480.6 807.2C476.867 808.8 472.6 814.4 470.6 820.267C468.467 826.667 469.8 845.6 472.6 851.2C479.4 864.134 500.067 859.6 500.067 845.2C500.067 839.334 496.867 839.2 493.934 844.934C491.267 850.267 489.8 851.334 485.267 851.334C480.6 851.334 477.134 847.2 477.667 842.4C478.067 839.067 478.734 838.534 484.067 838C491.8 837.067 495.534 834.8 498.734 829.6C502.867 822.8 501.534 815.467 495 809.6C491.934 806.8 484.467 805.6 480.6 807.2ZM490.467 816.134C494.067 818.667 494.334 824.667 491.134 827.6C481.8 835.734 472.6 827.067 480.2 817.467C483.267 813.467 486.2 813.067 490.467 816.134Z" fill="black"/>
<path d="M516.466 808C509.666 810.934 508.066 815.734 508.066 832.667C508.066 843.467 508.6 848.534 510.2 851.467C512.733 856.534 520.2 859.867 526.2 858.667C532.066 857.6 538.733 850.934 538.733 846C538.733 842 534.733 837.334 533.8 840.267C531.933 845.6 527 850.667 523.266 851.067C517.133 851.6 515.933 849.067 515.133 834.4C514.466 822.4 514.6 821.067 517.4 817.6C521.533 812.4 525.666 812.934 530.733 819.334C535.8 825.867 537.4 826 537.4 820.267C537.4 815.067 534.6 810.667 529.4 808C524.733 805.6 522.066 805.6 516.466 808Z" fill="black"/>
<path d="M586.067 806.934C584.6 807.334 582.333 808.534 580.867 809.867C575.667 814.401 574.733 818.667 574.733 836.001C574.733 852.001 574.867 852.934 578.067 856.001C585.4 863.334 601.8 857.734 605.4 846.534C606.6 842.934 606.467 841.201 604.2 836.401C601.933 831.467 601.8 829.867 603.133 825.067C605.133 817.467 602.067 810.667 595.4 807.867C590.6 805.867 590.467 805.867 586.067 806.934ZM593.933 816.134C597.133 819.334 596.6 824.267 592.733 826.801C589.667 828.801 589.133 828.801 586.067 826.801C582.733 824.667 582.2 823.201 582.733 819.334C583.4 814.001 590.067 812.134 593.933 816.134ZM595.267 836.801C599.8 840.267 599.8 845.067 595.267 848.534C587 855.067 579.4 849.201 582.2 838.401C583.533 833.601 590.067 832.801 595.267 836.801Z" fill="black"/>
<path d="M624.467 806.934C619.667 807.867 613.667 815.867 612.601 822.8C611.401 831.334 612.601 844.667 615.267 850.134C619.267 858.534 628.467 861.6 636.067 857.067C640.601 854.4 642.734 850.134 642.734 843.6L642.601 838.667L637.267 844.934C633.134 849.734 630.867 851.334 628.201 851.334C623.401 851.334 619.801 847.334 620.334 842.4C620.734 838.934 621.267 838.667 627.801 838C636.601 837.067 642.601 831.734 643.534 823.867C644.734 813.334 635.267 804.934 624.467 806.934ZM633.134 816.134C635.401 817.734 636.067 819.334 635.801 822.4C635.534 825.867 634.334 827.2 630.201 829.2C623.667 832.4 620.867 830.934 620.334 824.267C619.667 815.867 626.601 811.467 633.134 816.134Z" fill="black"/>
<path d="M653 806.934C652.466 807.334 652.066 818.667 652.066 832C652.066 852.267 652.466 856.667 654.066 858C657.4 860.667 658.466 858.267 659.666 846C660.733 835.067 660.866 834.667 664.2 834.267C666.466 834 669.133 835.067 671.4 837.067C674.866 840 675.133 840.934 675 849.067C674.866 857.067 675.133 858 677.4 858C681.8 858 682.733 853.6 682.733 834.4C682.733 816.4 681.266 806 678.6 806C676.466 806 674.733 812.4 674.733 820.134V827.334H667.4H660.066V821.6C660.066 810.8 656.466 803.334 653 806.934Z" fill="black"/>
<path d="M692.866 808C692.466 809.2 692.066 820.934 692.066 834.134C692.066 854.667 692.333 858.134 694.2 858.934C697.666 860.267 698.866 857.467 699.666 846.534C700.066 840.667 701.133 835.6 701.933 835.067C704.733 833.2 708.2 834 711.4 837.334C714.2 840.134 714.733 841.734 714.733 849.067C714.733 855.334 715.266 857.867 716.6 858.4C719.533 859.6 721.933 855.734 721.933 849.6C722.066 830.4 721.133 809.067 720.066 807.334C717.8 803.6 715.533 808.267 715 818L714.466 827.334H707.266H700.066L699.933 820.934C699.8 817.467 699.4 812.934 698.866 810.667C697.933 806.267 694.2 804.667 692.866 808Z" fill="black"/>
<path d="M739 807.334C734.467 809.2 730.6 819.334 729.8 831.334C728.867 843.867 730.6 849.867 736.867 855.334C742.067 859.867 747.267 860.534 753.267 857.334C763.534 852.134 766.734 825.334 758.6 813.867C753.934 807.334 745.8 804.667 739 807.334ZM751.267 816.534C754.2 819.734 756.2 834.8 754.734 841.334C752.734 850.134 746.334 854.267 741.4 850.267C738.2 847.6 735.534 833.467 736.734 825.734C738.467 815.734 746.067 810.8 751.267 816.534Z" fill="black"/>
<path d="M864.466 807.867C856.866 811.334 855.4 815.201 854.866 834.267C854.333 854.801 855.4 857.334 864.6 858.667C880.333 861.067 892.866 844.934 883.933 833.601C881.8 830.801 881.533 829.467 882.6 827.467C885.266 822.534 884.333 815.601 880.466 811.334C876.066 806.534 870.333 805.334 864.466 807.867ZM875.533 817.334C877.533 820.401 877.533 820.934 875.533 824.134C873.666 826.934 872.333 827.467 868.333 827.067C864.066 826.667 863.4 826.134 863 822.934C862.066 814.934 871.266 810.934 875.533 817.334ZM877.133 836.934C879.666 839.467 879 845.734 876.066 848.667C869.266 855.467 859.133 848.001 862.6 838.801C863.8 835.734 864.733 835.334 869.8 835.334C873 835.334 876.2 836.001 877.133 836.934Z" fill="black"/>
<path d="M930.067 806.934C919.933 809.467 913.933 820.801 915.133 834.667C916.733 851.067 922.867 859.334 933.533 859.334C939.933 859.334 946.733 851.867 946.733 844.801C946.733 841.734 946.2 839.334 945.667 839.334C944.067 839.334 940.067 843.867 940.067 845.601C940.067 847.867 935.4 851.334 932.333 851.334C925.267 851.334 921.667 841.734 923.4 827.201C925.267 811.734 934.733 809.467 942.467 822.667C943.8 824.934 944.2 825.067 945.4 823.334C946.2 822.267 946.467 819.467 946.067 817.334C944.733 810.134 937.133 805.201 930.067 806.934Z" fill="black"/>
<path d="M963.133 807.601C961.4 808.401 958.867 811.601 957.4 814.667C954.867 819.867 954.733 822.401 955 848.801C955.4 876.267 955.533 877.334 958.067 877.334C960.467 877.334 960.867 876.267 961.4 867.334C961.8 861.867 962.467 857.467 963.133 857.601C969.533 859.334 973.533 859.334 977.267 857.467C982.867 854.534 985 849.867 986.067 837.867C987.133 825.734 984.6 814.934 979.533 810.134C975.8 806.667 967.533 805.334 963.133 807.601ZM976.067 816.667C978.333 818.934 978.733 821.067 978.733 831.601C978.733 845.334 977 850.401 972.333 851.067C964.467 852.267 959 842.134 960.6 829.601C961.8 821.334 963.667 817.334 967.267 815.601C971.4 813.467 973.133 813.734 976.067 816.667Z" fill="black"/>
<path d="M1001 808.667C994.467 813.734 992.867 818.667 992.733 832.667C992.733 843.734 993.133 846.001 995.8 850.401C1001.67 859.601 1012.73 862.267 1019.13 855.867C1023.53 851.467 1027.4 835.201 1026.2 826.267C1024.2 811.067 1010.33 801.334 1001 808.667ZM1015.27 818.401C1018.6 822.801 1019.8 836.801 1017.4 843.867C1013.8 854.801 1004.2 855.067 1001.27 844.401C999.267 836.934 1000.33 821.734 1003.27 817.334C1006.2 812.801 1011.4 813.334 1015.27 818.401Z" fill="black"/>
<path d="M1034.73 808.534C1033.93 810.134 1033.4 821.067 1033.4 834.667V858.134L1037.13 857.734C1040.73 857.334 1040.73 857.201 1040.73 848.001C1040.73 837.601 1041.67 835.334 1045.53 835.334C1052.73 835.334 1057.4 842.534 1057.4 853.334C1057.4 859.734 1058.6 860.667 1062.07 857.067C1065 854.134 1063.8 842.001 1060.07 836.001C1054.07 826.667 1054.07 826.934 1059.27 818.134C1064.73 808.667 1065 807.334 1061.67 807.334C1058.6 807.334 1054.47 811.734 1050.87 818.934C1049.4 822.001 1046.73 825.467 1045.13 826.667L1042.07 828.667L1041.13 820.134C1039.8 806.267 1037.8 802.801 1034.73 808.534Z" fill="black"/>
<path d="M539.533 808.534C538.466 810.134 542.733 813.734 547.8 815.467L552.066 816.934V837.467C552.066 854.934 552.333 858.267 554.2 858.934C558.466 860.534 559.4 856.934 559.933 835.867L560.333 815.334L563.933 814.534C570.466 812.934 572.466 811.334 570.6 809.201C569.4 807.867 565.533 807.334 554.6 807.334C546.733 807.334 539.933 807.867 539.533 808.534Z" fill="black"/>
<path d="M504.734 898.134C512.334 906.534 527.267 912 549.934 914.8C569.534 917.067 583.8 917.2 610.2 915.2C644.867 912.667 657.8 916.667 677.4 936.4C687.534 946.534 692.2 952.8 706.467 975.334C708.334 978.4 708.6 978.4 709.4 976C711.8 969.067 701.267 947.6 686.334 929.067C676.867 917.334 668.467 910.4 657 904.8C640.6 896.8 636.467 896.4 566.067 895.734L502.2 895.2L504.734 898.134Z" fill="black"/>
<path d="M839.4 896.667C803.933 900.267 780.733 917.867 761.267 956.134C755.267 968.134 752.733 978 755.933 978C756.6 978 761.267 971.334 766.2 963.067C777.933 944.134 794.067 927.2 806.733 920.934C819.133 914.8 831.133 913.2 849.8 915.2C898.333 920 946.733 912.8 960.067 898.667L963.133 895.334L905.933 895.467C874.467 895.6 844.6 896.134 839.4 896.667Z" fill="black"/>
<path d="M545.666 924.534C543.133 926.134 551.666 932.267 561.133 935.6C569.933 938.8 585.533 939.334 618.2 937.467C640.466 936.134 648.466 937.067 662.6 942.534C677.933 948.667 673.4 940.667 656.733 932.134C640.6 924.134 635.133 923.334 588.733 923.334C566.066 923.334 546.6 923.867 545.666 924.534Z" fill="black"/>
<path d="M830.066 924.267C818.066 926.801 808.733 930.667 801.533 936.001C788.466 945.601 790.999 947.067 809.399 940.667C822.466 936.134 832.999 935.601 864.199 938.134C878.066 939.334 884.599 939.201 891.933 938.001C901.399 936.401 917.533 929.467 918.333 926.534C918.599 925.601 915.666 924.667 910.599 924.134C901.666 923.201 834.333 923.334 830.066 924.267Z" fill="black"/>
<path d="M609.667 944.667C604.333 945.2 599.533 946 599.133 946.4C598.067 947.6 613.933 955.2 622.333 957.467C627.8 959.067 636.867 959.734 653.4 959.867C666.2 960.134 679.8 960.667 683.4 961.2L690.067 962.134L686.733 959.467C673.267 948.267 637.667 941.467 609.667 944.667Z" fill="black"/>
<path d="M816.467 945.201C798.2 948.667 772.2 959.067 774.067 962.001C775.4 964.001 782.467 963.601 787.134 961.201C790.6 959.334 794.067 959.067 807.534 959.734C831.667 960.801 847 958.001 859.267 950.401L864.6 946.934L861.4 945.601C855.8 943.467 827 943.201 816.467 945.201Z" fill="black"/>
<path d="M643.533 968.4C639.133 969.467 639.8 970.4 648.066 974.8C652.066 976.934 656.466 977.334 678.066 977.734C701.666 978 703.266 977.867 700.733 975.867C693.4 969.867 686.866 968.4 666.866 967.867C656.2 967.6 645.666 967.867 643.533 968.4Z" fill="black"/>
<path d="M781.266 969.467C767.533 971.867 764.066 973.334 764.066 976.667C764.066 979.2 764.733 979.2 783.133 978.534C805.533 977.6 813.8 976.267 820.066 972.4L824.733 969.467L821.4 968.534C815.8 966.934 792.066 967.467 781.266 969.467Z" fill="black"/>
</svg>
