<svg width="526" height="526" viewBox="0 0 526 526" fill="none" xmlns="http://www.w3.org/2000/svg">
<g clip-path="url(#clip0_103079_291)">
<path d="M121.065 201.438V119.594" stroke="url(#paint0_linear_103079_291)" stroke-width="2" stroke-linecap="round" stroke-linejoin="round"/>
<path d="M121.065 119.593L137.077 103.062" stroke="#CD2C2C" stroke-width="2" stroke-linecap="round" stroke-linejoin="round"/>
<path d="M404.934 296.498V119.594" stroke="url(#paint1_linear_103079_291)" stroke-width="2" stroke-linecap="round" stroke-linejoin="round"/>
<path d="M404.936 119.593L388.924 103.062" stroke="#CD2C2C" stroke-width="2" stroke-linecap="round" stroke-linejoin="round"/>
<path d="M388.923 103.062H279.076V110.308C279.076 110.945 279.416 111.519 279.97 111.838L288.87 116.916C288.87 116.916 296.493 121.271 290.51 124.968C289.254 125.755 287.784 126.137 286.315 126.286C283.356 126.583 277.202 127.73 275.307 132.32C272.773 138.46 271.049 142.858 263.234 143.347H262.808C254.994 142.88 253.269 138.46 250.736 132.32C248.841 127.709 242.687 126.562 239.727 126.286C238.258 126.137 236.789 125.755 235.533 124.968C229.55 121.25 237.172 116.916 237.172 116.916L246.073 111.838C246.626 111.519 246.967 110.945 246.967 110.308V103.062H137.077" stroke="#CD2C2C" stroke-width="2" stroke-linecap="round" stroke-linejoin="round"/>
<path d="M180.066 205.135C204.761 205.135 224.78 185.158 224.78 160.516C224.78 135.873 204.761 115.896 180.066 115.896C155.371 115.896 135.352 135.873 135.352 160.516C135.352 185.158 155.371 205.135 180.066 205.135Z" stroke="#CD2C2C" stroke-width="2" stroke-linecap="round" stroke-linejoin="round"/>
<path d="M344.21 205.135C368.905 205.135 388.925 185.158 388.925 160.516C388.925 135.873 368.905 115.896 344.21 115.896C319.515 115.896 299.496 135.873 299.496 160.516C299.496 185.158 319.515 205.135 344.21 205.135Z" stroke="#CD2C2C" stroke-width="2" stroke-linecap="round" stroke-linejoin="round"/>
<path d="M374.593 225.213C370.206 233.138 365.905 241.106 361.391 248.967C354.046 261.822 346.529 274.591 339.12 287.403C329.474 304.082 319.85 320.762 310.247 337.441C302.113 351.57 294.043 365.742 285.931 379.892C280.885 388.668 275.838 397.443 270.686 406.154C270.238 406.898 270.324 407.514 270.238 408.215" stroke="#CD2C2C" stroke-width="2" stroke-linecap="round" stroke-linejoin="round"/>
<path d="M375.616 237.408C356.197 271.106 336.757 304.783 317.36 338.502C302.455 364.424 287.636 390.388 272.752 416.331C272.326 417.053 271.751 417.691 271.24 418.349" stroke="#CD2C2C" stroke-width="2" stroke-linecap="round" stroke-linejoin="round"/>
<path d="M375.616 252.578C352.493 292.672 329.348 332.786 306.224 372.88C294.556 393.086 282.93 413.313 271.262 433.54" stroke="#CD2C2C" stroke-width="2" stroke-linecap="round" stroke-linejoin="round"/>
<path d="M365.991 225.723C352.15 249.817 338.31 273.933 324.449 298.006C312.994 317.893 301.389 337.717 290.04 357.668C283.376 369.417 275.924 380.742 270.238 393.023" stroke="#CD2C2C" stroke-width="2" stroke-linecap="round" stroke-linejoin="round"/>
<path d="M357.369 225.213C348.086 241.722 338.909 258.295 329.476 274.74C319.469 292.163 309.206 309.437 299.134 326.838C289.787 342.986 280.546 359.176 271.284 375.367C270.837 376.153 270.603 377.045 270.262 377.895" stroke="#CD2C2C" stroke-width="2" stroke-linecap="round" stroke-linejoin="round"/>
<path d="M375.615 267.75C355.175 303.127 334.734 338.503 314.336 373.901C308.715 383.653 303.179 393.448 297.621 403.222" stroke="#CD2C2C" stroke-width="2" stroke-linecap="round" stroke-linejoin="round"/>
<path d="M348.766 225.723C338.29 244.08 327.942 262.523 317.339 280.795C302.242 306.802 286.976 332.702 271.794 358.666C271.454 359.24 271.432 360.005 271.262 360.685" stroke="#CD2C2C" stroke-width="2" stroke-linecap="round" stroke-linejoin="round"/>
<path d="M340.163 225.213C329.517 243.91 318.913 262.629 308.246 281.327C297.152 300.725 285.974 320.082 274.817 339.459C273.901 341.031 272.794 342.497 271.793 344.006" stroke="#CD2C2C" stroke-width="2" stroke-linecap="round" stroke-linejoin="round"/>
<path d="M336.097 396.146C332.37 402.882 328.729 409.638 324.939 416.331C318.977 426.849 312.952 437.302 306.905 447.777C303.328 453.981 299.686 460.143 296.088 466.305" stroke="#CD2C2C" stroke-width="2" stroke-linecap="round" stroke-linejoin="round"/>
<path d="M330.54 226.232C326.984 232.798 323.599 239.469 319.873 245.929C305.585 270.745 291.192 295.477 276.841 320.251C274.924 323.587 273.114 326.987 271.262 330.365" stroke="#CD2C2C" stroke-width="2" stroke-linecap="round" stroke-linejoin="round"/>
<path d="M328.004 364.807C314.675 388.051 301.325 411.317 287.996 434.561C282.396 444.314 276.839 454.109 271.281 463.882" stroke="#CD2C2C" stroke-width="2" stroke-linecap="round" stroke-linejoin="round"/>
<path d="M328.005 379.955C320.744 392.767 313.547 405.6 306.202 418.37C296.301 435.601 286.293 452.748 276.328 469.937" stroke="#CD2C2C" stroke-width="2" stroke-linecap="round" stroke-linejoin="round"/>
<path d="M204.403 238.365C221.287 268.026 238.172 297.666 255.057 327.327" stroke="#CD2C2C" stroke-width="2" stroke-linecap="round" stroke-linejoin="round"/>
<path d="M322.428 226.742C312.633 243.591 302.817 260.419 293.044 277.289C285.741 289.91 278.523 302.552 271.262 315.194" stroke="#CD2C2C" stroke-width="2" stroke-linecap="round" stroke-linejoin="round"/>
<path d="M183.11 231.289C197.29 256.403 211.471 281.496 225.694 306.589C226.078 307.269 226.589 308.31 227.078 309.075" stroke="#CD2C2C" stroke-width="2" stroke-linecap="round" stroke-linejoin="round"/>
<path d="M313.314 226.742C299.304 251.176 285.294 275.611 271.262 300.045" stroke="#CD2C2C" stroke-width="2" stroke-linecap="round" stroke-linejoin="round"/>
<path d="M171.975 227.23C185.815 251.495 199.676 275.759 213.516 300.023" stroke="#CD2C2C" stroke-width="2" stroke-linecap="round" stroke-linejoin="round"/>
<path d="M206.426 227.23C219.265 249.816 232.083 272.381 244.923 294.967" stroke="#CD2C2C" stroke-width="2" stroke-linecap="round" stroke-linejoin="round"/>
<path d="M217.563 231.289C229.38 252.175 241.197 273.082 253.015 293.968" stroke="#CD2C2C" stroke-width="2" stroke-linecap="round" stroke-linejoin="round"/>
<path d="M304.691 226.232C299.389 237.621 292.341 248.032 286.379 259.059C281.631 267.834 276.308 276.291 271.24 284.875" stroke="#CD2C2C" stroke-width="2" stroke-linecap="round" stroke-linejoin="round"/>
<path d="M375.616 282.898C365.14 301.086 354.685 319.295 344.209 337.482" stroke="#CD2C2C" stroke-width="2" stroke-linecap="round" stroke-linejoin="round"/>
<path d="M212.494 267.686C222.63 285.554 232.765 303.402 242.879 321.271" stroke="#CD2C2C" stroke-width="2" stroke-linecap="round" stroke-linejoin="round"/>
<path d="M163.863 227.23C171.295 240.531 178.726 253.853 186.157 267.175C187.179 269.024 188.179 270.872 189.201 272.742" stroke="#CD2C2C" stroke-width="2" stroke-linecap="round" stroke-linejoin="round"/>
<path d="M373.592 301.107C365.139 315.938 356.707 330.769 348.254 345.599" stroke="#CD2C2C" stroke-width="2" stroke-linecap="round" stroke-linejoin="round"/>
<path d="M320.915 407.258C316.528 415.183 312.206 423.129 307.735 431.012C303.774 437.981 299.643 444.844 295.598 451.749" stroke="#CD2C2C" stroke-width="2" stroke-linecap="round" stroke-linejoin="round"/>
<path d="M296.089 226.742C287.806 241.403 279.545 256.063 271.262 270.724" stroke="#CD2C2C" stroke-width="2" stroke-linecap="round" stroke-linejoin="round"/>
<path d="M293.555 409.277C286.124 422.429 278.693 435.56 271.262 448.712" stroke="#CD2C2C" stroke-width="2" stroke-linecap="round" stroke-linejoin="round"/>
<path d="M373.594 316.277C366.504 328.579 359.413 340.882 352.323 353.184C351.876 353.97 351.642 354.862 351.301 355.712" stroke="#CD2C2C" stroke-width="2" stroke-linecap="round" stroke-linejoin="round"/>
<path d="M287.975 226.742C281.673 237.132 275.008 247.331 270.238 258.592" stroke="#CD2C2C" stroke-width="2" stroke-linecap="round" stroke-linejoin="round"/>
<path d="M246.945 267.686L262.148 294.988" stroke="#CD2C2C" stroke-width="2" stroke-linecap="round" stroke-linejoin="round"/>
<path d="M163.863 242.402L179.066 269.705" stroke="#CD2C2C" stroke-width="2" stroke-linecap="round" stroke-linejoin="round"/>
<path d="M233.766 244.42C237.471 251.155 241.197 257.891 244.902 264.647" stroke="#CD2C2C" stroke-width="2" stroke-linecap="round" stroke-linejoin="round"/>
<path d="M162.862 256.064C166.353 261.546 168.866 267.644 172.997 272.743" stroke="#CD2C2C" stroke-width="2" stroke-linecap="round" stroke-linejoin="round"/>
<path d="M279.373 226.232C276.009 231.098 274.071 236.792 270.26 241.403" stroke="#CD2C2C" stroke-width="2" stroke-linecap="round" stroke-linejoin="round"/>
<path d="M203.381 251.496C205.745 255.873 208.108 260.25 210.471 264.648" stroke="#CD2C2C" stroke-width="2" stroke-linecap="round" stroke-linejoin="round"/>
<path d="M347.255 376.939C344.891 381.316 342.528 385.693 340.164 390.091" stroke="#CD2C2C" stroke-width="2" stroke-linecap="round" stroke-linejoin="round"/>
<path d="M255.059 297.008C257.422 301.385 259.786 305.762 262.149 310.16" stroke="#CD2C2C" stroke-width="2" stroke-linecap="round" stroke-linejoin="round"/>
<path d="M189.199 227.23C191.222 230.927 193.245 234.646 195.268 238.343" stroke="#CD2C2C" stroke-width="2" stroke-linecap="round" stroke-linejoin="round"/>
</g>
<circle cx="263" cy="263" r="262" stroke="url(#paint2_linear_103079_291)" stroke-width="2"/>
<defs>
<linearGradient id="paint0_linear_103079_291" x1="121.565" y1="119.594" x2="121.565" y2="201.438" gradientUnits="userSpaceOnUse">
<stop stop-color="#CD2C2C"/>
<stop offset="1" stop-color="white" stop-opacity="0"/>
</linearGradient>
<linearGradient id="paint1_linear_103079_291" x1="405.434" y1="119.594" x2="405.434" y2="408.501" gradientUnits="userSpaceOnUse">
<stop stop-color="#CD2C2C"/>
<stop offset="1" stop-color="white" stop-opacity="0"/>
</linearGradient>
<linearGradient id="paint2_linear_103079_291" x1="23.5" y1="149.5" x2="520" y2="393" gradientUnits="userSpaceOnUse">
<stop stop-color="#CD2C2C"/>
<stop offset="1" stop-color="white" stop-opacity="0"/>
</linearGradient>
<clipPath id="clip0_103079_291">
<rect width="286" height="369" fill="white" transform="translate(120 102)"/>
</clipPath>
</defs>
</svg>
