<svg width="1827" height="20" viewBox="0 0 1827 20" fill="none" xmlns="http://www.w3.org/2000/svg">
<path d="M13.5 0H21L7.5 20H0L13.5 0Z" fill="#CD2C2C"/>
<path d="M34.5 0H42L28.5 20H21L34.5 0Z" fill="#CD2C2C"/>
<path d="M55.5 0H63L49.5 20H42L55.5 0Z" fill="#CD2C2C"/>
<path d="M76.5 0H84L70.5 20H63L76.5 0Z" fill="#CD2C2C"/>
<path d="M97.5 0H105L91.5 20H84L97.5 0Z" fill="#CD2C2C"/>
<path d="M118.5 0H126L112.5 20H105L118.5 0Z" fill="#CD2C2C"/>
<path d="M139.5 0H147L133.5 20H126L139.5 0Z" fill="#CD2C2C"/>
<path d="M160.5 0H168L154.5 20H147L160.5 0Z" fill="#CD2C2C"/>
<path d="M181.5 0H189L175.5 20H168L181.5 0Z" fill="#CD2C2C"/>
<path d="M202.5 0H210L196.5 20H189L202.5 0Z" fill="#CD2C2C"/>
<path d="M223.5 0H231L217.5 20H210L223.5 0Z" fill="#CD2C2C"/>
<path d="M244.5 0H252L238.5 20H231L244.5 0Z" fill="#CD2C2C"/>
<path d="M265.5 0H273L259.5 20H252L265.5 0Z" fill="#CD2C2C"/>
<path d="M286.5 0H294L280.5 20H273L286.5 0Z" fill="#CD2C2C"/>
<path d="M307.5 0H315L301.5 20H294L307.5 0Z" fill="#CD2C2C"/>
<path d="M328.5 0H336L322.5 20H315L328.5 0Z" fill="#CD2C2C"/>
<path d="M349.5 0H357L343.5 20H336L349.5 0Z" fill="#CD2C2C"/>
<path d="M370.5 0H378L364.5 20H357L370.5 0Z" fill="#CD2C2C"/>
<path d="M391.5 0H399L385.5 20H378L391.5 0Z" fill="#CD2C2C"/>
<path d="M412.5 0H420L406.5 20H399L412.5 0Z" fill="#CD2C2C"/>
<path d="M433.5 0H441L427.5 20H420L433.5 0Z" fill="#CD2C2C"/>
<path d="M454.5 0H462L448.5 20H441L454.5 0Z" fill="#CD2C2C"/>
<path d="M475.5 0H483L469.5 20H462L475.5 0Z" fill="#CD2C2C"/>
<path d="M496.5 0H504L490.5 20H483L496.5 0Z" fill="#CD2C2C"/>
<path d="M517.5 0H525L511.5 20H504L517.5 0Z" fill="#CD2C2C"/>
<path d="M538.5 0H546L532.5 20H525L538.5 0Z" fill="#CD2C2C"/>
<path d="M559.5 0H567L553.5 20H546L559.5 0Z" fill="#CD2C2C"/>
<path d="M580.5 0H588L574.5 20H567L580.5 0Z" fill="#CD2C2C"/>
<path d="M601.5 0H609L595.5 20H588L601.5 0Z" fill="#CD2C2C"/>
<path d="M622.5 0H630L616.5 20H609L622.5 0Z" fill="#CD2C2C"/>
<path d="M643.5 0H651L637.5 20H630L643.5 0Z" fill="#CD2C2C"/>
<path d="M664.5 0H672L658.5 20H651L664.5 0Z" fill="#CD2C2C"/>
<path d="M685.5 0H693L679.5 20H672L685.5 0Z" fill="#CD2C2C"/>
<path d="M706.5 0H714L700.5 20H693L706.5 0Z" fill="#CD2C2C"/>
<path d="M727.5 0H735L721.5 20H714L727.5 0Z" fill="#CD2C2C"/>
<path d="M748.5 0H756L742.5 20H735L748.5 0Z" fill="#CD2C2C"/>
<path d="M769.5 0H777L763.5 20H756L769.5 0Z" fill="#CD2C2C"/>
<path d="M790.5 0H798L784.5 20H777L790.5 0Z" fill="#CD2C2C"/>
<path d="M811.5 0H819L805.5 20H798L811.5 0Z" fill="#CD2C2C"/>
<path d="M832.5 0H840L826.5 20H819L832.5 0Z" fill="#CD2C2C"/>
<path d="M853.5 0H861L847.5 20H840L853.5 0Z" fill="#CD2C2C"/>
<path d="M874.5 0H882L868.5 20H861L874.5 0Z" fill="#CD2C2C"/>
<path d="M895.5 0H903L889.5 20H882L895.5 0Z" fill="#CD2C2C"/>
<path d="M916.5 0H924L910.5 20H903L916.5 0Z" fill="#CD2C2C"/>
<path d="M937.5 0H945L931.5 20H924L937.5 0Z" fill="#CD2C2C"/>
<path d="M958.5 0H966L952.5 20H945L958.5 0Z" fill="#CD2C2C"/>
<path d="M979.5 0H987L973.5 20H966L979.5 0Z" fill="#CD2C2C"/>
<path d="M1000.5 0H1008L994.5 20H987L1000.5 0Z" fill="#CD2C2C"/>
<path d="M1021.5 0H1029L1015.5 20H1008L1021.5 0Z" fill="#CD2C2C"/>
<path d="M1042.5 0H1050L1036.5 20H1029L1042.5 0Z" fill="#CD2C2C"/>
<path d="M1063.5 0H1071L1057.5 20H1050L1063.5 0Z" fill="#CD2C2C"/>
<path d="M1084.5 0H1092L1078.5 20H1071L1084.5 0Z" fill="#CD2C2C"/>
<path d="M1105.5 0H1113L1099.5 20H1092L1105.5 0Z" fill="#CD2C2C"/>
<path d="M1126.5 0H1134L1120.5 20H1113L1126.5 0Z" fill="#CD2C2C"/>
<path d="M1147.5 0H1155L1141.5 20H1134L1147.5 0Z" fill="#CD2C2C"/>
<path d="M1168.5 0H1176L1162.5 20H1155L1168.5 0Z" fill="#CD2C2C"/>
<path d="M1189.5 0H1197L1183.5 20H1176L1189.5 0Z" fill="#CD2C2C"/>
<path d="M1210.5 0H1218L1204.5 20H1197L1210.5 0Z" fill="#CD2C2C"/>
<path d="M1231.5 0H1239L1225.5 20H1218L1231.5 0Z" fill="#CD2C2C"/>
<path d="M1252.5 0H1260L1246.5 20H1239L1252.5 0Z" fill="#CD2C2C"/>
<path d="M1273.5 0H1281L1267.5 20H1260L1273.5 0Z" fill="#CD2C2C"/>
<path d="M1294.5 0H1302L1288.5 20H1281L1294.5 0Z" fill="#CD2C2C"/>
<path d="M1315.5 0H1323L1309.5 20H1302L1315.5 0Z" fill="#CD2C2C"/>
<path d="M1336.5 0H1344L1330.5 20H1323L1336.5 0Z" fill="#CD2C2C"/>
<path d="M1357.5 0H1365L1351.5 20H1344L1357.5 0Z" fill="#CD2C2C"/>
<path d="M1378.5 0H1386L1372.5 20H1365L1378.5 0Z" fill="#CD2C2C"/>
<path d="M1399.5 0H1407L1393.5 20H1386L1399.5 0Z" fill="#CD2C2C"/>
<path d="M1420.5 0H1428L1414.5 20H1407L1420.5 0Z" fill="#CD2C2C"/>
<path d="M1441.5 0H1449L1435.5 20H1428L1441.5 0Z" fill="#CD2C2C"/>
<path d="M1462.5 0H1470L1456.5 20H1449L1462.5 0Z" fill="#CD2C2C"/>
<path d="M1483.5 0H1491L1477.5 20H1470L1483.5 0Z" fill="#CD2C2C"/>
<path d="M1504.5 0H1512L1498.5 20H1491L1504.5 0Z" fill="#CD2C2C"/>
<path d="M1525.5 0H1533L1519.5 20H1512L1525.5 0Z" fill="#CD2C2C"/>
<path d="M1546.5 0H1554L1540.5 20H1533L1546.5 0Z" fill="#CD2C2C"/>
<path d="M1567.5 0H1575L1561.5 20H1554L1567.5 0Z" fill="#CD2C2C"/>
<path d="M1588.5 0H1596L1582.5 20H1575L1588.5 0Z" fill="#CD2C2C"/>
<path d="M1609.5 0H1617L1603.5 20H1596L1609.5 0Z" fill="#CD2C2C"/>
<path d="M1630.5 0H1638L1624.5 20H1617L1630.5 0Z" fill="#CD2C2C"/>
<path d="M1651.5 0H1659L1645.5 20H1638L1651.5 0Z" fill="#CD2C2C"/>
<path d="M1672.5 0H1680L1666.5 20H1659L1672.5 0Z" fill="#CD2C2C"/>
<path d="M1693.5 0H1701L1687.5 20H1680L1693.5 0Z" fill="#CD2C2C"/>
<path d="M1714.5 0H1722L1708.5 20H1701L1714.5 0Z" fill="#CD2C2C"/>
<path d="M1735.5 0H1743L1729.5 20H1722L1735.5 0Z" fill="#CD2C2C"/>
<path d="M1756.5 0H1764L1750.5 20H1743L1756.5 0Z" fill="#CD2C2C"/>
<path d="M1777.5 0H1785L1771.5 20H1764L1777.5 0Z" fill="#CD2C2C"/>
<path d="M1798.5 0H1806L1792.5 20H1785L1798.5 0Z" fill="#CD2C2C"/>
<path d="M1819.5 0H1827L1813.5 20H1806L1819.5 0Z" fill="#CD2C2C"/>
</svg>
