<svg width="1080" height="56" viewBox="0 0 1080 56" fill="none" xmlns="http://www.w3.org/2000/svg">
<path d="M51 26C51 12.1929 39.8071 1 26 1C12.1929 1 1 12.1929 1 26" stroke="#F04C4D" stroke-width="2"/>
<path d="M78 30C78 43.8071 66.8071 55 53 55C39.1929 55 28 43.8071 28 30" stroke="#F04C4D" stroke-width="2"/>
<path d="M128 26C128 12.1929 116.807 1 103 1C89.1929 1 78 12.1929 78 26" stroke="#F04C4D" stroke-width="2"/>
<path d="M155 30C155 43.8071 143.807 55 130 55C116.193 55 105 43.8071 105 30" stroke="#F04C4D" stroke-width="2"/>
<path d="M205 26C205 12.1929 193.807 1 180 1C166.193 1 155 12.1929 155 26" stroke="#F04C4D" stroke-width="2"/>
<path d="M232 30C232 43.8071 220.807 55 207 55C193.193 55 182 43.8071 182 30" stroke="#F04C4D" stroke-width="2"/>
<path d="M282 26C282 12.1929 270.807 1 257 1C243.193 1 232 12.1929 232 26" stroke="#F04C4D" stroke-width="2"/>
<path d="M309 30C309 43.8071 297.807 55 284 55C270.193 55 259 43.8071 259 30" stroke="#F04C4D" stroke-width="2"/>
<path d="M359 26C359 12.1929 347.807 1 334 1C320.193 1 309 12.1929 309 26" stroke="#F04C4D" stroke-width="2"/>
<path d="M386 30C386 43.8071 374.807 55 361 55C347.193 55 336 43.8071 336 30" stroke="#F04C4D" stroke-width="2"/>
<path d="M436 26C436 12.1929 424.807 1 411 1C397.193 1 386 12.1929 386 26" stroke="#F04C4D" stroke-width="2"/>
<path d="M463 30C463 43.8071 451.807 55 438 55C424.193 55 413 43.8071 413 30" stroke="#F04C4D" stroke-width="2"/>
<path d="M513 26C513 12.1929 501.807 1 488 1C474.193 1 463 12.1929 463 26" stroke="#F04C4D" stroke-width="2"/>
<path d="M540 30C540 43.8071 528.807 55 515 55C501.193 55 490 43.8071 490 30" stroke="#F04C4D" stroke-width="2"/>
<path d="M590 26C590 12.1929 578.807 1 565 1C551.193 1 540 12.1929 540 26" stroke="#F04C4D" stroke-width="2"/>
<path d="M617 30C617 43.8071 605.807 55 592 55C578.193 55 567 43.8071 567 30" stroke="#F04C4D" stroke-width="2"/>
<path d="M667 26C667 12.1929 655.807 1 642 1C628.193 1 617 12.1929 617 26" stroke="#F04C4D" stroke-width="2"/>
<path d="M694 30C694 43.8071 682.807 55 669 55C655.193 55 644 43.8071 644 30" stroke="#F04C4D" stroke-width="2"/>
<path d="M744 26C744 12.1929 732.807 1 719 1C705.193 1 694 12.1929 694 26" stroke="#F04C4D" stroke-width="2"/>
<path d="M771 30C771 43.8071 759.807 55 746 55C732.193 55 721 43.8071 721 30" stroke="#F04C4D" stroke-width="2"/>
<path d="M821 26C821 12.1929 809.807 1 796 1C782.193 1 771 12.1929 771 26" stroke="#F04C4D" stroke-width="2"/>
<path d="M848 30C848 43.8071 836.807 55 823 55C809.193 55 798 43.8071 798 30" stroke="#F04C4D" stroke-width="2"/>
<path d="M898 26C898 12.1929 886.807 1 873 1C859.193 1 848 12.1929 848 26" stroke="#F04C4D" stroke-width="2"/>
<path d="M925 30C925 43.8071 913.807 55 900 55C886.193 55 875 43.8071 875 30" stroke="#F04C4D" stroke-width="2"/>
<path d="M975 26C975 12.1929 963.807 1 950 1C936.193 1 925 12.1929 925 26" stroke="#F04C4D" stroke-width="2"/>
<path d="M1002 30C1002 43.8071 990.807 55 977 55C963.193 55 952 43.8071 952 30" stroke="#F04C4D" stroke-width="2"/>
<path d="M1052 26C1052 12.1929 1040.81 1 1027 1C1013.19 1 1002 12.1929 1002 26" stroke="#F04C4D" stroke-width="2"/>
<path d="M1079 30C1079 43.8071 1067.81 55 1054 55C1040.19 55 1029 43.8071 1029 30" stroke="#F04C4D" stroke-width="2"/>
</svg>
