<svg width="903" height="20" viewBox="0 0 903 20" fill="none" xmlns="http://www.w3.org/2000/svg">
<path d="M13.5 0H21L7.5 20H0L13.5 0Z" fill="#CD2C2C"/>
<path d="M34.5 0H42L28.5 20H21L34.5 0Z" fill="#CD2C2C"/>
<path d="M55.5 0H63L49.5 20H42L55.5 0Z" fill="#CD2C2C"/>
<path d="M76.5 0H84L70.5 20H63L76.5 0Z" fill="#CD2C2C"/>
<path d="M97.5 0H105L91.5 20H84L97.5 0Z" fill="#CD2C2C"/>
<path d="M118.5 0H126L112.5 20H105L118.5 0Z" fill="#CD2C2C"/>
<path d="M139.5 0H147L133.5 20H126L139.5 0Z" fill="#CD2C2C"/>
<path d="M160.5 0H168L154.5 20H147L160.5 0Z" fill="#CD2C2C"/>
<path d="M181.5 0H189L175.5 20H168L181.5 0Z" fill="#CD2C2C"/>
<path d="M202.5 0H210L196.5 20H189L202.5 0Z" fill="#CD2C2C"/>
<path d="M223.5 0H231L217.5 20H210L223.5 0Z" fill="#CD2C2C"/>
<path d="M244.5 0H252L238.5 20H231L244.5 0Z" fill="#CD2C2C"/>
<path d="M265.5 0H273L259.5 20H252L265.5 0Z" fill="#CD2C2C"/>
<path d="M286.5 0H294L280.5 20H273L286.5 0Z" fill="#CD2C2C"/>
<path d="M307.5 0H315L301.5 20H294L307.5 0Z" fill="#CD2C2C"/>
<path d="M328.5 0H336L322.5 20H315L328.5 0Z" fill="#CD2C2C"/>
<path d="M349.5 0H357L343.5 20H336L349.5 0Z" fill="#CD2C2C"/>
<path d="M370.5 0H378L364.5 20H357L370.5 0Z" fill="#CD2C2C"/>
<path d="M391.5 0H399L385.5 20H378L391.5 0Z" fill="#CD2C2C"/>
<path d="M412.5 0H420L406.5 20H399L412.5 0Z" fill="#CD2C2C"/>
<path d="M433.5 0H441L427.5 20H420L433.5 0Z" fill="#CD2C2C"/>
<path d="M454.5 0H462L448.5 20H441L454.5 0Z" fill="#CD2C2C"/>
<path d="M475.5 0H483L469.5 20H462L475.5 0Z" fill="#CD2C2C"/>
<path d="M496.5 0H504L490.5 20H483L496.5 0Z" fill="#CD2C2C"/>
<path d="M517.5 0H525L511.5 20H504L517.5 0Z" fill="#CD2C2C"/>
<path d="M538.5 0H546L532.5 20H525L538.5 0Z" fill="#CD2C2C"/>
<path d="M559.5 0H567L553.5 20H546L559.5 0Z" fill="#CD2C2C"/>
<path d="M580.5 0H588L574.5 20H567L580.5 0Z" fill="#CD2C2C"/>
<path d="M601.5 0H609L595.5 20H588L601.5 0Z" fill="#CD2C2C"/>
<path d="M622.5 0H630L616.5 20H609L622.5 0Z" fill="#CD2C2C"/>
<path d="M643.5 0H651L637.5 20H630L643.5 0Z" fill="#CD2C2C"/>
<path d="M664.5 0H672L658.5 20H651L664.5 0Z" fill="#CD2C2C"/>
<path d="M685.5 0H693L679.5 20H672L685.5 0Z" fill="#CD2C2C"/>
<path d="M706.5 0H714L700.5 20H693L706.5 0Z" fill="#CD2C2C"/>
<path d="M727.5 0H735L721.5 20H714L727.5 0Z" fill="#CD2C2C"/>
<path d="M748.5 0H756L742.5 20H735L748.5 0Z" fill="#CD2C2C"/>
<path d="M769.5 0H777L763.5 20H756L769.5 0Z" fill="#CD2C2C"/>
<path d="M790.5 0H798L784.5 20H777L790.5 0Z" fill="#CD2C2C"/>
<path d="M811.5 0H819L805.5 20H798L811.5 0Z" fill="#CD2C2C"/>
<path d="M832.5 0H840L826.5 20H819L832.5 0Z" fill="#CD2C2C"/>
<path d="M853.5 0H861L847.5 20H840L853.5 0Z" fill="#CD2C2C"/>
<path d="M874.5 0H882L868.5 20H861L874.5 0Z" fill="#CD2C2C"/>
<path d="M895.5 0H903L889.5 20H882L895.5 0Z" fill="#CD2C2C"/>
</svg>
