<svg width="30" height="30" viewBox="0 0 40 40" fill="none" xmlns="http://www.w3.org/2000/svg">
<g clip-path="url(#clip0_103079_167)">
<path d="M20.0021 0.5H38.1744C39.4677 0.5 39.9833 0.886232 39.9833 1.92104C39.9974 4.82709 39.9974 7.73436 39.9833 10.6428C39.9833 11.64 39.4406 12.0311 38.1156 12.0311C28.1072 12.0359 18.0947 12.0384 8.07826 12.0384C5.95729 12.0384 3.83632 12.0384 1.71535 12.0092C0.452111 11.9946 -0.00012207 11.5963 -0.00012207 10.57C-0.00012207 7.66229 -0.00012207 4.75543 -0.00012207 1.84938C-0.00012207 0.928742 0.53502 0.5 1.69726 0.5C7.8014 0.5 13.903 0.5 20.0021 0.5ZM24.2863 3.9688H14.8407C14.5784 3.96122 14.3158 3.97016 14.0553 3.99552C13.7398 4.03519 13.4507 4.16049 13.2358 4.35068C13.0208 4.54087 12.893 4.78452 12.8734 5.04126C12.8418 5.29844 12.9259 5.55623 13.1105 5.7676C13.295 5.97897 13.5678 6.12983 13.8789 6.19267C14.1973 6.25354 14.5241 6.28049 14.8512 6.27283C19.662 6.27769 24.4722 6.27769 29.282 6.27283C30.8994 6.27283 32.5169 6.28255 34.1344 6.25947C35.2605 6.24247 35.9132 5.54166 35.6027 4.74126C35.4037 4.23236 34.9032 3.97366 34.059 3.97244C30.802 3.96759 27.5444 3.96637 24.2863 3.9688Z" fill="#CD2C2C"/>
<path d="M20.0243 14.5C24.1366 14.5 28.2484 14.5 32.3597 14.5C33.8339 14.5 34.2877 14.8717 34.2786 16.0437C34.2786 17.0154 34.2922 17.987 34.2696 18.9514C34.25 19.8234 33.7179 20.2352 32.637 20.251C31.9376 20.2607 31.2366 20.2716 30.5372 20.257C30.1362 20.2498 30.002 20.3785 30.0065 20.6919C30.0231 21.6076 30.0186 22.5246 30.0065 23.4404C29.9975 24.4461 29.4789 24.8615 28.2504 24.8615H11.9836C10.4309 24.8615 9.99072 24.508 9.99223 23.2667C9.99223 22.4918 9.95605 21.7145 10.0058 20.9421C10.0375 20.4307 9.89575 20.1915 9.19027 20.2498C8.55732 20.2815 7.92262 20.2836 7.28938 20.2558C6.29899 20.2425 5.74425 19.8089 5.72918 19.0097C5.70958 17.97 5.72918 16.9303 5.71863 15.8907C5.71863 14.9372 6.18895 14.5158 7.36174 14.5097C10.2048 14.4951 13.0478 14.5097 15.8909 14.5024H20.0243V14.5Z" fill="#CD2C2C"/>
<path d="M14.3508 27.1893C14.5784 27.1783 14.7909 27.1601 15.0035 27.1601C18.347 27.1601 21.692 27.1686 25.0355 27.1504C25.5873 27.1504 25.741 27.2889 25.735 27.7225C25.7094 29.6779 25.7139 31.6321 25.735 33.5876C25.749 33.7435 25.7106 33.8995 25.6238 34.0393C25.5371 34.1791 25.4052 34.2974 25.242 34.3819C24.128 35.0329 23.0472 35.7179 21.9257 36.3702C21.5473 36.5912 21.3845 36.8341 21.4147 37.2082C21.4508 37.6649 21.4403 38.124 21.4252 38.5819C21.3996 39.341 20.8358 39.8305 20.0067 39.8353C19.1776 39.8402 18.5987 39.375 18.5716 38.6074C18.5535 38.1143 18.6199 37.6175 18.555 37.1293C18.5176 36.8638 18.3637 36.6178 18.1209 36.4357C16.9963 35.707 15.8205 35.0329 14.6869 34.3151C14.476 34.1808 14.3394 33.9848 14.3071 33.7698C14.2799 31.6734 14.2905 29.5783 14.2935 27.482C14.3043 27.3835 14.3234 27.2857 14.3508 27.1893Z" fill="#CD2C2C"/>
</g>
<defs>
<clipPath id="clip0_103079_167">
<rect width="40" height="39" fill="white" transform="translate(0 0.5)"/>
</clipPath>
</defs>
</svg>
