<svg width="40" height="41" viewBox="0 0 40 41" fill="none" xmlns="http://www.w3.org/2000/svg">
<g clip-path="url(#clip0_103079_177)">
<path d="M0.0323438 26.639C0.250535 26.3675 0.430075 26.0471 0.696891 25.827C1.90504 24.8341 3.14562 23.8754 4.3625 22.8776C4.52252 22.7248 4.61857 22.519 4.63181 22.3004C4.66921 21.2463 4.63181 20.1898 4.70038 19.1394C4.72781 18.7358 4.65051 18.5133 4.32634 18.2834C3.11569 17.4103 1.93621 16.5103 0.746763 15.6164C-0.126 14.961 -0.204549 14.5648 0.320356 13.6599C1.50066 11.6218 2.68222 9.58824 3.86502 7.55916C4.38993 6.65549 4.8899 6.47818 5.87238 6.87315C7.22142 7.41242 8.56298 7.95903 9.89457 8.52398C10.0554 8.60869 10.2375 8.64656 10.4195 8.63313C10.6016 8.6197 10.7759 8.55552 10.9219 8.44816C11.8047 7.88321 12.7398 7.39653 13.6312 6.84136C13.8118 6.69669 13.9302 6.49062 13.9629 6.26418C14.226 4.6745 14.4541 3.08483 14.711 1.49515C14.8132 0.855606 15.1848 0.516882 15.8418 0.507099C18.5017 0.492425 21.1615 0.492425 23.8214 0.507099C24.4784 0.507099 24.6729 0.803024 24.7615 1.45479C24.9909 3.12762 25.2602 4.79434 25.5407 6.45984C25.5669 6.62125 25.7502 6.79612 25.906 6.89027C26.8611 7.46989 27.8186 8.03607 28.7999 8.55944C28.9894 8.66093 29.3185 8.61936 29.548 8.53498C30.9194 8.01528 32.2822 7.46378 33.6474 6.92329C34.8481 6.44761 35.1598 6.55644 35.7957 7.65699C36.9436 9.6396 38.0931 11.621 39.2444 13.6012C39.7668 14.5036 39.692 14.8399 38.8853 15.4758C37.7046 16.4076 36.5363 17.3553 35.3493 18.2797C35.075 18.4937 35.0364 18.6967 35.0501 19.0452C35.086 20.0573 35.0652 21.0705 34.9878 22.0803C34.9628 22.4532 35.0277 22.6746 35.3493 22.8886C36.7208 23.8032 38.0798 24.7412 39.4401 25.6754C40.0236 26.0765 40.1608 26.4825 39.8216 27.0743C38.4917 29.401 37.1493 31.7194 35.7944 34.0298C35.494 34.5409 35.0152 34.6497 34.4504 34.4247C32.9891 33.8439 31.5204 33.2826 30.0641 32.692C29.6427 32.5208 29.331 32.5477 28.9283 32.8143C28.1042 33.3572 27.2052 33.7925 26.3574 34.2976C26.1601 34.4188 26.017 34.6089 25.9572 34.8295C25.6878 36.3531 25.4584 37.8866 25.2091 39.4102C25.0919 40.1439 24.7228 40.4949 23.9623 40.4973C21.344 40.5079 18.7257 40.5079 16.1074 40.4973C15.3007 40.4973 15.0002 40.2185 14.8756 39.4176C14.6486 37.9697 14.4167 36.5231 14.2222 35.0704C14.2096 34.8824 14.1448 34.7014 14.0349 34.5469C13.9251 34.3924 13.7743 34.2703 13.5988 34.1936C12.7036 33.7265 11.8533 33.1713 10.9593 32.7067C10.689 32.5951 10.3856 32.5881 10.1103 32.6871C8.654 33.2227 7.21893 33.8109 5.77139 34.3722C4.8687 34.7207 4.50339 34.5886 4.03583 33.7828C2.82228 31.695 1.61163 29.6088 0.403892 27.5243C0.262824 27.2364 0.138769 26.9408 0.0323438 26.639ZM19.8852 13.584C15.9852 13.5694 12.7335 16.7304 12.7024 20.5627C12.6725 24.367 15.9366 27.6221 19.8004 27.6429C23.6643 27.6637 26.9521 24.4636 26.9808 20.6447C27.0095 16.8258 23.7653 13.5951 19.8852 13.584Z" fill="#CD2C2C"/>
</g>
<defs>
<clipPath id="clip0_103079_177">
<rect width="40" height="40" fill="white" transform="translate(0 0.5)"/>
</clipPath>
</defs>
</svg>
