<svg width="40" height="41" viewBox="0 0 40 41" fill="none" xmlns="http://www.w3.org/2000/svg">
<g clip-path="url(#clip0_103079_185)">
<path d="M19.2012 25.5185C19.1333 25.8188 18.9239 26.0154 18.7243 26.2256C16.9736 28.1126 15.227 30.0027 13.4651 31.8777C13.059 32.31 12.8704 32.7094 13.1879 33.3249C13.4388 33.8143 12.9938 34.8261 12.2966 35.338C11.286 36.0811 10.2422 36.7717 9.20118 37.4682C7.78449 38.4125 6.35117 39.3237 4.95111 40.283C4.48674 40.6043 4.15267 40.5607 3.8075 40.1329C3.62591 39.9077 3.42076 39.7035 3.23085 39.4844C3.01322 39.2322 3.00074 38.9724 3.17401 38.6707C4.07365 37.1004 4.96082 35.5181 5.85769 33.9494C6.41216 32.9706 6.98605 31.9978 7.53359 31.019C7.86489 30.4185 8.27243 29.9441 8.86573 29.6499C9.21782 29.4742 9.52001 29.3496 9.8929 29.6379C10.3365 29.9741 10.6608 29.6379 10.9686 29.3061C12.7485 27.3795 14.5302 25.4565 16.3137 23.5369C16.9597 22.8433 16.9722 22.8463 17.6306 23.5504C18.0576 24.0008 18.4845 24.4647 18.9059 24.9285C19.0487 25.0937 19.2081 25.2528 19.2012 25.5185Z" fill="#CD2C2C"/>
<path d="M36.2892 31.4856C34.0865 28.9965 31.7951 26.5991 29.5509 24.1521C29.2085 23.7783 28.916 23.7197 28.5556 24.1131C26.6038 26.2388 24.647 28.359 22.6851 30.4737C22.3066 30.8821 22.3399 31.2243 22.7086 31.6177C24.9044 33.9746 27.0696 36.366 29.2847 38.7004C30.1996 39.6627 31.2892 40.3127 32.4356 40.1866C34.7921 40.2196 36.3349 39.1193 37.1847 37.0341C38.0067 35.0284 37.6962 33.0768 36.2892 31.4856ZM32.8999 37.6075C31.7217 37.579 30.682 36.4366 30.7028 35.1891C30.7208 34.5666 30.9628 33.9765 31.3771 33.5447C31.7915 33.1129 32.3453 32.8737 32.9203 32.8782C33.4953 32.8828 34.0459 33.1306 34.4545 33.5688C34.863 34.0071 35.0971 34.6009 35.1067 35.2236C35.1026 36.5146 34.0657 37.6361 32.8999 37.6075Z" fill="#CD2C2C"/>
<path d="M36.7848 1.32849C34.4768 0.135016 32.0939 0.936667 30.6412 2.48743C26.107 7.33036 21.6074 12.2108 17.1009 17.0868C16.509 17.7263 16.5228 17.944 17.1009 18.5715C19.2952 20.9269 21.502 23.2688 23.677 25.6437C24.1413 26.1512 24.4518 26.1677 24.9245 25.6437C26.4854 23.9203 28.0851 22.218 29.6639 20.5066C32.5722 17.366 35.479 14.2235 38.3845 11.0789C38.9123 10.5287 39.3279 9.86505 39.6049 9.13056C39.8818 8.39606 40.0138 7.60697 39.9925 6.81394C39.8954 4.32492 38.9362 2.44089 36.7848 1.32849ZM21.7307 17.5296C21.2927 18.0356 20.9198 18.1016 20.4582 17.5867C19.9966 17.0718 20.181 16.6544 20.5691 16.2356C22.1854 14.4862 23.8026 12.7348 25.4208 10.9813C27.5102 8.72449 29.5974 6.46616 31.6822 4.20632C32.0315 3.82652 32.4058 3.56831 32.9118 3.77397C33.0517 3.82264 33.1747 3.91613 33.2646 4.04211C33.3544 4.16808 33.4069 4.32061 33.415 4.47955C33.415 4.87437 33.1918 5.10405 32.9797 5.33224C30.0428 8.51683 27.1041 11.6944 24.1635 14.865C23.3484 15.7477 22.5195 16.6184 21.7307 17.5296ZM23.6631 19.7409C23.2334 20.2063 22.8619 20.2198 22.4391 19.7109C22.0163 19.202 22.1702 18.8432 22.5528 18.4319C24.4352 16.4082 26.3116 14.3781 28.1821 12.3414L34.596 5.4043C34.8261 5.1566 35.0507 4.90139 35.3806 4.81432C35.9351 4.6642 36.3773 5.0335 36.3592 5.62197C36.3592 5.97626 36.1749 6.22246 35.9586 6.46266C33.1862 9.4651 30.4139 12.4675 27.6415 15.47C26.3135 16.8931 24.9828 18.3118 23.6631 19.7409ZM37.1355 9.53265C36.228 10.5275 35.3173 11.5188 34.4033 12.5066C31.5385 15.6091 28.67 18.7166 25.7978 21.8291C25.3931 22.269 25.0437 22.5677 24.5392 21.9898C24.079 21.4613 24.0748 21.1491 24.6417 20.5351C28.3263 16.5408 32.0135 12.5496 35.7036 8.56136C35.9531 8.29264 36.2109 8.04344 36.4895 8.06146C36.9539 8.06146 37.2215 8.2416 37.3712 8.58989C37.5333 8.95768 37.3739 9.26393 37.1355 9.52515V9.53265Z" fill="#CD2C2C"/>
<path d="M10.4076 19.5033C6.15612 20.3545 1.92823 17.7649 0.472729 13.4204C-0.11779 11.6579 -0.0360043 9.89249 0.0901393 8.09853C0.106774 7.84933 0.145587 7.57311 0.39926 7.47403C0.652934 7.37495 0.822049 7.61214 0.980075 7.78328C1.89912 8.76808 2.82787 9.74537 3.72474 10.7527C4.69507 11.8456 5.85532 12.371 7.2623 12.2719C9.04911 12.1473 10.3119 11.1745 11.0217 9.43612C11.748 7.66468 11.4583 5.98332 10.2967 4.54365C9.41645 3.45376 8.417 2.47797 7.47439 1.44663C7.33577 1.29651 7.10151 1.14639 7.16388 0.900185C7.23735 0.599941 7.52845 0.631467 7.74609 0.599941C11.6441 -0.072605 15.969 2.86528 17.1292 6.96962C17.2498 7.40047 17.4259 7.82381 17.4702 8.26367C17.5298 8.85665 17.4855 9.46464 17.4855 10.0651C17.7918 14.5793 14.5551 18.6746 10.4076 19.5033Z" fill="#CD2C2C"/>
<path d="M35.1074 35.2243C35.1074 36.5154 34.0663 37.6368 32.9005 37.6083C31.7348 37.5797 30.6826 36.4373 30.7034 35.1898C30.7214 34.5674 30.9634 33.9772 31.3778 33.5454C31.7921 33.1136 32.346 32.8745 32.921 32.879C33.496 32.8835 34.0465 33.1313 34.4551 33.5696C34.8636 34.0078 35.0977 34.6017 35.1074 35.2243Z" fill="#CD2C2C"/>
</g>
<defs>
<clipPath id="clip0_103079_185">
<rect width="40" height="40" fill="white" transform="translate(0 0.5)"/>
</clipPath>
</defs>
</svg>
