<svg width="40" height="51" viewBox="0 0 40 51" fill="none" xmlns="http://www.w3.org/2000/svg">
<g clip-path="url(#clip0_103079_197)">
<path d="M39.999 30.2632C40.0744 41.5901 31.1241 50.9318 20.1278 51.0011C9.23022 51.0705 0.184035 41.866 -0.000972841 30.7387C-0.18461 19.2986 8.65053 9.6074 19.9332 9.56071C31.179 9.51543 40.0593 19.0439 39.999 30.2632ZM19.9072 47.0831C28.815 47.2019 36.1111 39.8072 36.2153 30.3552C36.3153 21.3927 29.4632 13.5269 20.0401 13.4929C10.909 13.459 3.86911 20.9923 3.78689 30.218C3.70466 39.4436 10.92 46.9628 19.9072 47.0831Z" fill="#CD2C2C"/>
<path d="M16.9516 7.83456V5.18855H14.885C14.885 3.80187 14.8055 2.48453 14.9165 1.18417C14.9782 0.455453 15.6017 0.0281302 16.3253 0.0210553C18.7866 -0.00441427 21.2483 -0.00441427 23.7105 0.0210553C24.53 0.0295452 25.1426 0.62808 25.1687 1.41622C25.2098 2.63027 25.1796 3.84715 25.1796 5.14044H23.1034V7.83456H16.9516Z" fill="#CD2C2C"/>
<path d="M11.3145 8.69897L5.55875 12.1246C4.94754 10.9926 4.32537 9.92999 3.80461 8.81924C3.47845 8.12024 3.78542 7.30097 4.46926 6.86233C5.44912 6.23266 6.44679 5.62847 7.46913 5.07945C8.31194 4.62666 9.11364 4.87287 9.62207 5.70487C10.1976 6.65149 10.7143 7.62641 11.3145 8.69897Z" fill="#CD2C2C"/>
<path d="M34.2467 12.1217L28.5156 8.69465C29.1351 7.59379 29.6764 6.54671 30.2972 5.55198C30.4981 5.23048 30.8083 4.99837 31.1668 4.90145C31.5253 4.80454 31.9059 4.84985 32.2336 5.02844C33.3217 5.61283 34.3906 6.24391 35.4267 6.92168C36.1256 7.37872 36.3229 8.2744 35.9269 9.06254C35.4212 10.07 34.8456 11.0378 34.2467 12.1217Z" fill="#CD2C2C"/>
<path d="M32.8609 30.2896C32.8759 37.6065 27.1599 43.63 20.046 43.6088C12.5772 43.5833 7.12563 37.3744 7.15441 30.2019C7.16568 26.6822 8.53066 23.3113 10.9491 20.8307C12.1466 19.6024 13.5666 18.6297 15.1282 17.9681C16.6897 17.3065 18.3622 16.9689 20.0501 16.9747C21.738 16.9804 23.4083 17.3294 24.9656 18.0017C26.5229 18.6739 27.9367 19.6563 29.1263 20.8927C30.3159 22.1291 31.2579 23.5953 31.8987 25.2077C32.5395 26.82 32.8664 28.5468 32.8609 30.2896ZM27.397 23.7326L27.1681 23.5402C26.9741 23.558 26.7819 23.5936 26.5939 23.6463C23.6009 24.7641 20.8381 26.3489 18.1425 28.078C17.5614 28.4516 17.4175 29.0586 17.5464 29.7222C17.8204 31.1471 18.6427 32.1461 19.8898 32.7786C20.897 33.2922 21.596 33.1493 22.2634 32.2196C23.0856 31.0735 23.8955 29.9104 24.6205 28.6963C25.5908 27.0705 26.4747 25.3895 27.397 23.7326Z" fill="#CD2C2C"/>
</g>
<defs>
<clipPath id="clip0_103079_197">
<rect width="40" height="51" fill="white"/>
</clipPath>
</defs>
</svg>
