<svg width="50" height="50" viewBox="0 0 50 50" fill="none" xmlns="http://www.w3.org/2000/svg">
<path d="M10.5509 3.53996C9.77777 3.74839 9.12037 4.5867 9.12037 5.36481C9.12037 5.57786 9.10648 5.60565 8.91203 5.76312C8.27777 6.28649 7.22685 6.87007 6.37963 7.17576C4.73611 7.77323 2.8287 7.86586 1.20833 7.43512C0.861109 7.34249 0.763887 7.3286 0.736109 7.37491C0.671294 7.47681 0.518516 8.20397 0.458331 8.67639C0.388887 9.2507 0.425924 10.5707 0.527776 11.1404C0.907405 13.2431 1.77778 15.0587 3.37963 17.0642C3.88426 17.6987 5.6574 19.5143 6.4537 20.2136C7.2037 20.8713 7.73611 21.1075 8.16203 20.9593C8.26389 20.9223 8.36111 20.9038 8.37037 20.913C8.37963 20.9223 8.34722 21.0612 8.29629 21.2233C7.59722 23.3816 7.39815 26.1791 7.75926 28.6941C8.33796 32.7282 10.2824 36.54 13.1204 39.2078L13.625 39.6802L12.4491 41.8524C11.8056 43.0427 11.2407 44.1265 11.1944 44.2515C11.1065 44.5063 11.0787 45.0065 11.162 44.7934C11.2176 44.6545 11.8565 43.7699 11.9028 43.7699C11.9583 43.7699 11.9907 43.9829 11.963 44.1497C11.9491 44.233 11.838 44.5017 11.7222 44.7425C11.5787 45.0389 11.5046 45.2612 11.4907 45.428C11.463 45.7614 11.3565 45.7383 11.2361 45.3678C11.1111 44.9926 11.0787 45.1269 11.1991 45.5252C11.4768 46.4377 12.1944 46.9749 13.1204 46.9703C13.7037 46.9657 14.412 46.66 14.7454 46.2617C14.8102 46.1875 15.4074 45.2149 16.0694 44.1033C16.7315 42.9918 17.2778 42.0747 17.287 42.0701C17.2917 42.0654 17.6296 42.1998 18.037 42.3758C21.7824 43.9922 26.0093 44.2515 29.9907 43.1029C30.6806 42.9038 31.6759 42.5332 32.2593 42.26L32.6852 42.0608L32.7963 42.2322C32.8565 42.3294 33.2454 42.9686 33.6667 43.6541C35.3704 46.4423 35.3889 46.4701 35.875 46.7294C36.713 47.1741 37.5694 47.0675 38.2361 46.433C38.8565 45.8402 39.0278 45.0806 38.7454 44.1635C38.6111 43.7189 38.3657 43.2326 37.2731 41.2595L36.338 39.5644L36.5602 39.3652C36.9768 38.9947 37.838 38.1008 38.2361 37.6191C40.4815 34.9189 41.7917 31.788 42.25 28.0225C42.3426 27.249 42.3565 25.2713 42.2731 24.5025C42.1528 23.4233 41.8333 21.8347 41.5972 21.1724C41.5046 20.9038 41.5046 20.825 41.6111 20.8667C42.0926 21.0705 42.7083 20.9038 43.3843 20.385C43.8009 20.0654 44.8935 19.028 45.537 18.3425C48.7685 14.892 50.125 11.233 49.4861 7.69912C49.4259 7.35639 49.5 7.37028 48.4907 7.49996C45.9815 7.82418 44.4491 7.68986 43.0278 7.01828C41.8565 6.47176 41.0278 5.61955 40.6296 4.55891C40.5602 4.37828 40.4352 4.1467 40.3518 4.04944C39.9815 3.6187 39.1991 3.43807 38.4954 3.6187C38.1852 3.70207 37.6898 3.94755 37.0602 4.34123C36.7315 4.54502 36.3056 4.80439 36.1157 4.91091C35.7037 5.14712 35.3935 5.42039 35.2778 5.6566C35.2268 5.74923 35.1667 6.0086 35.1389 6.23554C34.9954 7.4166 34.537 8.64396 33.875 9.6027C33.5972 10.0056 32.9306 10.793 32.8657 10.793C32.8426 10.793 32.7407 10.7513 32.6481 10.705C32.2731 10.5105 31.2454 10.0983 30.6991 9.91302C29.5602 9.53323 28.2824 9.24607 27.037 9.09323C26.2037 8.99133 23.912 8.97744 23.125 9.07007C21.1528 9.30628 19.2454 9.81575 17.7315 10.5198C17.4306 10.6587 17.287 10.705 17.1991 10.6819C16.9259 10.6124 16.3565 9.94544 15.8518 9.10249C15.25 8.09281 14.8704 6.93028 14.6991 5.55007C14.6667 5.31386 14.5463 5.1286 14.3611 5.03133C14.2917 4.99428 14 4.90165 13.7083 4.82291C13.4213 4.73955 13.1157 4.64228 13.037 4.6006C12.9583 4.56354 12.7361 4.36902 12.5463 4.17449C12.3472 3.9707 12.1018 3.77155 11.9768 3.71133C11.5 3.47976 10.9907 3.41954 10.5509 3.53996ZM11.625 3.8966C11.8518 3.97533 12.0602 4.14207 12.2685 4.41996C12.3704 4.55428 12.4537 4.67934 12.4537 4.69323C12.4537 4.71176 12.3657 4.72565 12.2593 4.72565C11.7593 4.73028 10.7824 4.91554 10.0509 5.14712C9.64352 5.27681 9.61111 5.28144 9.5324 5.20733C9.48148 5.16565 9.44444 5.07302 9.44444 5.00818C9.44444 4.7627 9.59259 4.61912 10.1667 4.30881C10.9907 3.85955 11.2731 3.78081 11.625 3.8966ZM39.6111 4.18839C39.9907 4.37365 40.3611 4.59134 40.4305 4.67007C40.5833 4.83218 40.6204 5.10081 40.5 5.2166C40.4352 5.28144 40.3796 5.27218 39.9074 5.12397C39.2824 4.92481 38.5602 4.78123 38 4.73954C37.7778 4.72565 37.5926 4.69786 37.5926 4.67934C37.5926 4.66081 37.6574 4.54965 37.7361 4.42923C37.9815 4.0587 38.3333 3.85028 38.7083 3.84565C38.8843 3.84565 39.0509 3.90586 39.6111 4.18839ZM38.1435 5.12397C38.1481 5.1286 38.1018 5.29997 38.037 5.49912C37.8518 6.05491 37.6898 6.82376 37.6343 7.40734C37.5926 7.88439 37.5046 8.19933 37.4213 8.19933C37.3241 8.19933 37.5694 5.71681 37.713 5.27218C37.7315 5.21196 37.713 5.18881 37.6481 5.18881C37.5 5.18881 37.4028 5.35091 37.3611 5.66586C37.3009 6.15681 37.2454 6.21702 36.6204 6.45786C36.0509 6.67555 35.5648 6.93954 35.4491 7.10165C35.3935 7.16649 35.3657 7.23596 35.3796 7.24986C35.3889 7.26375 35.7963 7.09702 36.2731 6.87933C36.7546 6.66165 37.162 6.48565 37.1852 6.48565C37.2037 6.48565 37.2222 6.51807 37.2222 6.55512C37.2222 6.68481 37.0139 6.84228 36.7315 6.92565C36.3333 7.04144 35.9213 7.23597 35.7315 7.4027C35.5417 7.57407 35.4213 7.58797 35.3009 7.45828C35.1806 7.3286 35.2222 7.1387 35.5556 6.26796C35.8657 5.45744 36.0463 5.17491 36.3102 5.10081C36.4398 5.06376 38.0972 5.08691 38.1435 5.12397ZM13.9583 5.23512C14.125 5.38797 14.2083 5.56397 14.5046 6.35597C14.8009 7.14797 14.838 7.28228 14.7731 7.40734C14.6806 7.57407 14.5509 7.57407 14.287 7.39807C13.9352 7.16186 13.5324 6.96733 13.213 6.87933C12.9259 6.79596 12.7778 6.6987 12.7778 6.59218C12.7778 6.51344 12.8009 6.51344 13.1528 6.62923C13.5231 6.74965 14.125 7.02291 14.3981 7.18965C14.5648 7.29155 14.6111 7.30081 14.6204 7.24523C14.6667 7.04607 14.1713 6.72649 13.3796 6.4486C13.162 6.36986 12.9491 6.29576 12.9028 6.27723C12.787 6.23091 12.7037 6.04102 12.662 5.7446C12.6435 5.60565 12.6018 5.43428 12.5648 5.36944C12.4954 5.23512 12.3704 5.11933 12.3333 5.15639C12.3194 5.17028 12.3518 5.47133 12.4028 5.82333C12.6111 7.18039 12.6898 8.24565 12.5926 8.24565C12.5139 8.24565 12.4676 8.06965 12.412 7.55091C12.338 6.89323 12.1991 6.25407 12.0093 5.66123C11.9259 5.38797 11.8518 5.14712 11.8518 5.1286C11.8518 5.11007 12.2963 5.09618 12.8426 5.10544C13.8287 5.11933 13.838 5.11933 13.9583 5.23512ZM11.5602 5.32776C11.7037 5.41112 11.8056 5.61955 11.7407 5.68439C11.7037 5.72607 11.1898 5.59176 10.8981 5.4667C10.5972 5.33239 10.6991 5.25365 11.1806 5.23976C11.338 5.23512 11.463 5.26291 11.5602 5.32776ZM39.2778 5.32776C39.3657 5.36018 39.3518 5.37407 39.1574 5.45744C38.7639 5.62881 38.2407 5.75849 38.2407 5.67976C38.2407 5.60102 38.3935 5.32312 38.4583 5.28144C38.5463 5.23049 39.1018 5.25828 39.2778 5.32776ZM11.0926 5.75386C11.713 5.97154 12.0463 6.15218 11.912 6.19386C11.8796 6.20776 11.6713 6.15218 11.4444 6.07344C11.0509 5.94376 10.1528 5.7446 9.94444 5.7446C9.84722 5.7446 9.84722 5.7446 9.93518 5.84186C10.0556 5.97618 10.1667 6.01323 10.713 6.09197C11.4676 6.20776 11.8241 6.4347 12.0648 6.97197C12.1991 7.26839 12.2407 7.49996 12.2037 7.7547C12.1574 8.04649 12.0139 8.18081 11.7083 8.22249C10.8333 8.34291 9.01852 9.06081 8.10185 9.65828C6.64815 10.5985 5.93518 12.0111 6.15278 13.521C6.29166 14.452 6.56944 15.1838 7.29166 16.5084L7.51389 16.9206L7.31018 16.8002C5.79166 15.897 4.54166 14.0398 3.63889 11.3395C3.42592 10.705 3.36574 10.3252 3.38889 9.80649C3.40278 9.44986 3.43055 9.32944 3.54629 9.07933C3.69444 8.76902 3.99074 8.43091 4.22222 8.31049C4.29166 8.27344 4.68055 8.15765 5.0787 8.05576C6.89352 7.58797 7.61574 7.26839 8.59722 6.49491C9.07407 6.11975 9.2037 6.05028 9.49537 6.00397C9.62963 5.98081 9.66666 5.94839 9.71759 5.81407C9.85185 5.44355 10.1713 5.42965 11.0926 5.75386ZM40.1111 5.57323C40.1991 5.61491 40.2685 5.68902 40.3009 5.79091C40.3472 5.92523 40.3843 5.95765 40.5694 6.00397C40.838 6.07344 41.0648 6.20312 41.6204 6.61997C42.4213 7.22207 43.4398 7.6667 44.9907 8.08818C45.8333 8.31512 45.9305 8.35681 46.1481 8.57449C46.8055 9.22291 46.8009 10.1724 46.1343 12.025C45.5278 13.7016 44.8009 14.929 43.8426 15.8878C43.412 16.3231 42.5648 16.9854 42.5093 16.9345C42.5 16.9206 42.625 16.6659 42.787 16.3648C43.1111 15.7673 43.287 15.3922 43.5417 14.753C43.8009 14.1046 43.8935 13.7294 43.9213 13.2014C43.9537 12.5947 43.8472 12.1269 43.5463 11.5109C42.8009 10.001 41.4213 9.08397 38.7268 8.31512C38.2268 8.17155 37.9583 8.07428 37.9074 8.00944C37.6389 7.68986 37.8565 6.82376 38.2917 6.48102C38.5324 6.29112 38.7222 6.22165 39.2917 6.11049C39.7593 6.02249 40.0972 5.89744 40.162 5.79091C40.1759 5.76776 40.162 5.7446 40.125 5.7446C39.9954 5.7446 39.037 5.93449 38.625 6.04102C38.3889 6.10123 38.1944 6.13365 38.1944 6.11512C38.1944 6.05954 38.9954 5.70754 39.2824 5.63344C39.8102 5.50375 39.9259 5.49449 40.1111 5.57323ZM13.4259 7.21744C13.7454 7.34249 14.0463 7.45828 14.0926 7.47681C14.2361 7.52775 14.1204 7.59723 13.7917 7.64355C13.625 7.67134 13.3611 7.75933 13.1852 7.84733L12.8704 8.00481V7.67597C12.8704 7.4907 12.8518 7.26376 12.8287 7.16649C12.8056 7.07386 12.8009 6.99512 12.8194 6.99512C12.8333 6.99512 13.1065 7.09702 13.4259 7.21744ZM37.1898 7.46754C37.1759 7.73154 37.1574 7.94923 37.1528 7.95849C37.1481 7.96312 37.0139 7.90754 36.8518 7.83344C36.6898 7.7547 36.4074 7.67134 36.2176 7.63891C35.9259 7.5926 35.8843 7.57407 35.9352 7.51849C35.9907 7.46755 37.0787 7.01365 37.1852 6.99975C37.2037 6.99512 37.2037 7.20818 37.1898 7.46754ZM2.32407 8.2827C2.85185 8.53744 3.10185 8.68565 3.125 8.75049C3.13889 8.80144 3.11574 8.96354 3.07407 9.11175C2.95833 9.49154 2.97222 10.2604 3.10185 10.8625C3.69907 13.6183 5.33333 15.9989 7.76852 17.6709C8.31481 18.0461 8.48148 18.2221 8.56481 18.5231C8.68055 18.9446 8.56481 19.9126 8.35648 20.2692C8.14352 20.6305 7.75463 20.7046 7.36111 20.4591C6.86574 20.1534 5.24537 18.625 4.30555 17.5736C2.99074 16.1054 2.37037 15.1884 1.90741 14.012C1.64815 13.3589 1.18981 11.9787 1.02315 11.3488C0.736109 10.2604 0.657405 9.22291 0.805553 8.4587C0.949072 7.72691 1.13889 7.70376 2.32407 8.2827ZM48.9861 7.92144C49.0324 7.94923 49.1204 8.06039 49.1713 8.16691C49.2639 8.33828 49.2731 8.43091 49.2685 8.9867C49.2361 11.7703 48.2268 14.4798 46.3426 16.8372C45.5787 17.7867 43.2917 20.0469 42.7268 20.4082C42.3287 20.6583 41.9213 20.6444 41.6944 20.3758C41.5926 20.2553 41.5741 20.1905 41.5741 19.9219C41.5741 19.7505 41.5324 19.4031 41.4815 19.1576C41.3241 18.4027 41.3889 18.273 42.1852 17.7311C44.5185 16.1518 46.1435 13.873 46.8102 11.2562C47.037 10.3484 47.0648 9.74628 46.9167 8.89407C46.8981 8.77365 46.9074 8.70881 46.9583 8.67176C46.9954 8.63933 47.375 8.44944 47.8055 8.24565C48.5833 7.87512 48.7917 7.81955 48.9861 7.92144ZM14.5648 8.03723C14.7037 8.1206 14.8426 8.26881 15.0231 8.5467C15.3611 9.05155 15.4398 9.26923 15.5093 9.86207C15.537 10.1307 15.6157 10.5475 15.6806 10.7884C15.8796 11.5248 15.9074 11.4553 15.1898 11.9694C14.5741 12.4141 14.5741 12.4187 14.6018 12.2659C14.6157 12.1825 14.6435 11.8398 14.6574 11.5109C14.6944 10.7884 14.5833 10.0334 14.3518 9.40354C14.2731 9.18586 14.1481 8.84313 14.0741 8.63934C14 8.43555 13.9352 8.21323 13.9352 8.14376C13.9352 7.90291 14.2454 7.85197 14.5648 8.03723ZM36.0046 8.0326L36.1343 8.14376L36.0509 8.3707C35.5926 9.57491 35.4583 10.0936 35.3657 10.9968C35.3148 11.5294 35.3611 12.0343 35.4907 12.3631C35.6481 12.7661 35.7268 12.5113 35.6528 11.8212C35.5602 10.9459 35.7315 9.95007 36.1574 8.8246C36.4259 8.1206 36.4306 8.11134 36.5972 8.15765C36.6759 8.18081 36.7963 8.24565 36.875 8.31049L37.0093 8.41702L36.7731 8.92186C36.3333 9.8667 36.1759 10.5244 36.2176 11.284C36.2361 11.6499 36.2222 11.8027 36.162 11.9787C36.0556 12.2936 35.8056 12.6456 35.6898 12.6456C35.6111 12.6456 34.2963 11.6869 34.1991 11.5572C34.1528 11.497 34.1713 11.3812 34.3241 10.8162C34.3935 10.5614 34.4722 10.1029 34.5046 9.79723L34.5648 9.23681L34.8518 8.76902C35.3426 7.97702 35.6852 7.7547 36.0046 8.0326ZM3.64815 8.06039C3.81481 8.06039 3.84722 8.07428 3.83333 8.13913C3.81481 8.24565 3.625 8.33828 3.43055 8.33828C3.34722 8.33828 3.15278 8.2827 3 8.21323C2.66203 8.06502 2.71759 8.00018 3.14815 8.0326C3.31481 8.04649 3.53703 8.06039 3.64815 8.06039ZM47.1759 8.11133C47.1759 8.13449 47.0787 8.19934 46.963 8.25491C46.6759 8.37997 46.3796 8.35218 46.213 8.18081L46.088 8.06039H46.6343C46.9815 8.06039 47.1759 8.07891 47.1759 8.11133ZM13.9259 9.00986C14.2639 10.0149 14.3333 10.2835 14.3935 10.793C14.4398 11.2052 14.3704 12.5854 14.3009 12.6642C14.2593 12.7105 13.9861 12.289 13.8704 11.9972C13.8009 11.8259 13.7917 11.7147 13.8194 11.3673C13.875 10.6078 13.6852 9.7926 13.2407 8.91723L13.0093 8.45407L13.1481 8.33365C13.2963 8.2086 13.5648 8.10207 13.6157 8.14839C13.6296 8.16228 13.7731 8.55134 13.9259 9.00986ZM38.6343 8.69491C40.1481 9.13491 42.2685 10.1168 42.2685 10.3808C42.2685 10.4549 42.1481 10.4271 41.8796 10.2835C41.5324 10.0936 41.3009 10.0427 39.9167 9.82038C39.2685 9.71386 38.7037 9.60733 38.6528 9.57491C38.6065 9.54712 38.4907 9.38038 38.4028 9.20902C38.3055 9.02838 38.162 8.83849 38.0555 8.75513C37.8472 8.59302 37.8102 8.4726 37.9768 8.50965C38.0324 8.52355 38.3287 8.60691 38.6343 8.69491ZM11.75 9.01912C11.5046 9.37112 11.3565 9.54249 11.2407 9.6027C11.1481 9.64902 10.8287 9.71386 10.4861 9.75091C9.6574 9.84817 9.05555 9.97786 8.33796 10.2187C8 10.3345 7.71296 10.4179 7.69907 10.4086C7.6574 10.3623 8.08796 10.0473 8.42129 9.87596C8.94907 9.6027 9.87037 9.19976 10.4167 9.00986C10.9444 8.8246 11.9306 8.52818 12.0278 8.52355C12.0648 8.52355 11.9352 8.74586 11.75 9.01912ZM12.6944 9.14881C13.0463 9.84354 13.4306 11.0107 13.3611 11.1913C13.3333 11.2608 13.3194 11.2608 13.2222 11.1682C13.0278 10.9875 12.8287 10.5475 12.7593 10.1631C12.7176 9.93154 12.625 9.64902 12.5046 9.40817C12.2963 8.97744 12.2917 8.95891 12.3657 8.76902C12.4213 8.61618 12.4213 8.62081 12.6944 9.14881ZM37.6204 8.76439C37.6852 8.86628 37.6389 9.11175 37.5093 9.36186C37.4352 9.50081 37.338 9.76017 37.2963 9.93617C37.1157 10.6402 37.0324 10.8856 36.9167 11.02C36.7639 11.2006 36.6667 11.2052 36.6667 11.0339C36.6667 10.7745 36.9907 9.83891 37.3472 9.06544C37.5139 8.70881 37.5556 8.66249 37.6204 8.76439ZM12.2407 9.4267C12.3704 9.75554 12.3889 9.8667 12.3102 9.8667C12.2268 9.8667 11.9954 9.60733 11.963 9.47765C11.9306 9.34797 12.0046 9.12565 12.0787 9.12565C12.1018 9.12565 12.1759 9.25996 12.2407 9.4267ZM38.0555 9.48228C38.0555 9.59807 38.0185 9.65828 37.9028 9.74628C37.8148 9.81575 37.713 9.8667 37.6713 9.8667C37.6065 9.8667 37.6065 9.84354 37.6898 9.64439C37.7407 9.52396 37.8148 9.3526 37.8518 9.2646L37.9213 9.10249L37.9861 9.21828C38.0231 9.28312 38.0509 9.39891 38.0555 9.48228ZM16.3102 10.3484C16.5324 10.6865 16.713 10.9875 16.713 11.0061C16.713 11.0292 16.5972 11.1033 16.4583 11.1728L16.2083 11.2979L16.0694 10.8671C15.9954 10.6309 15.9167 10.3252 15.9028 10.1863C15.8889 10.0473 15.8657 9.88986 15.8518 9.82965C15.8426 9.77407 15.8472 9.72775 15.8657 9.72775C15.8889 9.72775 16.0833 10.0056 16.3102 10.3484ZM25.9768 9.82038C30.0278 10.1353 33.8287 11.8536 36.625 14.6372C38.9537 16.953 40.5509 20.0145 41.1991 23.4002C41.375 24.3265 41.4444 25.0259 41.4676 26.2023C41.4954 27.4435 41.4537 28.1105 41.2917 29.1572C40.5278 34.0343 37.3287 38.5362 32.8565 41.0372C30.8565 42.1534 28.7454 42.8019 26.4259 43.0149C25.713 43.0844 23.7315 43.052 23.0324 42.964C19.6157 42.5425 16.412 41.1576 13.963 39.0456C12.6806 37.9387 11.6018 36.665 10.7361 35.2431C8.13426 30.9496 7.50926 25.7067 9.05092 21.1353C10.125 17.9627 12.213 15.1374 15.0556 13.0115C16.6111 11.849 18.4676 10.9227 20.2917 10.3947C22.0556 9.88523 24.1157 9.67681 25.9768 9.82038ZM34.1065 10.1122C34.0833 10.4549 33.9213 11.0894 33.8333 11.196C33.7083 11.3534 33.2546 11.1635 33.3241 10.9829C33.3611 10.8856 34.088 9.77407 34.1157 9.77407C34.125 9.77407 34.1204 9.92691 34.1065 10.1122ZM12.7824 11.1682C13.25 11.812 13.6806 12.4187 13.7407 12.5252C13.912 12.8402 13.8843 12.9513 13.5556 13.2431C12.9259 13.7943 11.6204 15.1513 11.2315 15.6562C10.412 16.7214 9.68518 17.921 9.18055 19.0465C9.03703 19.3707 8.9074 19.6254 8.89814 19.6162C8.85185 19.5745 8.88889 19.1623 8.95833 18.9353C9.09259 18.4722 9.06944 18.3934 8.64352 17.8423C7.77314 16.7261 7.17129 15.6099 6.76389 14.3501C6.40278 13.2339 6.43518 12.2798 6.85185 11.6267C7.25463 10.9968 7.98611 10.617 9.24074 10.3762C9.98611 10.2372 11.4722 10.0149 11.7176 10.0103L11.9306 10.0056L12.7824 11.1682ZM39.6528 10.1863C41.1481 10.4132 41.5185 10.5059 42.1111 10.7976C43.0463 11.2562 43.5185 11.9648 43.5185 12.905C43.5185 14.1278 42.6574 16.1795 41.5093 17.6894C41.0417 18.3008 41.0185 18.3425 41.0185 18.5741C41.0185 18.6991 41.0602 18.977 41.1157 19.1993C41.2083 19.6069 41.2176 19.8339 41.1343 19.82C41.1111 19.82 41.0509 19.7181 41.0046 19.6023C40.8333 19.1623 40.2315 17.9812 39.9074 17.4393C39.0417 16.0082 37.9306 14.6419 36.7778 13.6044C36.4583 13.3219 36.1898 13.0347 36.1713 12.9791C36.1157 12.7568 36.2639 12.5021 37.1111 11.3442C37.5833 10.6958 38.0046 10.1307 38.0417 10.0844C38.1435 9.97323 38.2824 9.98249 39.6528 10.1863ZM14.7778 40.5324C14.9213 40.6296 15.0741 40.7593 15.1111 40.8149C15.2268 40.977 15.1991 41.3105 15.0417 41.7366C14.8287 42.3155 14.8426 42.5193 15.1435 43.4873C15.2176 43.7282 15.2917 44.0524 15.3056 44.2099C15.3565 44.7101 15.1296 45.3446 14.7824 45.6781L14.6157 45.8309L14.6481 45.7012C14.7176 45.4187 14.7593 44.9046 14.7407 44.6591C14.6944 44.1126 14.6991 44.1126 14.3333 44.8212C14.1481 45.1825 13.9167 45.5808 13.8194 45.7059C13.6018 45.993 13.2685 46.2524 12.963 46.3682C12.7222 46.4608 12.3148 46.4886 12.3148 46.4145C12.3148 46.3913 12.375 46.2292 12.4491 46.0579C12.787 45.2612 13.125 44.0014 13.1806 43.353C13.2268 42.8065 12.963 42.436 12.5648 42.4823L12.4074 42.5008L12.5093 42.3341C12.8426 41.7737 13.2963 40.9307 13.5463 40.3981L13.838 39.7821L14.1759 40.0692C14.3611 40.2267 14.6343 40.4351 14.7778 40.5324ZM36.4167 40.2823C36.6343 40.764 37.1991 41.8014 37.4861 42.2646C37.5694 42.3897 37.625 42.5054 37.6111 42.524C37.6018 42.5425 37.5185 42.5379 37.4259 42.5193C37.1296 42.4499 36.912 42.6073 36.8518 42.9223C36.75 43.4827 37.1343 45.1038 37.6157 46.1366C37.6759 46.2709 37.7176 46.396 37.7037 46.4191C37.6667 46.4793 37.2963 46.4608 37.088 46.3867C36.5555 46.2014 36.1481 45.7383 35.6944 44.812C35.3981 44.2052 35.375 44.1728 35.338 44.3025C35.2917 44.4785 35.2917 45.2983 35.338 45.5993L35.3704 45.8309L35.2083 45.6457C35.1204 45.5438 34.9768 45.3261 34.8935 45.1593C34.7546 44.8814 34.7454 44.8259 34.7454 44.3951C34.75 44.0153 34.7731 43.8532 34.8843 43.492C35.0093 43.089 35.0231 42.9964 35.0231 42.4035C35.0185 41.8014 35.0093 41.7227 34.875 41.3383C34.7963 41.1113 34.7454 40.8983 34.7546 40.8612C34.7824 40.801 36.1018 39.7867 36.1574 39.7867C36.1759 39.7867 36.2917 40.009 36.4167 40.2823ZM34.4398 41.5606C34.6204 42.3758 34.6111 42.8297 34.3935 43.6448C34.3102 43.9412 34.2824 43.9922 34.2315 43.9505C34.1528 43.8857 34.1481 43.5985 34.2176 43.1446C34.3009 42.5564 34.2824 42.1164 34.1481 41.7598C34.0833 41.5884 34.0278 41.4031 34.0278 41.3614C34.0278 41.2688 34.2454 41.0697 34.3056 41.1067C34.3287 41.1206 34.3889 41.3244 34.4398 41.5606ZM15.8472 41.2364L15.9768 41.3383L15.8843 41.6857C15.7407 42.1951 15.7176 42.6861 15.8056 43.2326C15.8657 43.5892 15.8704 43.7282 15.8287 43.8486C15.8009 43.932 15.7593 44.0014 15.7361 44.0014C15.713 44.0014 15.6944 43.9875 15.6944 43.9737C15.6944 43.9598 15.6296 43.6587 15.5463 43.3113C15.375 42.5749 15.3657 42.2739 15.5 41.8941C15.5509 41.7412 15.6111 41.505 15.6296 41.3707C15.6435 41.2364 15.6713 41.1299 15.6898 41.1299C15.7037 41.1299 15.7778 41.1762 15.8472 41.2364ZM33.8796 41.7042C33.912 41.8061 33.963 42.0469 33.9861 42.2368C34.0509 42.6814 33.9907 43.492 33.8935 43.492C33.8518 43.492 33.0093 42.0886 32.9768 41.9728C32.9583 41.8987 33.0231 41.8431 33.2963 41.6903C33.7083 41.4587 33.8009 41.4633 33.8796 41.7042ZM16.6667 41.7227C16.9768 41.8755 17.0139 41.908 17 42.0099C16.9815 42.1303 16.1574 43.5337 16.1018 43.5383C16.0509 43.5383 16.0046 42.9501 16.0278 42.5286C16.0509 42.0932 16.1852 41.5467 16.2685 41.5467C16.2963 41.5513 16.4768 41.6301 16.6667 41.7227ZM12.7731 42.8621C12.9907 43.1214 12.8704 43.8949 12.3796 45.4048C12.1528 46.0949 12.0509 46.2385 11.8565 46.132C11.7639 46.0857 11.7639 46.081 11.8796 45.817C12.2546 44.9926 12.5463 43.7791 12.4444 43.4827C12.3889 43.3252 12.25 43.3113 12.0972 43.4549C12.037 43.5105 11.9768 43.5429 11.963 43.5244C11.9259 43.492 12.0139 43.2326 12.1111 43.0844C12.2639 42.8482 12.6528 42.7185 12.7731 42.8621ZM37.6389 42.8991C37.7824 42.9732 37.8796 43.0659 37.9537 43.2048C38.088 43.441 38.0694 43.5337 37.9213 43.404C37.7917 43.2882 37.7731 43.2882 37.662 43.3669C37.588 43.4271 37.5833 43.4827 37.6065 43.9366C37.6389 44.5341 37.7407 44.9185 38.0324 45.5206C38.1481 45.7614 38.2407 45.9838 38.2407 46.0162C38.2407 46.1227 38.1204 46.1829 37.9954 46.1366C37.9074 46.1042 37.8518 46.0115 37.7639 45.7753C37.2963 44.5109 37.037 43.2697 37.1759 42.9362C37.2454 42.7648 37.3565 42.7555 37.6389 42.8991ZM38.2268 43.8486C38.2407 43.8949 38.3611 44.0755 38.4954 44.2562C38.8148 44.6777 38.875 44.8768 38.7963 45.2612C38.713 45.7059 38.5926 45.8078 38.5556 45.465C38.5417 45.3492 38.4259 45.0297 38.2917 44.7564C38.1157 44.3812 38.0555 44.2006 38.0555 44.0431C38.0555 43.9273 38.0694 43.8162 38.088 43.8023C38.1389 43.7467 38.1944 43.7652 38.2268 43.8486ZM36.2315 46.1181C36.3657 46.2524 36.5741 46.4099 36.6898 46.4608C36.8935 46.5534 36.9028 46.5627 36.8287 46.6414C36.6296 46.8591 36.1481 46.836 35.9213 46.5905C35.7778 46.4377 35.6204 45.905 35.5741 45.4372L35.5463 45.1362L35.7685 45.5021C35.8889 45.7012 36.0972 45.9791 36.2315 46.1181ZM14.3981 45.8217C14.3657 46.0393 14.2963 46.2478 14.1898 46.433C13.963 46.8406 13.75 46.9147 13.3565 46.7294C13.2407 46.6739 13.1389 46.6137 13.125 46.5998C13.1157 46.5812 13.1898 46.5303 13.287 46.484C13.5509 46.3682 13.9213 46.0069 14.1898 45.6086C14.3889 45.3075 14.4213 45.2751 14.4352 45.3724C14.4444 45.4372 14.4259 45.6364 14.3981 45.8217Z" fill="black"/>
<path d="M23.6111 11.0293C22.9491 11.0802 21.8056 11.2655 21.1852 11.423C16.1898 12.6874 12.0417 16.5455 10.3241 21.5245C9.48612 23.9514 9.31482 26.7489 9.8426 29.3657C10.5232 32.7514 12.2639 35.8082 14.7083 37.9202C16.8704 39.7914 19.2361 40.9447 22.037 41.4958C23.2593 41.7367 23.9306 41.7922 25.412 41.7645C26.75 41.7413 27.0833 41.7089 28.1482 41.4958C30.1296 41.0975 32.375 40.0786 34.0463 38.8141C36.1389 37.2348 37.713 35.3451 38.8426 33.0478C39.6296 31.4499 40.0324 30.079 40.2639 28.2402C40.3565 27.4899 40.3657 25.7207 40.287 24.9889C39.8704 21.3299 38.3796 18.0693 36 15.6192C32.8843 12.4141 28.2176 10.6866 23.6111 11.0293ZM26.2083 11.6731C28.088 11.8584 29.7917 12.34 31.4583 13.1506C33.1389 13.9704 34.2824 14.7901 35.537 16.087C37.6806 18.2962 39.0648 21.2651 39.5185 24.6184C39.6204 25.3779 39.6343 27.2537 39.5417 27.9994C39.0695 31.9085 37.162 35.308 34.0417 37.7998C33.25 38.4297 32.537 38.8929 31.6065 39.3699C30.1435 40.1202 28.8287 40.5371 27.037 40.8104C26.125 40.9539 24.0509 40.9632 23.125 40.8335C19.1667 40.287 15.9352 38.4668 13.4907 35.4146C12.9907 34.7893 12.5324 34.0946 12.6389 34.1224C12.7222 34.1455 12.7315 34.1224 12.7315 33.8769C12.7315 33.4693 12.7639 33.3952 12.9306 33.3952C13.1667 33.3952 13.287 33.548 13.287 33.863C13.287 34.1594 13.3704 34.2845 13.5 34.1779C13.6389 34.0621 13.4907 33.3535 13.3056 33.2424C13.2083 33.1868 13.2269 33.071 13.3796 32.8162C13.4537 32.6866 13.5185 32.5245 13.5185 32.4504V32.3114L13.3565 32.4689C13.2639 32.5569 13.1389 32.7375 13.0695 32.8718C12.9445 33.1266 12.8796 33.1636 12.7593 33.0432C12.7037 32.9876 12.6898 32.9181 12.713 32.7282C12.7361 32.5384 12.7269 32.4781 12.662 32.4226C12.5232 32.3068 12.4954 32.455 12.5093 33.2655C12.5185 33.687 12.5185 34.0344 12.5185 34.0297C12.2824 33.7287 11.5695 32.3207 11.2778 31.5796C10.088 28.5552 9.9676 24.9704 10.9583 21.8857C12.1806 18.0739 15.0046 14.8179 18.6343 13.0394C20.162 12.2891 21.6945 11.8537 23.3796 11.6777C23.9445 11.6221 25.6482 11.6175 26.2083 11.6731Z" fill="black"/>
<path d="M22.6204 12.3677C22.3148 12.7151 22.2037 13.03 22.2037 13.5719C22.2037 14.0629 22.25 14.2065 22.5833 14.7252C22.8981 15.2069 22.8981 15.4616 22.5926 15.7395C22.3704 15.9387 22.3565 16.0776 22.5231 16.4342C22.75 16.9159 22.7361 17.1938 22.4769 17.3003C22.3009 17.3745 22.2407 17.5041 22.3148 17.6431C22.375 17.7635 22.5046 17.833 22.6574 17.833H22.7778L22.6435 18.0182C22.5694 18.1201 22.4815 18.31 22.4537 18.4397C22.3796 18.7454 22.4167 19.2456 22.5231 19.454L22.6111 19.6161L22.6759 19.4401C22.713 19.3475 22.7546 19.2688 22.7731 19.2688C22.787 19.2688 22.8704 19.454 22.9583 19.6763C23.2037 20.3109 23.6667 21.2603 23.7269 21.2603C23.7917 21.2603 24.1204 20.913 24.1204 20.8435C24.1204 20.7092 24.2361 20.8342 24.3657 21.1075C24.4954 21.39 24.5139 21.4688 24.5139 21.8486C24.5139 22.1079 24.5324 22.2793 24.5602 22.2793C24.6528 22.2793 25.0787 21.9597 25.3519 21.6865C25.5046 21.529 25.7083 21.2696 25.8056 21.1029C25.9028 20.9315 25.9907 20.7972 25.9954 20.7972C26 20.7972 26.1019 20.913 26.2176 21.0566L26.4306 21.3113L26.5417 21.1353C26.7731 20.7648 27.162 19.9079 27.3519 19.3382L27.3981 19.1993L27.4861 19.4031C27.5556 19.5606 27.5833 19.5883 27.6204 19.542C27.7222 19.417 27.7778 19.1576 27.7778 18.8334C27.7778 18.5648 27.7546 18.449 27.6435 18.222C27.5694 18.0646 27.4861 17.921 27.4583 17.9071C27.3565 17.8422 27.412 17.7867 27.5694 17.7867C27.7269 17.7867 27.963 17.7033 27.963 17.6477C27.963 17.6338 27.8889 17.5458 27.7963 17.4578C27.5741 17.2448 27.5 17.0919 27.5 16.8372C27.5 16.6612 27.5231 16.5963 27.6343 16.4852C27.713 16.4111 27.7824 16.3092 27.8009 16.2629C27.838 16.1471 27.7315 15.9201 27.5185 15.6561C27.3704 15.4709 27.3519 15.4292 27.3704 15.2393C27.3843 15.0865 27.4491 14.9429 27.588 14.7345C27.8657 14.3269 27.963 14.0814 27.9954 13.7201C28.037 13.2107 27.8519 12.6595 27.5231 12.3075C27.4583 12.238 27.3889 12.1825 27.3704 12.1825C27.3519 12.1825 27.338 12.377 27.3333 12.6132C27.3287 13.1227 27.2176 13.4191 26.963 13.5719C26.5833 13.8081 26.3333 13.7757 26.0185 13.4515C25.6944 13.1227 25.5093 13.0393 25.0694 13.0393C24.6204 13.0393 24.4074 13.1366 24.1481 13.4515C23.9491 13.697 23.7454 13.7757 23.4861 13.7016C23.0417 13.5812 22.8519 13.2385 22.8472 12.5622C22.8472 12.3307 22.8426 12.1361 22.838 12.1361C22.838 12.1361 22.7361 12.2427 22.6204 12.3677ZM27.75 13.5256C27.7454 13.9841 27.6343 14.3361 27.3935 14.6094L27.2454 14.7854L27.0741 14.4843C26.9769 14.3222 26.8981 14.1601 26.8981 14.1277C26.8981 14.0953 26.9815 13.9749 27.088 13.8637C27.3056 13.6275 27.4769 13.2662 27.5278 12.942L27.5602 12.7151L27.6574 12.9235C27.7269 13.081 27.75 13.2246 27.75 13.5256ZM22.7083 13.0902C22.7685 13.4098 22.8472 13.5766 23.0741 13.8452C23.2639 14.0721 23.2778 14.1972 23.1528 14.4473C23.0185 14.7113 22.9352 14.7622 22.8241 14.6603C22.6343 14.489 22.4491 14.0212 22.4213 13.6553C22.3935 13.2801 22.5046 12.7614 22.6065 12.7985C22.6343 12.8077 22.6806 12.9374 22.7083 13.0902ZM25.3426 13.3079C25.4352 13.4376 25.4398 13.4839 25.4259 14.6279C25.4167 15.281 25.3889 15.8368 25.3657 15.8599C25.3009 15.9294 24.8796 15.9155 24.7917 15.8414C24.7269 15.7858 24.7176 15.6422 24.7315 14.5631C24.7454 13.4376 24.75 13.345 24.8333 13.2523C24.9676 13.1088 25.213 13.1366 25.3426 13.3079ZM24.4583 15.846C24.4074 15.8923 23.1435 15.758 23.0741 15.6978C23 15.6376 23.1065 15.2208 23.3102 14.7993C23.5139 14.3778 23.8241 14.0027 24.1806 13.7294L24.4676 13.5163L24.4815 14.665C24.4861 15.2949 24.4769 15.8275 24.4583 15.846ZM26.0648 13.7618C26.3935 14.0351 26.7037 14.4334 26.8981 14.841C27.0324 15.1281 27.1944 15.6561 27.1574 15.6932C27.1019 15.7441 26.7269 15.7997 26.2407 15.8275L25.6944 15.8553V14.6928C25.6944 13.9888 25.713 13.5256 25.7361 13.5256C25.7639 13.5256 25.912 13.6321 26.0648 13.7618ZM27.5231 16.0313C27.5694 16.1656 27.5185 16.3185 27.412 16.3833C27.2315 16.4945 26.0139 16.55 24.4213 16.5176C23.0463 16.4898 22.8843 16.4806 22.7778 16.4018C22.6435 16.3046 22.6065 16.1471 22.6944 16.0406C22.7593 15.9618 23.0093 15.9665 24.0046 16.0776C24.6157 16.1425 26.3565 16.1008 26.9444 16.0081C27.4907 15.9201 27.4907 15.9201 27.5231 16.0313ZM27.2269 16.9576C27.2546 17.1197 27.3056 17.3003 27.3426 17.3559C27.4306 17.4949 27.4259 17.5088 27.2824 17.5088C26.9769 17.5134 26.9769 17.6662 27.2731 18.2591C27.4444 18.6018 27.5046 18.8519 27.412 18.8519C27.3519 18.8519 27.037 18.4675 26.7407 18.0229C26.4676 17.6107 26.4444 17.5551 26.5463 17.5551C26.7454 17.5551 27.0046 17.1753 27.0602 16.8001C27.1065 16.513 27.1667 16.5732 27.2269 16.9576ZM23.2546 17.217C23.338 17.3745 23.5417 17.5551 23.6389 17.5551C23.6759 17.5551 23.7037 17.569 23.7037 17.5875C23.6991 17.7172 22.8657 18.8427 22.7685 18.8473C22.6759 18.8566 22.7454 18.5509 22.8981 18.2637C23.1944 17.7126 23.1944 17.5088 22.912 17.5088C22.7917 17.5088 22.7731 17.4949 22.8009 17.4254C22.8194 17.3837 22.8889 17.1846 22.9583 16.9854L23.0787 16.6288L23.1296 16.8465C23.1574 16.9715 23.213 17.1336 23.2546 17.217ZM23.5417 16.814C23.7361 17.1243 24.1019 17.1753 24.3889 16.9298C24.6204 16.7353 24.7083 16.7909 24.5324 17.0178C24.2407 17.3883 23.6759 17.3513 23.4259 16.9437C23.3287 16.7816 23.3056 16.6288 23.3796 16.6288C23.4028 16.6288 23.4769 16.7121 23.5417 16.814ZM26.4815 16.7214C26.4815 16.8094 26.2963 16.953 26.1852 16.953C26.125 16.953 26.0278 16.9113 25.9676 16.865L25.8565 16.777L25.9722 16.7492C26.037 16.7353 26.1713 16.7168 26.2731 16.7075C26.375 16.6982 26.463 16.689 26.4722 16.6843C26.4769 16.6797 26.4815 16.6936 26.4815 16.7214ZM26.8519 16.7307C26.8519 16.7631 26.8102 16.8603 26.7593 16.9437C26.5093 17.3513 25.9444 17.3883 25.6528 17.0178C25.463 16.777 25.5741 16.7399 25.8519 16.953C26.1343 17.166 26.338 17.1475 26.5833 16.8835C26.787 16.6705 26.8519 16.6334 26.8519 16.7307ZM24.2269 16.7631C24.3009 16.7909 24.3056 16.8048 24.25 16.8465C24.0926 16.9808 23.7685 16.9391 23.713 16.777C23.6944 16.7168 24.0787 16.7029 24.2269 16.7631ZM25.2315 16.8603C25.2824 16.9113 25.3241 16.9715 25.3241 16.9947C25.3241 17.0132 25.3843 17.1105 25.4583 17.2031C25.6481 17.4393 25.5602 17.6477 25.2361 17.7403C25.0972 17.7774 25.037 17.7681 24.8657 17.6801C24.5463 17.5227 24.537 17.481 24.7824 17.1012C24.9028 16.9159 25.0278 16.7677 25.0694 16.7677C25.1065 16.7677 25.1806 16.8094 25.2315 16.8603ZM24.5972 17.8283C24.8704 18.0136 24.9537 18.1201 24.9861 18.3147L25.0139 18.4814H24.8148C24.4398 18.4814 24.1806 18.6852 24.125 19.0187C24.1111 19.1067 24.0787 19.1808 24.0509 19.1854C23.9722 19.19 23.7361 18.662 23.713 18.4258C23.6898 18.1572 23.7593 17.9627 23.9444 17.8098C24.1296 17.6523 24.3519 17.657 24.5972 17.8283ZM26.2685 17.8515C26.537 18.1248 26.5463 18.4907 26.2917 18.9399L26.1481 19.19L26.0231 18.9399C25.9259 18.7408 25.8611 18.6667 25.6944 18.5833C25.5833 18.5277 25.4213 18.4814 25.338 18.4814C25.1991 18.4814 25.1852 18.4675 25.1852 18.3425C25.1852 18.2545 25.2361 18.1479 25.3333 18.0368C25.6759 17.6477 26 17.5875 26.2685 17.8515ZM23.5046 18.6759C23.537 18.7871 23.6481 19.0187 23.7593 19.1993C23.9537 19.5189 23.9583 19.5281 23.9583 19.9403C23.9537 20.3711 23.8704 20.774 23.7963 20.7277C23.7731 20.7138 23.7222 20.5934 23.6806 20.4637C23.6435 20.3387 23.5185 20.0839 23.4028 19.9033C23.2222 19.6208 23.1944 19.542 23.1944 19.329C23.1944 19.0974 23.3611 18.4814 23.4213 18.4814C23.4398 18.4814 23.4769 18.5694 23.5046 18.6759ZM26.875 18.6759C27.0556 19.1113 27 19.5235 26.6944 20.0561C26.5833 20.246 26.463 20.4869 26.4306 20.5888L26.375 20.774L26.3056 20.6119C26.2685 20.5239 26.2269 20.2785 26.213 20.07L26.1944 19.6902L26.463 19.1113C26.6157 18.7917 26.7546 18.5277 26.7731 18.5277C26.7917 18.5277 26.838 18.5972 26.875 18.6759ZM25.5278 18.8241C25.8287 18.9492 25.9537 19.5189 25.8148 20.121C25.6852 20.6675 25.1435 21.5846 24.9537 21.5846C24.8611 21.5846 24.8611 21.5799 24.9352 21.4086C25.1157 21.0102 25.1806 20.7555 25.1852 20.4915C25.1898 19.7736 24.9074 19.7366 24.7917 20.4406C24.7731 20.5471 24.7407 20.6119 24.7083 20.598C24.6759 20.5888 24.5787 20.4406 24.4907 20.2646C24.3472 19.9867 24.3287 19.9079 24.3287 19.5976C24.3287 19.1483 24.4398 18.9029 24.6759 18.8195C24.8981 18.7454 25.3426 18.7454 25.5278 18.8241Z" fill="black"/>
<path d="M13.7176 20.89C13.287 20.9502 12.7778 21.103 12.1806 21.3578C11.5417 21.6264 11.375 21.7236 11.2685 21.8858C11.1898 22.0015 11.1944 22.0154 11.2963 22.2239C11.3981 22.4276 11.4074 22.5203 11.4398 23.4836C11.4583 24.058 11.4769 25.29 11.4769 26.2209C11.4815 28.1338 11.463 28.2912 11.1759 28.5599L11.0231 28.7081L11.4352 28.7405C12.3565 28.8146 13.7361 28.6386 14.8148 28.319C15.8657 28.0041 16.4028 27.4668 16.6019 26.5405C16.8194 25.5169 16.3102 24.2942 15.3287 23.5068C15.1759 23.3771 15.0463 23.2428 15.0463 23.2011C15.0463 23.09 15.2222 22.951 15.6019 22.7796C16.162 22.5203 16.3241 22.2702 16.1574 21.9321C16.037 21.7005 15.9028 21.543 15.625 21.33C15.1389 20.9594 14.4167 20.7927 13.7176 20.89ZM14.6065 21.6495C14.9028 21.7746 15.0463 22.1775 14.8796 22.4138C14.838 22.474 14.4815 22.7565 14.0926 23.0483C13.5972 23.4188 13.3704 23.6133 13.3519 23.6967C13.3333 23.7615 13.3287 23.8171 13.338 23.8264C13.3472 23.831 13.5463 23.9375 13.7731 24.0626C15.0463 24.7481 15.6389 25.3733 15.7917 26.1931C15.8333 26.4201 15.8241 26.5034 15.7454 26.7721C15.5 27.578 14.6574 28.0458 13.2593 28.143C12.6204 28.1893 12.6713 28.458 12.6991 25.3039C12.713 23.4003 12.7361 22.6175 12.7778 22.4786C12.9259 21.9784 13.5278 21.594 14.1806 21.5893C14.3287 21.5847 14.5185 21.6125 14.6065 21.6495Z" fill="black"/>
<path d="M19.5648 22.7378C19.3704 22.8351 19.0741 23.0157 18.9028 23.1408C18.5417 23.3955 17.8935 24.0254 17.7083 24.3079C17.6389 24.4145 17.5648 24.4886 17.5463 24.4793C17.5232 24.4654 17.4954 24.3265 17.4769 24.1644C17.4398 23.8031 17.537 23.3075 17.7176 22.9694C17.787 22.8305 17.8519 22.7054 17.8611 22.6822C17.8704 22.6637 17.625 22.6498 17.3194 22.6498C17.0093 22.6498 16.7593 22.6591 16.7593 22.673C16.7593 22.6822 16.8194 22.7888 16.8935 22.9046C17.1065 23.238 17.1482 23.5947 17.1204 24.8035C17.0787 26.4801 17.1759 27.3416 17.4954 28.1382C17.6482 28.5227 17.9769 29.0553 18.1482 29.2035L18.2546 29.2961L18.2222 29.0924C18.2037 28.9812 18.1019 28.6709 17.9907 28.3976C17.75 27.8187 17.6852 27.5084 17.6852 26.934C17.6852 25.7206 18.3657 24.6182 19.4537 24.0578C19.625 23.9698 19.8148 23.9004 19.8796 23.9004C20.1157 23.9004 20.1157 23.8911 20.1019 26.1189C20.0926 27.3046 20.0694 28.2448 20.0417 28.3328C20.0139 28.4115 19.9213 28.5319 19.8333 28.6014C19.75 28.6662 19.6759 28.7404 19.6759 28.7681C19.6759 28.8145 20.8009 28.8284 20.8472 28.782C20.8657 28.7635 20.8241 28.6894 20.7639 28.6153C20.5509 28.3652 20.5417 28.2494 20.5232 26.1791C20.5 23.9745 20.5139 23.8124 20.7639 23.5345L20.9213 23.3631L20.8056 23.1547C20.5833 22.7702 20.3194 22.5572 20.0509 22.5572C19.9769 22.5572 19.7546 22.6406 19.5648 22.7378Z" fill="black"/>
<path d="M28.9769 22.7101C28.3333 23.0436 27.7361 23.516 27.3287 24.0116C27.2083 24.1598 27.0602 24.3404 27 24.4053L26.8982 24.5257L26.9074 23.8031C26.9213 23.0158 26.9398 22.9556 27.213 22.8213C27.4815 22.6916 27.2917 22.6175 26.662 22.6082C26.4398 22.6082 26.1945 22.6175 26.1157 22.6314L25.9722 22.6638L26.1482 22.8537C26.4815 23.2149 26.5046 23.34 26.4352 24.4794C26.3241 26.3088 26.4815 27.4714 26.9676 28.4394C27.1574 28.8191 27.5324 29.3333 27.5926 29.2962C27.6806 29.2406 27.6343 29.06 27.412 28.6015C27.0972 27.9669 27.0185 27.652 27.0185 27.0036C27.0185 26.5728 27.037 26.4061 27.125 26.1236C27.4167 25.1695 28.0509 24.4191 28.912 24.0023C29.4306 23.7476 29.375 23.5114 29.3889 26.0541C29.3982 27.6427 29.3843 28.3143 29.3472 28.4069C29.3195 28.4764 29.2315 28.569 29.162 28.6107C28.9491 28.7404 29 28.796 29.3565 28.8284C29.7546 28.8655 30.2778 28.8191 30.2778 28.745C30.2778 28.7173 30.2083 28.6385 30.1204 28.569C29.8704 28.3699 29.8565 28.2217 29.8704 25.8874C29.8843 23.9745 29.8889 23.817 29.9722 23.6966C30.0185 23.6225 30.0972 23.553 30.1435 23.5438C30.2917 23.5021 30.2546 23.252 30.0695 23.0065C29.713 22.5387 29.4398 22.4646 28.9769 22.7101Z" fill="black"/>
<path d="M21.7037 22.6405C21.5046 22.6498 21.3426 22.6683 21.3426 22.6915C21.3426 22.71 21.3935 22.7748 21.4583 22.8351C21.5231 22.8953 21.5926 23.0203 21.6204 23.1083C21.6852 23.3492 21.6806 27.9483 21.6157 28.2633C21.5787 28.43 21.5139 28.5551 21.412 28.6569C21.2963 28.7727 21.2778 28.8098 21.3333 28.8329C21.463 28.8839 22.3843 28.9163 22.6991 28.8839L23.0093 28.8468L22.8981 28.7125C22.6898 28.4671 22.6713 28.3142 22.6528 26.8414C22.6389 25.5769 22.6435 25.438 22.7176 25.2898C22.8194 25.0906 22.9907 25.0489 23.3333 25.1369C23.7083 25.2296 24.0185 25.4195 24.3565 25.7529C25.1296 26.5125 25.3056 27.6056 24.8148 28.5782C24.7361 28.7357 24.6019 28.9395 24.5139 29.0367C24.3287 29.2405 24.3194 29.2729 24.4352 29.2729C24.6991 29.2729 25.2824 28.7033 25.537 28.1984C26.0231 27.2351 25.9074 26.1976 25.2315 25.3454C24.9954 25.0536 24.4907 24.6831 24.162 24.5673C23.9074 24.4746 23.8333 24.3866 23.875 24.2338C23.8889 24.1782 24.2824 23.7984 24.75 23.3862C25.2176 22.9786 25.6019 22.6313 25.6019 22.6174C25.6019 22.5896 23.7917 22.6498 23.7407 22.6776C23.7269 22.6868 23.7824 22.7656 23.8704 22.8536C23.963 22.9462 24.0278 23.0574 24.0278 23.1222C24.0278 23.4418 23.287 24.206 22.8426 24.3357C22.7083 24.3774 22.6806 24.294 22.6528 23.7984C22.6296 23.4279 22.6343 23.3723 22.75 23.1407C22.8241 22.9925 22.9352 22.8489 23.0185 22.7934L23.1667 22.7007L23.0556 22.6776C22.8981 22.6452 22.1343 22.622 21.7037 22.6405Z" fill="black"/>
<path d="M30.7731 22.6451L30.5463 22.6729L30.6898 22.8072C30.7685 22.8813 30.8704 23.0388 30.912 23.1546C31.0046 23.3954 31.0139 24.0022 30.9583 26.1929C30.9028 28.2447 30.8796 28.4068 30.6204 28.6477C30.5509 28.7125 30.5093 28.782 30.5278 28.8005C30.5741 28.8468 32.3009 28.8422 32.3472 28.7959C32.3657 28.7727 32.338 28.7218 32.2824 28.6801C32.2269 28.6384 32.1296 28.4948 32.0741 28.3698C31.9676 28.1428 31.9676 28.1104 31.9676 26.5125C31.9676 24.9748 31.9722 24.8776 32.0556 24.7849C32.1389 24.6969 32.1898 24.6877 32.8102 24.6877C33.4167 24.6877 33.4815 24.6969 33.5694 24.7849C33.662 24.8776 33.662 24.9146 33.6481 26.531C33.6343 28.0224 33.625 28.203 33.5463 28.3837C33.5 28.4902 33.412 28.6199 33.3472 28.6708L33.2315 28.7588L33.3657 28.7959C33.5741 28.8561 34.8704 28.8376 34.9769 28.7773C35.0278 28.7449 35.0417 28.7171 35.0139 28.7171C34.9815 28.7171 34.9074 28.6291 34.8519 28.518C34.7593 28.342 34.75 28.2401 34.7315 27.5361C34.7269 27.1007 34.7361 25.9336 34.7546 24.9424C34.7917 23.1361 34.7917 23.1314 34.912 22.8952L35.0278 22.659L34.213 22.6405C33.7685 22.6312 33.3935 22.6266 33.3843 22.6359C33.375 22.6405 33.4259 22.7794 33.4954 22.9369C33.6759 23.3306 33.713 23.9142 33.5787 24.0809C33.4769 24.206 33.1481 24.2662 32.4954 24.2662C32.1944 24.2708 32.1296 24.2569 32.0556 24.1736C31.8889 23.9883 31.9769 23.1639 32.2037 22.8026C32.2407 22.747 32.25 22.6914 32.2315 22.6822C32.1713 22.6405 31 22.6127 30.7731 22.6451Z" fill="black"/>
<path d="M36.373 22.6381C35.5999 22.6566 35.2573 22.6844 35.2202 22.7215C35.1878 22.7539 35.1693 22.7863 35.1832 22.791C35.1925 22.8002 35.2619 22.8373 35.3406 22.8743C35.535 22.9762 35.6739 23.2032 35.7017 23.4857C35.7202 23.62 35.7156 24.7409 35.6925 25.9775C35.6554 28.3905 35.6508 28.4276 35.4008 28.6962L35.3082 28.7935L35.5304 28.8305C35.7526 28.863 37.1091 28.8305 37.1508 28.7889C37.16 28.7796 37.1091 28.7055 37.035 28.6221C36.961 28.5434 36.8637 28.3766 36.8221 28.2562C36.7017 27.9135 36.6554 26.9038 36.6693 25.1299C36.6832 23.6246 36.6878 23.4857 36.7712 23.3236C36.961 22.967 37.4934 22.8697 37.9702 23.1059C38.0813 23.1615 38.3869 23.407 38.6508 23.6524C38.9147 23.8933 39.1415 24.0693 39.1508 24.0415C39.1786 23.9489 38.5767 22.7539 38.461 22.6752C38.3406 22.5918 38.4054 22.5918 36.373 22.6381Z" fill="black"/>
<path d="M15.8796 30.1207C15.7917 30.1531 15.713 30.2133 15.7037 30.255C15.6898 30.3337 16.1667 30.3384 25.25 30.3384C31.3472 30.3384 34.8519 30.3199 34.9259 30.2921C35.0741 30.2365 35.0787 30.1763 34.9444 30.1253C34.8843 30.1022 30.6111 30.079 25.4398 30.0744C18.213 30.0651 16.0046 30.079 15.8796 30.1207Z" fill="black"/>
<path d="M11.8657 30.5883L11.7361 30.6995L11.7454 31.3155C11.7546 31.9407 11.7917 32.0704 11.9213 31.9593C11.9769 31.913 11.9907 31.7972 11.9907 31.4174C11.9907 30.8616 12.0278 30.7551 12.2222 30.7551H12.3611V31.2738C12.3611 31.561 12.375 31.8435 12.3889 31.8991C12.4259 32.0426 12.537 32.0334 12.5926 31.8852C12.6528 31.7277 12.6528 30.8986 12.588 30.718C12.5 30.4679 12.0926 30.3938 11.8657 30.5883Z" fill="black"/>
<path d="M13.0417 30.5699C12.8843 30.6949 12.8241 30.996 12.8241 31.6768C12.8241 32.1956 12.8796 32.5151 12.9676 32.5151C13.0139 32.5151 13.1018 32.2141 13.1018 32.0427C13.1018 31.9269 13.1111 31.9223 13.2593 31.9455C13.4583 31.9779 13.5787 31.9084 13.6759 31.7046C13.7778 31.4916 13.7824 30.9543 13.6852 30.7598C13.537 30.4772 13.2639 30.3985 13.0417 30.5699ZM13.4861 31.1396C13.5278 31.5332 13.4676 31.7278 13.2963 31.7278C13.1435 31.7278 13.1018 31.6259 13.1018 31.26C13.1018 30.8663 13.1667 30.7366 13.3518 30.7644C13.4352 30.7783 13.4537 30.82 13.4861 31.1396Z" fill="black"/>
<path d="M14.0787 30.5977C13.8842 30.8431 13.8425 31.5379 14.0092 31.7602C14.2222 32.0473 14.4999 32.0659 14.6944 31.8065C14.8101 31.649 14.8564 31.084 14.7685 30.8246C14.662 30.505 14.2592 30.3707 14.0787 30.5977ZM14.5185 30.8756C14.5694 30.9497 14.5972 31.0932 14.6018 31.2739C14.6064 31.5101 14.5925 31.5657 14.4953 31.6398C14.3842 31.7324 14.2361 31.7556 14.1944 31.6861C14.1805 31.6629 14.1527 31.5008 14.1388 31.3202C14.1111 31.0516 14.1203 30.9682 14.1851 30.8709C14.2824 30.7227 14.4212 30.7227 14.5185 30.8756Z" fill="black"/>
<path d="M15.0278 30.5097C15.0139 30.5283 15 30.7645 15 31.0424C15 31.5843 15.0463 31.751 15.2407 31.8853C15.3472 31.964 15.588 31.9826 15.6759 31.9224C15.7963 31.8436 15.8333 31.663 15.8333 31.1628C15.8333 30.7784 15.8148 30.607 15.7685 30.5422C15.7315 30.4958 15.6898 30.468 15.6713 30.4819C15.6574 30.5005 15.6343 30.7691 15.625 31.0794C15.6111 31.3897 15.5926 31.663 15.5787 31.6862C15.5324 31.7603 15.3889 31.7325 15.2963 31.6306C15.2222 31.5472 15.2083 31.4546 15.2037 31.084C15.2037 30.8386 15.1991 30.6163 15.1944 30.5885C15.1852 30.5236 15.0694 30.4727 15.0278 30.5097Z" fill="black"/>
<path d="M35.463 30.7967L35.412 31.1116L35.2639 31.0838C35.1343 31.0561 35.1157 31.0329 35.1019 30.8939C35.0833 30.6299 35.0463 30.5234 34.9815 30.5234C34.8796 30.5234 34.8611 30.6346 34.8611 31.3154C34.8611 31.8573 34.875 31.9685 34.9306 31.9916C35.037 32.0287 35.0463 32.0055 35.1019 31.6396C35.1389 31.3849 35.1667 31.3108 35.2269 31.3108C35.4074 31.3154 35.5185 31.5285 35.4769 31.7971C35.4491 31.9546 35.4583 31.9685 35.5602 31.9499C35.6713 31.9361 35.6713 31.9314 35.6852 31.3108C35.6991 30.6299 35.6806 30.4771 35.5833 30.4771C35.537 30.4771 35.5 30.579 35.463 30.7967Z" fill="black"/>
<path d="M35.9537 30.6485C35.9074 30.9542 35.9259 31.4915 35.9907 31.649C36.1204 31.9639 36.5278 32.0704 36.7083 31.8389C36.7963 31.7277 36.8055 31.6536 36.8055 31.1488C36.8055 30.6902 36.7917 30.5698 36.7315 30.5189C36.6713 30.4725 36.6528 30.4725 36.6157 30.5281C36.5741 30.5976 36.5509 30.9218 36.5694 31.2738C36.5926 31.649 36.4676 31.8157 36.2917 31.6536C36.2176 31.5888 36.2037 31.5054 36.2037 31.1441C36.2037 30.9079 36.1852 30.6624 36.1574 30.5976C36.0926 30.4216 35.9907 30.4494 35.9537 30.6485Z" fill="black"/>
<path d="M37.2407 30.5236C37 30.6209 36.9213 30.9498 37.0648 31.2323C37.1389 31.3666 37.1343 31.3944 37.0602 31.6121C36.9213 32.0243 36.9815 32.0613 37.2454 31.7371C37.375 31.5843 37.5093 31.4592 37.5463 31.4639C37.5926 31.4685 37.625 31.5472 37.6389 31.7047C37.6574 31.8668 37.6852 31.9409 37.7361 31.9502C37.8333 31.9687 37.8704 31.7881 37.8704 31.3388C37.8704 30.9544 37.8102 30.7089 37.6944 30.6024C37.588 30.5051 37.3704 30.4681 37.2407 30.5236ZM37.5741 30.871C37.6389 30.9683 37.6435 31.0146 37.6018 31.1026C37.5046 31.311 37.2222 31.186 37.2222 30.9359C37.2222 30.7274 37.4537 30.6858 37.5741 30.871Z" fill="black"/>
<path d="M16.2269 30.579C16.037 30.6809 15.9722 30.843 16.0602 30.982C16.0972 31.0375 16.1296 31.019 16.2315 30.8986C16.3935 30.7041 16.5509 30.7133 16.5509 30.9171C16.5509 31.0422 16.5324 31.0607 16.3889 31.0792C16.2639 31.0978 16.2269 31.1255 16.2269 31.195C16.2269 31.2645 16.2639 31.2923 16.3657 31.3015C16.5463 31.3247 16.6204 31.3895 16.6204 31.5239C16.6204 31.7508 16.3241 31.7601 16.1667 31.5331C16.088 31.422 16.0232 31.4636 16.0509 31.6119C16.088 31.7879 16.287 31.9592 16.4583 31.9592C16.5741 31.9592 16.6435 31.9222 16.7361 31.811C16.8472 31.6813 16.8565 31.6396 16.8287 31.4498C16.8102 31.334 16.8009 31.1209 16.8056 30.9773C16.8102 30.7689 16.7917 30.6948 16.7176 30.6207C16.6111 30.5142 16.3796 30.4956 16.2269 30.579Z" fill="black"/>
<path d="M17.2361 30.5931C17.0741 30.7042 17.0231 30.9497 17.0556 31.3943C17.1018 31.9408 17.125 31.9733 17.4398 31.9501C17.625 31.9316 17.7222 31.8992 17.8056 31.8158C17.9167 31.7046 17.9167 31.6907 17.8889 31.2183C17.8611 30.8015 17.8426 30.7227 17.75 30.6301C17.625 30.5051 17.3843 30.4865 17.2361 30.5931ZM17.588 30.82C17.662 30.9126 17.5741 31.0794 17.4537 31.0794C17.3333 31.0794 17.2454 30.9126 17.3194 30.82C17.3472 30.783 17.4074 30.7552 17.4537 30.7552C17.5 30.7552 17.5602 30.783 17.588 30.82ZM17.6435 31.4082C17.7176 31.5472 17.6296 31.7278 17.4861 31.7278C17.1806 31.7278 17.2037 31.3156 17.5093 31.311C17.5556 31.311 17.6111 31.3573 17.6435 31.4082Z" fill="black"/>
<path d="M18.2361 30.6115C18.1343 30.6903 18.125 30.7412 18.1111 31.1581C18.1018 31.524 18.1157 31.6444 18.1806 31.7741C18.2546 31.9176 18.287 31.9362 18.4676 31.9501C18.6343 31.964 18.6898 31.9454 18.8009 31.8389C19.0185 31.6305 19.0926 31.1859 18.963 30.8755C18.8287 30.556 18.4676 30.4263 18.2361 30.6115ZM18.6944 30.8339C18.7731 30.9867 18.8056 31.3572 18.75 31.5193C18.713 31.6305 18.662 31.6907 18.5787 31.7092C18.4213 31.7509 18.3472 31.649 18.3102 31.3387C18.2685 31.0145 18.3704 30.7551 18.537 30.7551C18.6018 30.7551 18.6713 30.7922 18.6944 30.8339Z" fill="black"/>
<path d="M19.3981 30.6162C19.2593 30.7551 19.213 30.908 19.213 31.2322C19.213 31.4406 19.1806 31.5888 19.0972 31.7648C18.963 32.0566 18.9537 32.1353 19.0556 32.177C19.1019 32.1955 19.1667 32.1585 19.2269 32.0797C19.4167 31.8482 19.9213 31.8806 19.9815 32.1261C20.0139 32.2557 20.0741 32.2696 20.1343 32.1538C20.162 32.1029 20.1481 31.9686 20.088 31.7509C20.0417 31.5703 20.0046 31.26 20.0046 31.0515C20 30.7505 19.9815 30.6625 19.9167 30.6023C19.7963 30.4911 19.5139 30.5004 19.3981 30.6162ZM19.8056 31.1905C19.8194 31.6444 19.787 31.7277 19.5787 31.7277H19.4444V31.3433C19.4444 31.0145 19.4583 30.9404 19.5417 30.8524C19.5926 30.7968 19.6713 30.7551 19.713 30.7644C19.7778 30.7783 19.7963 30.8524 19.8056 31.1905Z" fill="black"/>
<path d="M20.5139 30.5837C20.2963 30.6949 20.2083 30.8755 20.2083 31.209C20.213 31.5841 20.3102 31.7925 20.5278 31.8991C20.8009 32.0287 21.1111 31.862 21.1111 31.5887C21.1111 31.4174 20.9722 31.3942 20.9028 31.5517C20.8426 31.686 20.6667 31.7138 20.5509 31.6073C20.4213 31.4915 20.4259 30.9774 20.5556 30.8477C20.6806 30.7226 20.7222 30.7319 20.8889 30.894C20.963 30.9681 21.0324 31.033 21.0417 31.033C21.088 31.033 21.1018 30.8755 21.0602 30.7551C20.9815 30.5327 20.7546 30.4586 20.5139 30.5837Z" fill="black"/>
<path d="M21.2593 30.5559C21.1296 30.5791 21.1482 30.6671 21.2963 30.7412C21.463 30.8246 21.4815 30.8894 21.4537 31.334C21.4259 31.7694 21.4722 32.0056 21.5926 32.0056C21.6806 32.0056 21.713 31.7972 21.713 31.2368C21.713 30.8709 21.7269 30.7551 21.7732 30.7551C21.8472 30.7551 22.0232 30.63 21.9907 30.6022C21.9537 30.5652 21.3796 30.5281 21.2593 30.5559Z" fill="black"/>
<path d="M22.2685 30.6485C22.088 30.8106 22.0324 31.0514 22.0694 31.4683C22.1019 31.8295 22.1898 31.9592 22.3981 31.9592C22.6111 31.9592 22.8657 31.8666 22.9167 31.7693C22.9722 31.6721 22.9398 31.0885 22.8657 30.7921C22.7917 30.5003 22.5093 30.4308 22.2685 30.6485ZM22.662 30.806C22.7269 30.9032 22.6389 31.0792 22.5324 31.0792C22.3519 31.0792 22.2917 31.0098 22.3519 30.8754C22.4074 30.7504 22.6019 30.7041 22.662 30.806ZM22.7222 31.5053C22.713 31.6211 22.6806 31.6674 22.5787 31.6999C22.4259 31.7554 22.375 31.7138 22.3333 31.5053L22.3056 31.3571H22.5185C22.7361 31.3571 22.7361 31.3571 22.7222 31.5053Z" fill="black"/>
<path d="M23.3981 30.5744C23.2269 30.6624 23.1481 30.8615 23.1481 31.2135C23.1481 31.7508 23.2824 31.9592 23.6296 31.9592C23.8241 31.9592 23.9815 31.7879 23.9815 31.5748V31.4312L23.8472 31.5609C23.6944 31.7091 23.4167 31.7184 23.3889 31.5794C23.375 31.4961 23.3935 31.4822 23.7407 31.3571C23.9028 31.2923 24.0278 31.107 24.0278 30.9218C24.0278 30.6578 23.6481 30.4493 23.3981 30.5744ZM23.7222 30.843C23.787 30.9125 23.7917 30.9542 23.7546 31.0283C23.6991 31.1302 23.5093 31.1996 23.4306 31.1487C23.3565 31.107 23.3704 30.9125 23.4537 30.8291C23.5509 30.7319 23.625 30.7365 23.7222 30.843Z" fill="black"/>
<path d="M24.8843 30.5838C24.8704 30.6116 24.8426 30.732 24.8241 30.8478C24.7917 31.047 24.7824 31.0562 24.6296 31.0562C24.4676 31.0562 24.4676 31.0516 24.4444 30.8246C24.4167 30.5421 24.2917 30.4726 24.2407 30.7135C24.1852 30.996 24.2083 31.8436 24.2731 31.9362C24.375 32.0705 24.4444 31.9733 24.4444 31.7093C24.4444 31.4406 24.5463 31.2878 24.7083 31.3202C24.7731 31.3341 24.7963 31.399 24.8241 31.6305C24.8611 31.9548 24.9167 32.0613 25.0139 31.9686C25.0741 31.9038 25.1204 30.9914 25.0741 30.732C25.0417 30.5745 24.9213 30.4819 24.8843 30.5838Z" fill="black"/>
<path d="M26.5509 30.6393C26.4861 30.6995 26.4352 30.806 26.4352 30.8708V30.9913L26.6065 30.8708C26.8148 30.7319 26.8611 30.7273 26.9676 30.8477C27.037 30.9218 27.037 30.9496 26.9907 31.0098C26.9583 31.0468 26.8935 31.0793 26.8426 31.0793C26.4583 31.0793 26.2361 31.5934 26.5093 31.8435C26.6481 31.9732 26.912 31.9963 27.0463 31.8944C27.3426 31.6721 27.338 30.7319 27.0463 30.5744C26.8843 30.4864 26.6713 30.5142 26.5509 30.6393ZM26.9491 31.3572C26.9954 31.385 27.037 31.4405 27.037 31.4822C27.037 31.5748 26.9074 31.7277 26.8241 31.7277C26.7454 31.7277 26.6204 31.598 26.6204 31.5193C26.6204 31.4452 26.7454 31.3108 26.8102 31.3108C26.838 31.3108 26.8981 31.334 26.9491 31.3572Z" fill="black"/>
<path d="M27.5463 30.6394C27.4491 30.7413 27.4444 30.7783 27.4768 30.996C27.537 31.3758 27.5231 31.663 27.4398 31.7926C27.3426 31.9408 27.3426 31.9594 27.4444 31.9594C27.5463 31.9594 27.6898 31.8112 27.7963 31.5981C27.912 31.3712 28.0278 31.4175 28.0602 31.6954C28.0833 31.9038 28.1667 32.0288 28.25 31.9779C28.3194 31.9316 28.2917 30.8987 28.2176 30.7552C28.0833 30.4958 27.7361 30.4356 27.5463 30.6394ZM27.9676 30.8015C28.0648 30.8571 28.0926 31.1442 28.0046 31.1952C27.9167 31.2554 27.7268 31.172 27.6852 31.0516C27.5972 30.8293 27.7546 30.6903 27.9676 30.8015Z" fill="black"/>
<path d="M29.7963 30.6393C29.7222 30.7134 29.6111 30.857 29.5509 30.9496C29.4074 31.1626 29.3333 31.1302 29.3657 30.8708C29.3935 30.6763 29.3472 30.5698 29.2268 30.5698C29.1343 30.5698 29.1389 31.8805 29.2361 31.9593C29.338 32.0426 29.3981 31.9732 29.3981 31.7786C29.3981 31.5054 29.4491 31.3108 29.5185 31.3108C29.6528 31.3108 29.7685 31.4915 29.7685 31.6999C29.7685 31.9037 29.8565 32.0426 29.9537 31.9824C30.0324 31.9361 30.0046 31.5332 29.9074 31.3155C29.7963 31.0746 29.7917 31.0237 29.8889 30.8431C29.9259 30.7643 29.9537 30.6578 29.9444 30.6022C29.9306 30.505 29.9259 30.505 29.7963 30.6393Z" fill="black"/>
<path d="M30.3241 30.6532C30.1481 30.8338 30.0787 31.0932 30.1389 31.3989C30.1944 31.6906 30.2407 31.7833 30.3981 31.9083C30.5648 32.038 30.7454 32.0334 30.8843 31.8852C30.9815 31.7833 30.9954 31.7184 31.0093 31.2923C31.0278 30.8338 31.0231 30.8153 30.9028 30.6717C30.7361 30.4725 30.5139 30.4679 30.3241 30.6532ZM30.7176 30.8199C30.7824 30.8662 30.8102 30.9542 30.8194 31.1765C30.8426 31.5517 30.7685 31.7045 30.5787 31.7045H30.4398L30.4259 31.2923C30.4167 31.0654 30.4213 30.8523 30.4352 30.8153C30.4676 30.7365 30.6065 30.7365 30.7176 30.8199Z" fill="black"/>
<path d="M32.8704 30.5514C32.713 30.6162 32.6852 30.7227 32.6898 31.2832C32.6898 31.8667 32.7176 32.0242 32.8056 31.9686C32.9306 31.8899 32.963 31.7278 32.9352 31.3434C32.9074 30.9867 32.912 30.945 33.0046 30.8524C33.0556 30.8015 33.1389 30.7552 33.1898 30.7552C33.2685 30.7552 33.2778 30.8061 33.2963 31.3341C33.3194 31.9547 33.375 32.1076 33.5 31.9408C33.588 31.8158 33.5926 30.7644 33.5 30.6394C33.4398 30.5514 33.0185 30.4958 32.8704 30.5514Z" fill="black"/>
<path d="M33.9259 30.5929C33.8241 30.6485 33.7963 30.6995 33.7963 30.8245C33.7963 30.9125 33.8102 30.9866 33.8241 30.9866C33.838 30.9866 33.912 30.9357 33.9907 30.8708C34.1481 30.7365 34.2222 30.7272 34.3287 30.8291C34.4352 30.9403 34.3981 31.0422 34.2361 31.0607C33.8241 31.1024 33.6018 31.5378 33.8611 31.7971C34.1852 32.1214 34.5787 31.9361 34.6574 31.422C34.7454 30.8152 34.3426 30.3567 33.9259 30.5929ZM34.3565 31.4312C34.4306 31.6397 34.1898 31.8249 34.037 31.6721C33.9583 31.5934 33.9676 31.4683 34.0556 31.3849C34.1667 31.2738 34.3009 31.2923 34.3565 31.4312Z" fill="black"/>
<path d="M25.3565 30.5977C25.3102 30.6486 25.3194 31.9501 25.3657 31.9825C25.463 32.0381 25.5555 31.8574 25.5555 31.6073C25.5555 31.3804 25.5648 31.3572 25.6759 31.3294C25.8518 31.2831 25.9444 31.4036 25.9722 31.7185C25.9907 31.9223 26.0139 31.9871 26.0787 31.9964C26.1528 32.0103 26.1574 31.964 26.1481 31.3017C26.1342 30.6301 26.1296 30.593 26.0417 30.593C25.9676 30.593 25.9537 30.6208 25.963 30.7412C25.9815 30.9172 25.8333 31.0932 25.6805 31.0701C25.5972 31.0608 25.5741 31.0191 25.5555 30.8246C25.5417 30.6671 25.5092 30.5884 25.463 30.5791C25.4213 30.5745 25.375 30.5791 25.3565 30.5977Z" fill="black"/>
<path d="M31.2778 30.9729C31.2361 31.4962 31.2454 31.9501 31.2963 31.9826C31.4213 32.0613 31.4769 31.8992 31.4907 31.4592L31.5046 31.0099L31.6065 31.172C31.8194 31.5148 31.8935 31.5287 32.0417 31.2647C32.1019 31.1628 32.162 31.0794 32.1852 31.0794C32.2037 31.0794 32.2222 31.2647 32.2222 31.4916C32.2222 31.7788 32.2407 31.9177 32.2824 31.9548C32.3194 31.9826 32.3611 31.9918 32.375 31.9733C32.3935 31.9594 32.4074 31.6445 32.4074 31.2786C32.4074 30.6718 32.4028 30.6162 32.3241 30.6162C32.213 30.6162 32.0046 30.8339 31.9398 31.0238C31.8796 31.2045 31.838 31.1859 31.6898 30.8988C31.5833 30.6857 31.5046 30.6162 31.3704 30.6162C31.3287 30.6162 31.3009 30.732 31.2778 30.9729Z" fill="black"/>
<path d="M27.5463 32.4503C27.5185 32.5152 27.5 32.8116 27.5 33.108C27.5 33.5341 27.5185 33.6916 27.588 33.8398C27.8241 34.3632 28.4444 34.3632 28.5417 33.8444C28.5972 33.5573 28.5509 32.4828 28.4815 32.4133C28.4306 32.3623 28.4074 32.367 28.3519 32.4411C28.3009 32.5105 28.287 32.6912 28.287 33.1868C28.287 33.8908 28.2685 33.951 28.0463 33.951C27.838 33.951 27.7917 33.8166 27.7639 33.1404C27.7361 32.5244 27.7083 32.3299 27.6343 32.3299C27.6111 32.3299 27.5694 32.3855 27.5463 32.4503Z" fill="black"/>
<path d="M14.0741 32.4085C13.9352 32.4641 13.7963 32.6262 13.7685 32.7744C13.7222 33.0291 13.7917 33.0523 13.9815 32.8438C14.1713 32.6401 14.2731 32.6123 14.4352 32.7281C14.5046 32.779 14.537 32.8438 14.537 32.9596V33.1171H14.3102C13.7824 33.1171 13.5324 33.6914 13.8981 34.0758C14.1157 34.3074 14.5509 34.2333 14.7083 33.9415C14.7963 33.7748 14.8241 33.1958 14.7546 32.8855C14.7037 32.6401 14.5 32.4224 14.3055 32.3992C14.2176 32.3899 14.1111 32.3899 14.0741 32.4085ZM14.4491 33.395C14.5093 33.4274 14.537 33.4923 14.537 33.5988C14.537 33.8026 14.4074 33.9601 14.2361 33.9601C13.9722 33.9601 13.8843 33.6173 14.1018 33.4459C14.2407 33.3394 14.3148 33.3255 14.4491 33.395Z" fill="black"/>
<path d="M15.8102 32.4317C15.8009 32.4641 15.7732 32.6772 15.7546 32.9088C15.7222 33.2978 15.7083 33.3256 15.6111 33.3395C15.3519 33.3766 15.1389 33.0709 15.1389 32.654C15.1389 32.4549 15.125 32.4225 15.0463 32.4225C14.9676 32.4225 14.9537 32.4549 14.9491 32.617C14.9444 32.7281 14.9491 32.8671 14.9491 32.9319C14.9769 33.3117 15.2083 33.5804 15.5093 33.5804C15.6065 33.5804 15.6991 33.5989 15.713 33.622C15.7315 33.6452 15.7546 33.7934 15.7732 33.9509C15.7963 34.2056 15.8102 34.2334 15.8982 34.2195C15.9907 34.2056 15.9954 34.1778 16.0093 33.4507C16.0139 33.0385 16.0046 32.6309 15.9815 32.5521C15.9444 32.3947 15.8472 32.3298 15.8102 32.4317Z" fill="black"/>
<path d="M16.6389 32.4179C16.5093 32.4735 16.3611 32.668 16.2917 32.8718C16.2176 33.0941 16.2639 33.7518 16.3611 33.9463C16.5972 34.3956 17.3148 34.2381 17.3148 33.7379C17.3148 33.5341 17.2037 33.5295 17.1019 33.7287C17.0093 33.9139 16.9583 33.951 16.8009 33.951C16.6389 33.951 16.5185 33.8074 16.537 33.6407C16.5509 33.5249 16.5741 33.5063 16.7593 33.4878C17.0278 33.4554 17.1574 33.3767 17.2685 33.196C17.412 32.9598 17.3657 32.7051 17.1389 32.5013C17.0324 32.404 16.7731 32.3623 16.6389 32.4179ZM16.9815 32.7282C17.1065 32.8162 17.1157 33.0247 17.0046 33.1266C16.6806 33.4091 16.3611 33.108 16.625 32.7746C16.7315 32.6356 16.8333 32.6217 16.9815 32.7282Z" fill="black"/>
<path d="M17.8843 32.4456C17.6481 32.5475 17.5926 32.7142 17.5926 33.3024C17.5926 33.6776 17.6111 33.8536 17.6667 33.9555C17.7546 34.1315 18.0139 34.2473 18.2222 34.2056C18.4259 34.1685 18.6574 33.937 18.6574 33.7656C18.6574 33.6266 18.5185 33.4645 18.4861 33.5664C18.4213 33.7517 18.25 33.9277 18.1204 33.9416C17.9074 33.9601 17.8657 33.8721 17.838 33.3626C17.8148 32.9458 17.8194 32.8995 17.9167 32.7791C18.0602 32.5984 18.2037 32.617 18.3796 32.8393C18.5556 33.0662 18.6111 33.0709 18.6111 32.8717C18.6111 32.6911 18.5139 32.5382 18.3333 32.4456C18.1713 32.3622 18.0787 32.3622 17.8843 32.4456Z" fill="black"/>
<path d="M20.3009 32.4086C20.25 32.4225 20.1713 32.4642 20.1204 32.5105C19.9398 32.668 19.9074 32.8162 19.9074 33.4183C19.9074 33.9741 19.912 34.0065 20.0232 34.1131C20.2778 34.3678 20.8472 34.1733 20.9722 33.7842C21.0139 33.6592 21.0093 33.5989 20.9306 33.4322C20.8519 33.2608 20.8472 33.2053 20.8935 33.0385C20.963 32.7745 20.8565 32.5383 20.625 32.4411C20.4583 32.3716 20.4537 32.3716 20.3009 32.4086ZM20.5741 32.7282C20.6852 32.8394 20.6667 33.0107 20.5324 33.0987C20.4259 33.1682 20.4074 33.1682 20.3009 33.0987C20.1852 33.0246 20.1667 32.9737 20.1852 32.8394C20.2083 32.6541 20.4398 32.5893 20.5741 32.7282ZM20.6204 33.4461C20.7778 33.5665 20.7778 33.7333 20.6204 33.8537C20.3333 34.0806 20.0694 33.8768 20.1667 33.5017C20.213 33.3349 20.4398 33.3072 20.6204 33.4461Z" fill="black"/>
<path d="M21.6343 32.4085C21.4676 32.4409 21.2593 32.7188 21.2222 32.9596C21.1806 33.2561 21.2222 33.7192 21.3148 33.9091C21.4537 34.2009 21.7732 34.3074 22.037 34.15C22.1944 34.0573 22.2685 33.9091 22.2685 33.6822L22.2639 33.5108L22.0787 33.7285C21.9352 33.8952 21.8565 33.9508 21.7639 33.9508C21.5972 33.9508 21.4722 33.8119 21.4907 33.6405C21.5046 33.5201 21.5232 33.5108 21.75 33.4876C22.0556 33.4552 22.2639 33.27 22.2963 32.9967C22.338 32.6308 22.0093 32.339 21.6343 32.4085ZM21.9352 32.7281C22.0139 32.7836 22.037 32.8392 22.0278 32.9458C22.0185 33.0662 21.9769 33.1125 21.8333 33.182C21.6065 33.2931 21.5093 33.2422 21.4907 33.0106C21.4676 32.7188 21.7083 32.566 21.9352 32.7281Z" fill="black"/>
<path d="M22.625 32.4087C22.6065 32.4226 22.5926 32.8163 22.5926 33.2794C22.5926 33.9834 22.6065 34.1363 22.662 34.1826C22.7778 34.2752 22.8148 34.1918 22.8565 33.7657C22.8935 33.3859 22.8981 33.372 23.0139 33.3581C23.0926 33.3489 23.1852 33.3859 23.2639 33.4554C23.3843 33.5573 23.3935 33.5897 23.3889 33.8723C23.3843 34.1501 23.3935 34.1826 23.4722 34.1826C23.625 34.1826 23.6574 34.0297 23.6574 33.3628C23.6574 32.7375 23.6065 32.3763 23.5139 32.3763C23.4398 32.3763 23.3796 32.5986 23.3796 32.8672V33.1173H23.125H22.8704V32.9181C22.8704 32.543 22.7454 32.2836 22.625 32.4087Z" fill="black"/>
<path d="M24.0093 32.4456C23.9954 32.4873 23.9815 32.8949 23.9815 33.3534C23.9815 34.0667 23.9907 34.1871 24.0555 34.2149C24.1759 34.2612 24.2176 34.164 24.2454 33.7842C24.2593 33.5804 24.2963 33.4044 24.3241 33.3859C24.4213 33.321 24.5417 33.3488 24.6528 33.4646C24.75 33.5619 24.7685 33.6174 24.7685 33.8722C24.7685 34.0899 24.787 34.1779 24.8333 34.1964C24.9352 34.2381 25.0185 34.1037 25.0185 33.8907C25.0231 33.2237 24.9907 32.4827 24.9537 32.4225C24.875 32.2928 24.7963 32.4549 24.7778 32.793L24.7593 33.1172H24.5093H24.2593L24.2546 32.8949C24.25 32.7745 24.2361 32.617 24.2176 32.5383C24.1852 32.3854 24.0555 32.3299 24.0093 32.4456Z" fill="black"/>
<path d="M25.6111 32.4224C25.4537 32.4873 25.3194 32.8393 25.2917 33.2561C25.2593 33.6915 25.3194 33.8999 25.537 34.0898C25.7176 34.2473 25.8981 34.2704 26.1065 34.1593C26.463 33.9786 26.5741 33.0477 26.2917 32.6494C26.1296 32.4224 25.8472 32.3298 25.6111 32.4224ZM26.037 32.742C26.1389 32.8532 26.2083 33.3765 26.1574 33.6035C26.088 33.9092 25.8657 34.0528 25.6944 33.9138C25.5833 33.8212 25.4907 33.3302 25.5324 33.0616C25.5926 32.7142 25.8565 32.5429 26.037 32.742Z" fill="black"/>
<path d="M29.9676 32.4409C29.7037 32.5613 29.6528 32.6956 29.6342 33.358C29.6157 34.0712 29.6528 34.1592 29.9722 34.2055C30.5185 34.2889 30.9537 33.7285 30.6435 33.3348C30.5694 33.2375 30.5602 33.1912 30.5972 33.1217C30.6898 32.9504 30.6574 32.7095 30.5231 32.5613C30.3704 32.3946 30.1713 32.3529 29.9676 32.4409ZM30.3518 32.7697C30.4213 32.8763 30.4213 32.8948 30.3518 33.006C30.287 33.1032 30.2407 33.1217 30.1018 33.1079C29.9537 33.094 29.9305 33.0754 29.9167 32.9643C29.8842 32.6864 30.2037 32.5474 30.3518 32.7697ZM30.4074 33.4506C30.4954 33.5386 30.4722 33.7563 30.3704 33.8582C30.1342 34.0944 29.7824 33.835 29.9028 33.5154C29.9444 33.4089 29.9768 33.395 30.1528 33.395C30.2639 33.395 30.375 33.4182 30.4074 33.4506Z" fill="black"/>
<path d="M32.2454 32.4085C31.8935 32.4965 31.6852 32.8902 31.7269 33.3719C31.7824 33.9416 31.9954 34.2288 32.3657 34.2288C32.588 34.2288 32.8241 33.9694 32.8241 33.7239C32.8241 33.6174 32.8056 33.534 32.787 33.534C32.7315 33.534 32.5926 33.6915 32.5926 33.7517C32.5926 33.8304 32.4306 33.9509 32.3241 33.9509C32.0787 33.9509 31.9537 33.6174 32.0139 33.1125C32.0787 32.5753 32.4074 32.4965 32.6759 32.9551C32.7222 33.0338 32.7361 33.0384 32.7778 32.9782C32.8056 32.9412 32.8148 32.8439 32.8009 32.7698C32.7546 32.5197 32.4907 32.3483 32.2454 32.4085Z" fill="black"/>
<path d="M33.3935 32.4317C33.3333 32.4595 33.2454 32.5706 33.1944 32.6772C33.1065 32.8578 33.1019 32.9458 33.1111 33.8628C33.125 34.817 33.1296 34.854 33.2176 34.854C33.3009 34.854 33.3148 34.817 33.3333 34.5066C33.3472 34.3167 33.3704 34.1639 33.3935 34.1685C33.6157 34.2287 33.7546 34.2287 33.8843 34.1639C34.0787 34.062 34.1528 33.8999 34.1898 33.4831C34.2269 33.0616 34.1389 32.6864 33.963 32.5197C33.8333 32.3993 33.5463 32.353 33.3935 32.4317ZM33.8426 32.7466C33.9213 32.8254 33.9352 32.8995 33.9352 33.2654C33.9352 33.7424 33.875 33.9184 33.713 33.9416C33.4398 33.9833 33.25 33.6313 33.3056 33.1959C33.3472 32.9087 33.412 32.7698 33.537 32.7096C33.6806 32.6355 33.7407 32.6447 33.8426 32.7466Z" fill="black"/>
<path d="M34.7083 32.4688C34.4815 32.6448 34.4259 32.8161 34.4213 33.3024C34.4213 33.6869 34.4352 33.7656 34.5278 33.9184C34.7315 34.238 35.1157 34.3307 35.338 34.1083C35.4907 33.9555 35.625 33.3904 35.5833 33.0801C35.5139 32.5521 35.0324 32.214 34.7083 32.4688ZM35.2037 32.8069C35.3194 32.9597 35.3611 33.446 35.2778 33.6915C35.1528 34.0713 34.8194 34.0806 34.7176 33.71C34.6481 33.4507 34.6852 32.9227 34.787 32.7698C34.8889 32.6123 35.0694 32.6309 35.2037 32.8069Z" fill="black"/>
<path d="M35.8796 32.4642C35.8519 32.5198 35.8333 32.8996 35.8333 33.372V34.1871L35.963 34.1732C36.088 34.1594 36.088 34.1547 36.088 33.8351C36.088 33.4739 36.1204 33.3951 36.2546 33.3951C36.5046 33.3951 36.6667 33.6452 36.6667 34.0204C36.6667 34.2427 36.7083 34.2751 36.8287 34.1501C36.9306 34.0482 36.8889 33.6267 36.7593 33.4183C36.5509 33.0941 36.5509 33.1034 36.7315 32.7977C36.9213 32.4688 36.9306 32.4225 36.8148 32.4225C36.7083 32.4225 36.5648 32.5754 36.4398 32.8255C36.3889 32.932 36.2963 33.0524 36.2408 33.0941L36.1343 33.1636L36.1019 32.8671C36.0556 32.3855 35.9861 32.265 35.8796 32.4642Z" fill="black"/>
<path d="M18.6852 32.4642C18.6481 32.5198 18.7963 32.6449 18.9722 32.7051L19.1204 32.756V33.4693C19.1204 34.076 19.1296 34.1918 19.1944 34.215C19.3426 34.2706 19.375 34.1455 19.3935 33.4137L19.4074 32.7004L19.5324 32.6727C19.7593 32.6171 19.8287 32.5615 19.7639 32.4874C19.7222 32.4411 19.588 32.4226 19.2083 32.4226C18.9352 32.4226 18.6991 32.4411 18.6852 32.4642Z" fill="black"/>
<path d="M17.4768 35.5766C17.7407 35.8684 18.2593 36.0583 19.0463 36.1555C19.7268 36.2343 20.2222 36.2389 21.1389 36.1694C22.3426 36.0814 22.7917 36.2204 23.4722 36.9058C23.8241 37.2578 23.9861 37.4755 24.4815 38.2583C24.5463 38.3648 24.5556 38.3648 24.5833 38.2814C24.6667 38.0406 24.3009 37.2949 23.7824 36.6511C23.4537 36.2435 23.162 36.0027 22.7639 35.8081C22.1944 35.5303 22.0509 35.5164 19.6065 35.4932L17.3889 35.4747L17.4768 35.5766Z" fill="black"/>
<path d="M29.0972 35.5256C27.8657 35.6506 27.0602 36.262 26.3843 37.5913C26.1759 38.0081 26.088 38.3508 26.1991 38.3508C26.2222 38.3508 26.3843 38.1193 26.5556 37.8321C26.963 37.1744 27.5232 36.5862 27.963 36.3685C28.3935 36.1555 28.8102 36.0999 29.4583 36.1694C31.1435 36.3361 32.8241 36.086 33.287 35.595L33.3935 35.4793L31.4074 35.4839C30.3148 35.4885 29.2778 35.507 29.0972 35.5256Z" fill="black"/>
<path d="M18.8982 36.4937C18.8102 36.5493 19.1065 36.7623 19.4352 36.8781C19.7407 36.9893 20.2824 37.0078 21.4167 36.943C22.1898 36.8966 22.4676 36.9291 22.9583 37.119C23.4907 37.332 23.3333 37.0541 22.7546 36.7577C22.1944 36.4798 22.0046 36.452 20.3935 36.452C19.6065 36.452 18.9306 36.4705 18.8982 36.4937Z" fill="black"/>
<path d="M28.7731 36.4845C28.3565 36.5725 28.0324 36.7068 27.7824 36.8921C27.3287 37.2255 27.4167 37.2765 28.0556 37.0542C28.5093 36.8967 28.875 36.8782 29.9583 36.9662C30.4398 37.0079 30.6667 37.0032 30.9213 36.9615C31.25 36.906 31.8102 36.6651 31.838 36.5632C31.8472 36.5308 31.7454 36.4984 31.5694 36.4799C31.2593 36.4474 28.9213 36.4521 28.7731 36.4845Z" fill="black"/>
<path d="M21.1204 37.1931C20.9352 37.2116 20.7685 37.2394 20.7546 37.2533C20.7176 37.295 21.2685 37.559 21.5602 37.6377C21.75 37.6933 22.0648 37.7164 22.6389 37.7211C23.0833 37.7303 23.5556 37.7489 23.6806 37.7674L23.912 37.7998L23.7963 37.7072C23.3287 37.3181 22.0926 37.0819 21.1204 37.1931Z" fill="black"/>
<path d="M28.3009 37.2115C27.6667 37.332 26.7639 37.6932 26.8287 37.7951C26.875 37.8646 27.1204 37.8507 27.2824 37.7673C27.4028 37.7025 27.5231 37.6932 27.9907 37.7164C28.8287 37.7534 29.3611 37.6562 29.787 37.3922L29.9722 37.2717L29.8611 37.2254C29.6667 37.1513 28.6667 37.1421 28.3009 37.2115Z" fill="black"/>
<path d="M22.2963 38.0174C22.1435 38.0545 22.1667 38.0869 22.4537 38.2398C22.5926 38.3139 22.7454 38.3278 23.4954 38.3416C24.3148 38.3509 24.3704 38.3463 24.2824 38.2768C24.0278 38.0684 23.8009 38.0174 23.1065 37.9989C22.7361 37.9896 22.3704 37.9989 22.2963 38.0174Z" fill="black"/>
<path d="M27.0787 38.0546C26.6018 38.1379 26.4815 38.1889 26.4815 38.3047C26.4815 38.3927 26.5046 38.3927 27.1435 38.3695C27.9213 38.3371 28.2083 38.2908 28.4259 38.1565L28.588 38.0546L28.4722 38.0222C28.2778 37.9666 27.4537 37.9851 27.0787 38.0546Z" fill="black"/>
</svg>
