<svg width="50" height="50" viewBox="0 0 50 50" fill="none" xmlns="http://www.w3.org/2000/svg">
<path d="M12.0842 1.14155C10.5558 2.85388 10 4.40639 10 7.07762C10 9.49772 10.2316 10.2055 11.899 12.7626C13.4737 15.137 13.4737 16.3927 11.9453 17.7626C10.8337 18.7443 10.7642 19.4292 11.5979 21.1872C12.7327 23.5616 12.6632 24.9315 11.3663 25.4566C10.4863 25.8219 10.1853 26.4612 10.5558 27.1461C10.8569 27.7397 11.5053 28.0822 12.2695 28.0822H12.8716L12.2 28.9954C11.8295 29.4977 11.3895 30.4338 11.2505 31.0731C10.88 32.5799 11.0653 35.0457 11.5979 36.0731L12.0379 36.8721L12.3621 36.0046C12.5474 35.5479 12.7558 35.1598 12.8485 35.1598C12.9179 35.1598 13.3348 36.0731 13.7748 37.1689C15.0022 40.2968 17.318 44.9772 17.6191 44.9772C17.9433 44.9772 19.5875 43.2648 19.5875 42.9224C19.5875 42.2603 20.1665 42.8767 20.8149 44.2237C21.4633 45.6164 21.556 46.0046 21.556 47.8767C21.556 49.1553 21.6486 50 21.7875 50C22.2507 50 24.3813 48.4247 25.7476 47.0776C26.5118 46.3014 27.5308 45.0228 28.0171 44.2009C28.5034 43.3562 28.9434 42.6941 28.9666 42.6941C28.9898 42.6941 29.4992 43.2648 30.0782 43.9726L31.1435 45.2283L31.6993 44.3607C32.8572 42.5342 34.8025 38.3105 35.752 35.5023L35.9835 34.8174L36.4236 35.8219C36.7709 36.5982 36.9099 36.7352 37.0951 36.5068C37.6046 35.8904 37.8825 34.6119 37.8825 33.0137C37.8825 31.6895 37.7667 31.1187 37.2109 30C36.8404 29.2237 36.4236 28.516 36.2846 28.4475C35.7751 28.1279 36.053 27.8539 36.8404 27.8539C37.6278 27.8539 38.8088 27.4429 38.8088 27.1689C38.8088 27.1005 38.4383 26.6667 37.9752 26.2329C36.8636 25.1826 36.493 24.4292 36.493 23.1735C36.493 22.3059 36.6088 21.9863 37.1646 21.4384C37.5583 21.0731 37.9057 20.5708 37.9983 20.3425C38.1836 19.7717 37.6509 18.653 36.5857 17.3516C35.8446 16.4384 35.752 16.2329 35.8446 15.2968C35.9141 14.5434 36.2383 13.8356 36.933 12.8082C38.3225 10.7991 38.8088 9.58904 38.971 7.80822C39.1794 5.2968 38.2531 2.57991 36.6088 0.844748C36.2846 0.502282 35.9372 0.22831 35.8446 0.22831C35.752 0.22831 35.6825 1.18721 35.6593 2.3516C35.6362 4.86301 35.0804 6.3242 33.8067 7.07762C31.9077 8.24201 30.6571 8.08219 29.0824 6.48402C27.4613 4.86301 26.535 4.45205 24.335 4.45205C22.0886 4.45205 21.0233 4.93151 19.7265 6.48402C18.7307 7.69406 17.7117 8.08219 16.4148 7.71689C14.1916 7.12329 13.2422 5.43379 13.219 2.10046C13.219 0.958903 13.1958 -9.87202e-07 13.1727 -9.87202e-07C13.1727 -9.87202e-07 12.6632 0.525113 12.0842 1.14155ZM37.7436 6.84931C37.7204 9.10959 37.1646 10.8447 35.9604 12.1918L35.2193 13.0594L34.3625 11.5753C33.8761 10.7763 33.4825 9.97717 33.4825 9.81735C33.4825 9.65753 33.8993 9.06393 34.4319 8.51598C35.5204 7.3516 36.3772 5.57078 36.632 3.9726L36.7941 2.85388L37.2804 3.88128C37.6278 4.65753 37.7436 5.3653 37.7436 6.84931ZM12.5242 4.7032C12.8253 6.27854 13.219 7.10046 14.3537 8.42466C15.3032 9.54338 15.3727 10.1598 14.7474 11.3927C14.0759 12.6941 13.659 12.9452 13.1032 12.4429C12.1537 11.5982 11.2274 9.29224 11.0884 7.48858C10.9495 5.63927 11.5053 3.08219 12.0148 3.26484C12.1537 3.3105 12.3853 3.94977 12.5242 4.7032ZM25.7013 5.77625C26.1645 6.41552 26.1876 6.64383 26.1181 12.2831C26.0718 15.5023 25.9329 18.242 25.8171 18.3562C25.4929 18.6986 23.3855 18.6301 22.9455 18.2648C22.6212 17.9909 22.5749 17.2831 22.6444 11.9635C22.7139 6.41552 22.737 5.9589 23.1539 5.50228C23.8255 4.79452 25.0529 4.93151 25.7013 5.77625ZM21.2781 18.2877C21.0233 18.516 14.7011 17.8539 14.3537 17.5571C13.9832 17.2603 14.5159 15.2055 15.5348 13.1279C16.5538 11.0502 18.1054 9.20091 19.8886 7.85388L21.3244 6.80365L21.3939 12.4658C21.417 15.5708 21.3707 18.1963 21.2781 18.2877ZM29.314 8.0137C30.9582 9.36073 32.5098 11.3242 33.4825 13.3333C34.154 14.7489 34.9646 17.3516 34.7793 17.5342C34.5014 17.7854 32.6256 18.0594 30.194 18.1963L27.4613 18.3333V12.6027C27.4613 9.13242 27.5539 6.84931 27.6697 6.84931C27.8087 6.84931 28.5497 7.37443 29.314 8.0137ZM36.6088 19.2009C36.8404 19.863 36.5857 20.6164 36.053 20.9361C35.1498 21.484 29.0592 21.758 21.0928 21.5982C14.2148 21.4612 13.4043 21.4155 12.8716 21.0274C12.2 20.5479 12.0148 19.7717 12.4548 19.2466C12.779 18.8584 14.0295 18.8813 19.0086 19.4292C22.0654 19.7489 30.7729 19.5434 33.714 19.0868C36.4467 18.653 36.4467 18.653 36.6088 19.2009ZM35.1267 23.7671C35.2656 24.5662 35.5204 25.4566 35.7056 25.7306C36.1457 26.4155 36.1225 26.484 35.4046 26.484C33.8761 26.5068 33.8761 27.2603 35.3583 30.1826C36.2151 31.8721 36.5162 33.105 36.053 33.105C35.752 33.105 34.1772 31.21 32.6951 29.0183C31.3287 26.9863 31.2129 26.7123 31.7224 26.7123C32.7182 26.7123 34.0151 24.8402 34.293 22.9909C34.5246 21.5753 34.8256 21.8721 35.1267 23.7671ZM15.2569 25.0457C15.6738 25.8219 16.6927 26.7123 17.1791 26.7123C17.3643 26.7123 17.5033 26.7808 17.5033 26.8721C17.4801 27.5114 13.3116 33.0594 12.8253 33.0822C12.3621 33.1279 12.7095 31.621 13.4737 30.2055C14.9559 27.4886 14.9559 26.484 13.5432 26.484C12.9411 26.484 12.8485 26.4155 12.9874 26.0731C13.08 25.8676 13.4274 24.8858 13.7748 23.9041L14.3769 22.1461L14.6316 23.2192C14.7706 23.8356 15.0485 24.6347 15.2569 25.0457ZM16.6927 23.0594C17.6654 24.589 19.4949 24.8402 20.9307 23.6301C22.0886 22.6712 22.5286 22.9452 21.6486 24.0639C20.1896 25.8904 17.3643 25.7078 16.1138 23.6986C15.6275 22.8995 15.5117 22.1461 15.8822 22.1461C15.998 22.1461 16.3685 22.5571 16.6927 23.0594ZM31.3982 22.6027C31.3982 23.0365 30.4719 23.7443 29.9161 23.7443C29.615 23.7443 29.1287 23.5388 28.8276 23.3105L28.2719 22.8767L28.8508 22.7397C29.175 22.6712 29.8466 22.5799 30.3561 22.5342C30.8656 22.4886 31.3056 22.4429 31.3519 22.4201C31.3751 22.3973 31.3982 22.4658 31.3982 22.6027ZM33.2509 22.6484C33.2509 22.8082 33.0424 23.2877 32.7877 23.6986C31.5372 25.7078 28.7119 25.8904 27.2529 24.0639C26.3034 22.8767 26.8592 22.6941 28.2487 23.7443C29.6613 24.7945 30.6803 24.7032 31.9077 23.4018C32.9267 22.3516 33.2509 22.1689 33.2509 22.6484ZM20.1202 22.8082C20.4907 22.9452 20.5138 23.0137 20.2359 23.2192C19.4486 23.8813 17.8275 23.6758 17.5496 22.8767C17.457 22.5799 19.3791 22.5114 20.1202 22.8082ZM25.1455 23.2877C25.4002 23.5388 25.6087 23.8356 25.6087 23.9498C25.6087 24.0411 25.9097 24.5205 26.2802 24.9772C27.2297 26.1416 26.7897 27.1689 25.1686 27.6256C24.4739 27.8082 24.1728 27.7626 23.316 27.3288C21.7181 26.5525 21.6718 26.347 22.8991 24.4749C23.5013 23.5616 24.1265 22.831 24.335 22.831C24.5202 22.831 24.8907 23.0365 25.1455 23.2877ZM21.9728 28.0594C23.3391 28.9726 23.756 29.4977 23.9181 30.4566L24.0571 31.2785H23.0612C21.1854 31.2785 19.8886 32.2831 19.6107 33.9269C19.5412 34.3607 19.3791 34.726 19.2401 34.7489C18.8464 34.7717 17.6654 32.1689 17.5496 31.0046C17.4338 29.6804 17.7812 28.7215 18.7075 27.968C19.6338 27.1918 20.7454 27.2146 21.9728 28.0594ZM30.3329 28.1735C31.6761 29.5205 31.7224 31.3242 30.4487 33.5388L29.7308 34.7717L29.1055 33.5388C28.6192 32.5571 28.295 32.1918 27.4613 31.7808C26.9055 31.5068 26.095 31.2785 25.6781 31.2785C24.9834 31.2785 24.9139 31.21 24.9139 30.5936C24.9139 30.1598 25.1686 29.6347 25.655 29.0868C27.3687 27.1689 28.9898 26.8721 30.3329 28.1735ZM16.5075 32.2374C16.6696 32.7854 17.2254 33.9269 17.7812 34.8174C18.7538 36.3927 18.777 36.4384 18.777 38.4703C18.7538 40.5936 18.337 42.5799 17.9664 42.3516C17.8506 42.2831 17.5959 41.6895 17.3875 41.0502C17.2022 40.4338 16.5769 39.1781 15.998 38.2877C15.0948 36.895 14.9559 36.5068 14.9559 35.4566C14.9559 34.3151 15.7896 31.2785 16.0906 31.2785C16.1832 31.2785 16.3685 31.7123 16.5075 32.2374ZM33.3667 32.2374C34.2698 34.3836 33.9919 36.4155 32.4635 39.0411C31.9077 39.9772 31.3056 41.1644 31.1435 41.6667L30.8656 42.5799L30.5182 41.7808C30.3329 41.347 30.1245 40.137 30.055 39.1096L29.9624 37.2374L31.3056 34.3836C32.0698 32.8082 32.7645 31.5068 32.8572 31.5068C32.9498 31.5068 33.1814 31.8493 33.3667 32.2374ZM26.6276 32.968C28.1329 33.5845 28.7582 36.3927 28.0634 39.3607C27.415 42.0548 24.7055 46.5753 23.756 46.5753C23.2928 46.5753 23.2928 46.5525 23.6634 45.7078C24.5665 43.7443 24.8907 42.4886 24.9139 41.1872C24.9371 37.6484 23.5244 37.4658 22.9455 40.9361C22.8528 41.4612 22.6907 41.7808 22.5286 41.7123C22.3665 41.6667 21.8802 40.9361 21.4402 40.0685C20.7223 38.6986 20.6296 38.3105 20.6296 36.7808C20.6296 34.5662 21.1854 33.3562 22.3665 32.9452C23.4781 32.5799 25.7013 32.5799 26.6276 32.968Z" fill="#172249"/>
</svg>
