<svg width="280" height="246" viewBox="0 0 280 246" fill="none" xmlns="http://www.w3.org/2000/svg">
<path d="M59.0852 1.39831C54.7555 2.56357 51.074 7.25052 51.074 11.6008C51.074 12.792 50.9963 12.9474 49.9074 13.8278C46.3555 16.7539 40.4703 20.0166 35.7259 21.7257C26.5222 25.0661 15.8407 25.584 6.76663 23.1758C4.82219 22.6579 4.27774 22.5802 4.12219 22.8391C3.75922 23.4088 2.90367 27.4743 2.56663 30.1156C2.17774 33.3265 2.38515 40.7065 2.95552 43.8916C5.08145 55.6478 9.95552 65.7985 18.9259 77.0109C21.7518 80.5585 31.6814 90.7092 36.1407 94.6193C40.3407 98.2964 43.3222 99.617 45.7074 98.7884C46.2777 98.5812 46.8222 98.4777 46.874 98.5295C46.9259 98.5812 46.7444 99.3581 46.4592 100.264C42.5444 112.331 41.4296 127.972 43.4518 142.033C46.6926 164.587 57.5814 185.898 73.474 200.814L76.3 203.455L69.7148 215.6C66.1111 222.255 62.9481 228.314 62.6889 229.013C62.1963 230.437 62.0407 233.234 62.5074 232.043C62.8185 231.266 66.3963 226.32 66.6555 226.32C66.9666 226.32 67.1481 227.511 66.9926 228.443C66.9148 228.909 66.2926 230.411 65.6444 231.758C64.8407 233.415 64.4259 234.658 64.3481 235.59C64.1926 237.455 63.5963 237.325 62.9222 235.254C62.2222 233.156 62.0407 233.907 62.7148 236.134C64.2703 241.235 68.2889 244.239 73.474 244.213C76.7407 244.187 80.7074 242.478 82.574 240.251C82.937 239.837 86.2814 234.399 89.9889 228.184C93.6963 221.97 96.7555 216.843 96.8074 216.817C96.8333 216.791 98.7259 217.542 101.007 218.526C121.981 227.563 145.652 229.013 167.948 222.591C171.811 221.478 177.385 219.406 180.652 217.878L183.037 216.765L183.659 217.723C183.996 218.267 186.174 221.84 188.533 225.673C198.074 241.261 198.178 241.417 200.9 242.867C205.593 245.353 210.389 244.757 214.122 241.209C217.596 237.895 218.556 233.648 216.974 228.521C216.222 226.035 214.848 223.316 208.73 212.285L203.493 202.808L204.737 201.694C207.07 199.623 211.893 194.625 214.122 191.932C226.696 176.835 234.033 159.33 236.6 138.278C237.118 133.953 237.196 122.896 236.73 118.598C236.056 112.564 234.267 103.683 232.944 99.9796C232.426 98.4777 232.426 98.0375 233.022 98.2705C235.718 99.4099 239.167 98.4777 242.952 95.5775C245.285 93.7907 251.404 87.9903 255.007 84.1579C273.104 64.8663 280.7 44.4095 277.122 24.6518C276.785 22.7356 277.2 22.8133 271.548 23.5383C257.496 25.3509 248.915 24.6 240.956 20.8453C234.396 17.7897 229.756 13.025 227.526 7.09515C227.137 6.08525 226.437 4.79052 225.97 4.24673C223.896 1.83852 219.515 0.828622 215.574 1.83852C213.837 2.30462 211.063 3.67704 207.537 5.8781C205.696 7.01746 203.311 8.46757 202.248 9.06315C199.941 10.3838 198.204 11.9116 197.556 13.2322C197.27 13.7501 196.933 15.2002 196.778 16.469C195.974 23.0722 193.407 29.9343 189.7 35.2945C188.144 37.5473 184.411 41.9495 184.048 41.9495C183.918 41.9495 183.348 41.7164 182.83 41.4575C180.73 40.3699 174.974 38.0652 171.915 37.0295C165.537 34.9061 158.381 33.3006 151.407 32.4461C146.741 31.8764 133.907 31.7987 129.5 32.3166C118.456 33.6372 107.774 36.4857 99.2963 40.4217C97.6111 41.1985 96.8074 41.4575 96.3148 41.328C94.7852 40.9396 91.5963 37.2107 88.7703 32.4979C85.4 26.8528 83.274 20.3533 82.3148 12.6366C82.1333 11.316 81.4592 10.2802 80.4222 9.73641C80.0333 9.52925 78.4 9.01136 76.7666 8.57115C75.1592 8.10504 73.4481 7.56125 73.0074 7.3282C72.5666 7.12104 71.3222 6.03346 70.2592 4.94588C69.1444 3.80652 67.7703 2.69304 67.0703 2.35641C64.4 1.06167 61.5481 0.725043 59.0852 1.39831ZM65.1 3.3922C66.3703 3.83241 67.537 4.76462 68.7037 6.31831C69.274 7.06925 69.7407 7.76841 69.7407 7.8461C69.7407 7.94967 69.2481 8.02736 68.6518 8.02736C65.8518 8.05325 60.3814 9.08904 56.2852 10.3838C54.0037 11.1088 53.8222 11.1347 53.3814 10.7204C53.0963 10.4874 52.8889 9.96946 52.8889 9.60694C52.8889 8.23452 53.7185 7.43178 56.9333 5.69683C61.5481 3.18504 63.1296 2.74483 65.1 3.3922ZM221.822 5.02357C223.948 6.05936 226.022 7.27641 226.411 7.71662C227.267 8.62294 227.474 10.1248 226.8 10.7722C226.437 11.1347 226.126 11.0829 223.481 10.2543C219.981 9.14083 215.937 8.3381 212.8 8.10504C211.556 8.02736 210.518 7.87199 210.518 7.76841C210.518 7.66483 210.881 7.04336 211.322 6.3701C212.696 4.29852 214.667 3.13325 216.767 3.10736C217.752 3.10736 218.685 3.44399 221.822 5.02357ZM213.604 10.2543C213.63 10.2802 213.37 11.2383 213.007 12.3518C211.97 15.4591 211.063 19.7577 210.752 23.0204C210.518 25.6876 210.026 27.4484 209.559 27.4484C209.015 27.4484 210.389 13.5688 211.193 11.0829C211.296 10.7463 211.193 10.6168 210.83 10.6168C210 10.6168 209.456 11.5231 209.222 13.284C208.885 16.0288 208.574 16.3655 205.074 17.712C201.885 18.929 199.163 20.405 198.515 21.3114C198.204 21.6739 198.048 22.0623 198.126 22.14C198.178 22.2177 200.459 21.2855 203.13 20.0684C205.826 18.8514 208.107 17.8674 208.237 17.8674C208.341 17.8674 208.444 18.0486 208.444 18.2558C208.444 18.9808 207.278 19.8613 205.696 20.3274C203.467 20.9747 201.159 22.0623 200.096 22.9945C199.033 23.9526 198.359 24.0303 197.685 23.3053C197.011 22.5802 197.244 21.5185 199.111 16.6503C200.848 12.1187 201.859 10.5391 203.337 10.1248C204.063 9.91767 213.344 10.0471 213.604 10.2543ZM78.1666 10.8758C79.1 11.7303 79.5666 12.7143 81.2259 17.1423C82.8852 21.5703 83.0926 22.3213 82.7296 23.0204C82.2111 23.9526 81.4852 23.9526 80.0074 22.9686C78.037 21.648 75.7814 20.5604 73.9926 20.0684C72.3852 19.6023 71.5555 19.0585 71.5555 18.4629C71.5555 18.0227 71.6852 18.0227 73.6555 18.6701C75.7296 19.3434 79.1 20.8711 80.6296 21.8034C81.5629 22.373 81.8222 22.4248 81.874 22.1141C82.1333 21.0006 79.3592 19.2139 74.9259 17.6602C73.7074 17.22 72.5148 16.8057 72.2555 16.7021C71.6074 16.4431 71.1407 15.3815 70.9074 13.7242C70.8037 12.9474 70.5703 11.9893 70.3629 11.6267C69.974 10.8758 69.274 10.2284 69.0666 10.4356C68.9889 10.5133 69.1703 12.1964 69.4555 14.1644C70.6222 21.7516 71.0629 27.7074 70.5185 27.7074C70.0777 27.7074 69.8185 26.7234 69.5074 23.8231C69.0926 20.1461 68.3148 16.5726 67.2518 13.2581C66.7852 11.7303 66.3703 10.3838 66.3703 10.2802C66.3703 10.1766 68.8592 10.0989 71.9185 10.1507C77.4407 10.2284 77.4926 10.2284 78.1666 10.8758ZM64.737 11.3937C65.5407 11.8598 66.1111 13.025 65.7481 13.3876C65.5407 13.6206 62.6629 12.8697 61.0296 12.1705C59.3444 11.4196 59.9148 10.9794 62.6111 10.9017C63.4926 10.8758 64.1926 11.0311 64.737 11.3937ZM219.956 11.3937C220.448 11.5749 220.37 11.6526 219.281 12.1187C217.078 13.0768 214.148 13.8019 214.148 13.3617C214.148 12.9215 215.004 11.3678 215.367 11.1347C215.859 10.8499 218.97 11.0053 219.956 11.3937ZM62.1185 13.776C65.5926 14.993 67.4592 16.0029 66.7074 16.236C66.5259 16.3137 65.3592 16.0029 64.0889 15.5627C61.8852 14.8377 56.8555 13.7242 55.6889 13.7242C55.1444 13.7242 55.1444 13.7242 55.637 14.268C56.3111 15.0189 56.9333 15.2261 59.9926 15.6663C64.2185 16.3137 66.2148 17.5825 67.5629 20.5863C68.3148 22.2436 68.5481 23.5383 68.3407 24.9625C68.0814 26.5939 67.2777 27.3448 65.5666 27.5779C60.6666 28.2511 50.5037 32.2648 45.3703 35.6052C37.2296 40.8619 33.237 48.7598 34.4555 57.2015C35.2333 62.4063 36.7889 66.4977 40.8333 73.9036L42.0777 76.2082L40.937 75.5349C32.4333 70.4855 25.4333 60.1017 20.3777 45.005C19.1851 41.4575 18.8481 39.3341 18.9777 36.4339C19.0555 34.44 19.2111 33.7667 19.8592 32.3684C20.6889 30.6335 22.3481 28.7431 23.6444 28.0699C24.0333 27.8627 26.2111 27.2154 28.4407 26.6457C38.6037 24.0303 42.6481 22.2436 48.1444 17.9191C50.8148 15.8217 51.5407 15.4333 53.174 15.1743C53.9259 15.0448 54.1333 14.8636 54.4185 14.1126C55.1703 12.041 56.9592 11.9634 62.1185 13.776ZM224.622 12.7661C225.115 12.9991 225.504 13.4135 225.685 13.9831C225.944 14.7341 226.152 14.9154 227.189 15.1743C228.693 15.5627 229.963 16.2878 233.074 18.6183C237.559 21.9846 243.263 24.4705 251.948 26.8269C256.667 28.0958 257.211 28.3288 258.43 29.5459C262.111 33.1711 262.085 38.4796 258.352 48.8375C254.956 58.2113 250.885 65.0735 245.518 70.4337C243.107 72.8678 238.363 76.5707 238.052 76.2859C238 76.2082 238.7 74.784 239.607 73.1008C241.422 69.7604 242.407 67.6629 243.833 64.0895C245.285 60.4642 245.804 58.3667 245.959 55.4147C246.141 52.0225 245.544 49.4071 243.859 45.9631C239.685 37.5215 231.959 32.3943 216.87 28.0958C214.07 27.293 212.567 26.7493 212.281 26.3867C210.778 24.6 211.996 19.7577 214.433 17.8415C215.781 16.7798 216.844 16.3914 220.033 15.7699C222.652 15.2779 224.544 14.5787 224.907 13.9831C224.985 13.8537 224.907 13.7242 224.7 13.7242C223.974 13.7242 218.607 14.7859 216.3 15.3815C214.978 15.7181 213.889 15.8994 213.889 15.7958C213.889 15.485 218.374 13.517 219.981 13.1027C222.937 12.3777 223.585 12.3259 224.622 12.7661ZM75.1852 21.9587C76.974 22.6579 78.6592 23.3053 78.9185 23.4088C79.7222 23.6937 79.074 24.0821 77.2333 24.341C76.3 24.4964 74.8222 24.9884 73.837 25.4804L72.074 26.3608V24.5223C72.074 23.4865 71.9703 22.2177 71.8407 21.6739C71.7111 21.156 71.6852 20.7158 71.7889 20.7158C71.8666 20.7158 73.3963 21.2855 75.1852 21.9587ZM208.263 23.357C208.185 24.833 208.081 26.0501 208.056 26.1019C208.03 26.1278 207.278 25.817 206.37 25.4027C205.463 24.9625 203.881 24.4964 202.818 24.3151C201.185 24.0562 200.952 23.9526 201.237 23.6419C201.548 23.357 207.641 20.8194 208.237 20.7417C208.341 20.7158 208.341 21.9069 208.263 23.357ZM13.0148 27.9145C15.9703 29.3387 17.3703 30.1674 17.5 30.5299C17.5777 30.8147 17.4481 31.721 17.2148 32.5497C16.5666 34.673 16.6444 38.9716 17.3703 42.3379C20.7148 57.7452 29.8666 71.0551 43.5037 80.4031C46.5629 82.5006 47.4963 83.4846 47.9629 85.1678C48.6111 87.5242 47.9629 92.9362 46.7963 94.9301C45.6037 96.9499 43.4259 97.3642 41.2222 95.9918C38.4481 94.2827 29.374 85.7375 24.1111 79.8593C16.7481 71.6507 13.274 66.5236 10.6814 59.9463C9.22959 56.2951 6.66293 48.5785 5.72959 45.0568C4.12219 38.9716 3.68145 33.1711 4.51107 28.8985C5.31478 24.8071 6.37774 24.6777 13.0148 27.9145ZM274.322 25.8947C274.581 26.0501 275.074 26.6716 275.359 27.2671C275.878 28.2253 275.93 28.7431 275.904 31.8505C275.722 47.4133 270.07 62.5617 259.518 75.7421C255.241 81.0505 242.433 93.6871 239.27 95.7069C237.041 97.1052 234.759 97.0276 233.489 95.5257C232.918 94.8524 232.815 94.4899 232.815 92.988C232.815 92.0299 232.581 90.0878 232.296 88.7153C231.415 84.4945 231.778 83.7695 236.237 80.7398C249.304 71.9097 258.404 59.1695 262.137 44.5389C263.407 39.4636 263.563 36.0973 262.733 31.3326C262.63 30.6594 262.681 30.2968 262.967 30.0897C263.174 29.9084 265.3 28.8467 267.711 27.7074C272.067 25.6358 273.233 25.325 274.322 25.8947ZM81.5629 26.5421C82.3407 27.0082 83.1185 27.8368 84.1296 29.3905C86.0222 32.213 86.4629 33.4301 86.8518 36.7446C87.0074 38.2465 87.4481 40.577 87.8111 41.9236C88.9259 46.0408 89.0814 45.6524 85.0629 48.5267C81.6148 51.0126 81.6148 51.0385 81.7703 50.184C81.8481 49.7179 82.0037 47.8017 82.0814 45.9631C82.2889 41.9236 81.6666 37.7027 80.3703 34.181C79.9296 32.964 79.2296 31.0478 78.8148 29.9084C78.4 28.769 78.037 27.5261 78.037 27.1377C78.037 25.7911 79.774 25.5063 81.5629 26.5421ZM201.626 26.5162L202.352 27.1377L201.885 28.4065C199.318 35.1391 198.567 38.0393 198.048 43.0888C197.763 46.0667 198.022 48.8892 198.748 50.7278C199.63 52.9806 200.07 51.5564 199.656 47.6981C199.137 42.804 200.096 37.2366 202.481 30.9442C203.985 27.0082 204.011 26.9564 204.944 27.2154C205.385 27.3448 206.059 27.7074 206.5 28.0699L207.252 28.6655L205.93 31.488C203.467 36.7705 202.585 40.4476 202.818 44.6943C202.922 46.74 202.844 47.5945 202.507 48.5785C201.911 50.3393 200.511 52.3073 199.863 52.3073C199.422 52.3073 192.059 46.9471 191.515 46.2221C191.256 45.8855 191.359 45.2381 192.215 42.0789C192.604 40.6547 193.044 38.0911 193.226 36.3821L193.563 33.2488L195.17 30.6335C197.918 26.2055 199.837 24.9625 201.626 26.5162ZM20.4296 26.6716C21.3629 26.6716 21.5444 26.7493 21.4666 27.1118C21.3629 27.7074 20.3 28.2253 19.2111 28.2253C18.7444 28.2253 17.6555 27.9145 16.8 27.5261C14.9074 26.6975 15.2185 26.3349 17.6296 26.5162C18.5629 26.5939 19.8074 26.6716 20.4296 26.6716ZM264.185 26.9564C264.185 27.0859 263.641 27.4484 262.993 27.7591C261.385 28.4583 259.726 28.3029 258.793 27.3448L258.093 26.6716H261.152C263.096 26.6716 264.185 26.7751 264.185 26.9564ZM77.9852 31.98C79.8777 37.5991 80.2666 39.101 80.6037 41.9495C80.8629 44.2541 80.474 51.9707 80.0852 52.4109C79.8518 52.6699 78.3222 50.3135 77.674 48.6821C77.2852 47.724 77.2333 47.1025 77.3889 45.1604C77.7 40.9137 76.637 36.3562 74.1481 31.4621L72.8518 28.8726L73.6296 28.1994C74.4592 27.5002 75.9629 26.9046 76.2481 27.1636C76.3259 27.2413 77.1296 29.4164 77.9852 31.98ZM216.352 30.2191C224.83 32.6791 236.704 38.1688 236.704 39.6448C236.704 40.0591 236.03 39.9038 234.526 39.101C232.581 38.0393 231.285 37.7545 223.533 36.5116C219.904 35.916 216.741 35.3204 216.456 35.1391C216.196 34.9838 215.548 34.0516 215.056 33.0935C214.511 32.0836 213.707 31.0219 213.111 30.5558C211.944 29.6495 211.737 28.9762 212.67 29.1834C212.981 29.261 214.641 29.7271 216.352 30.2191ZM65.8 32.0318C64.4259 33.9998 63.5963 34.9579 62.9481 35.2945C62.4296 35.5535 60.6407 35.916 58.7222 36.1231C54.0814 36.6669 50.7111 37.392 46.6926 38.7385C44.8 39.3859 43.1926 39.852 43.1148 39.8002C42.8814 39.5412 45.2926 37.7804 47.1592 36.8223C50.1148 35.2945 55.274 33.0417 58.3333 31.98C61.2889 30.9442 66.8111 29.2869 67.3555 29.261C67.5629 29.261 66.837 30.504 65.8 32.0318ZM71.0889 32.7568C73.0592 36.641 75.2111 43.1665 74.8222 44.1764C74.6666 44.5648 74.5889 44.5648 74.0444 44.0469C72.9555 43.037 71.8407 40.577 71.4518 38.4278C71.2185 37.133 70.7 35.5535 70.0259 34.2069C68.8592 31.7987 68.8333 31.6951 69.2481 30.6335C69.5592 29.7789 69.5592 29.8048 71.0889 32.7568ZM210.674 30.6076C211.037 31.1773 210.778 32.5497 210.052 33.948C209.637 34.7248 209.093 36.1749 208.859 37.1589C207.848 41.0949 207.381 42.4673 206.733 43.2183C205.878 44.2282 205.333 44.2541 205.333 43.296C205.333 41.8459 207.148 36.6151 209.144 32.2907C210.078 30.2968 210.311 30.0379 210.674 30.6076ZM68.5481 34.3105C69.274 36.149 69.3777 36.7705 68.937 36.7705C68.4703 36.7705 67.174 35.3204 66.9926 34.5953C66.8111 33.8703 67.2259 32.6273 67.6407 32.6273C67.7703 32.6273 68.1852 33.3783 68.5481 34.3105ZM213.111 34.6212C213.111 35.2686 212.904 35.6052 212.256 36.0972C211.763 36.4857 211.193 36.7705 210.959 36.7705C210.596 36.7705 210.596 36.641 211.063 35.5276C211.348 34.8543 211.763 33.8962 211.97 33.4042L212.359 32.4979L212.722 33.1452C212.93 33.5078 213.085 34.1551 213.111 34.6212ZM91.337 39.4636C92.5814 41.3539 93.5926 43.037 93.5926 43.1406C93.5926 43.2701 92.9444 43.6844 92.1666 44.0728L90.7666 44.772L89.9889 42.3638C89.574 41.0431 89.1333 39.3341 89.0555 38.5572C88.9777 37.7804 88.8481 36.9 88.7703 36.5633C88.7185 36.2526 88.7444 35.9937 88.8481 35.9937C88.9777 35.9937 90.0666 37.5473 91.337 39.4636ZM145.47 36.5116C168.156 38.2724 189.441 47.8793 205.1 63.4421C218.141 76.3895 227.085 93.5059 230.715 112.435C231.7 117.614 232.089 121.524 232.218 128.101C232.374 135.041 232.141 138.77 231.233 144.622C226.956 171.889 209.041 197.059 183.996 211.042C172.796 217.283 160.974 220.908 147.985 222.099C143.993 222.488 132.896 222.306 128.981 221.814C109.848 219.458 91.9074 211.715 78.1926 199.907C71.0111 193.719 64.9703 186.597 60.1222 178.648C45.5518 154.643 42.0518 125.331 50.6851 99.7724C56.7 82.0345 68.3926 66.2387 84.3111 54.353C93.0222 47.8535 103.418 42.6745 113.633 39.7225C123.511 36.8741 135.048 35.7088 145.47 36.5116ZM190.996 38.1429C190.867 40.0591 189.959 43.6067 189.467 44.2023C188.767 45.0827 186.226 44.021 186.615 43.0111C186.822 42.4673 190.893 36.2526 191.048 36.2526C191.1 36.2526 191.074 37.1071 190.996 38.1429ZM71.5814 44.0469C74.2 47.6463 76.6111 51.0385 76.9481 51.6341C77.9074 53.3949 77.7518 54.0164 75.9111 55.6478C72.3852 58.7292 65.074 66.3164 62.8963 69.1389C58.3074 75.0947 54.237 81.8015 51.4111 88.0939C50.6074 89.9065 49.8814 91.3307 49.8296 91.2789C49.5703 91.0459 49.7777 88.7412 50.1666 87.4724C50.9185 84.8829 50.7889 84.4427 48.4037 81.3612C43.5296 75.1206 40.1592 68.88 37.8777 61.8366C35.8555 55.596 36.037 50.2617 38.3703 46.6105C40.6259 43.0888 44.7222 40.9655 51.7481 39.6189C55.9222 38.8421 64.2444 37.5991 65.6185 37.5732L66.8111 37.5473L71.5814 44.0469ZM222.056 38.5572C230.43 39.8261 232.504 40.344 235.822 41.9753C241.059 44.5389 243.704 48.5008 243.704 53.7575C243.704 60.5937 238.881 72.065 232.452 80.5067C229.833 83.9248 229.704 84.1579 229.704 85.4526C229.704 86.1518 229.937 87.7055 230.248 88.9484C230.767 91.2271 230.818 92.496 230.352 92.4183C230.222 92.4183 229.885 91.8486 229.626 91.2012C228.667 88.7412 225.296 82.1381 223.481 79.1084C218.633 71.1069 212.411 63.468 205.956 57.6676C204.167 56.088 202.663 54.4825 202.559 54.1718C202.248 52.9288 203.078 51.5046 207.822 45.0309C210.467 41.4057 212.826 38.2465 213.033 37.9876C213.604 37.3661 214.381 37.4179 222.056 38.5572ZM82.7555 208.22C83.5592 208.763 84.4148 209.488 84.6222 209.799C85.2703 210.705 85.1148 212.57 84.2333 214.952C83.0407 218.189 83.1185 219.328 84.8037 224.74C85.2185 226.087 85.6333 227.9 85.7111 228.78C85.9963 231.577 84.7259 235.124 82.7814 236.989L81.8481 237.843L82.0296 237.118C82.4185 235.539 82.6518 232.664 82.5481 231.292C82.2889 228.236 82.3148 228.236 80.2666 232.198C79.2296 234.218 77.9333 236.445 77.3889 237.144C76.1703 238.749 74.3037 240.2 72.5926 240.847C71.2444 241.365 68.9629 241.52 68.9629 241.106C68.9629 240.976 69.3 240.07 69.7148 239.112C71.6074 234.658 73.5 227.615 73.8111 223.989C74.0703 220.934 72.5926 218.862 70.3629 219.121L69.4814 219.225L70.0518 218.293C71.9185 215.159 74.4592 210.447 75.8592 207.469L77.4926 204.025L79.3852 205.63C80.4222 206.511 81.9518 207.676 82.7555 208.22ZM203.933 206.821C205.152 209.514 208.315 215.315 209.922 217.904C210.389 218.603 210.7 219.251 210.622 219.354C210.57 219.458 210.104 219.432 209.585 219.328C207.926 218.94 206.707 219.82 206.37 221.581C205.8 224.715 207.952 233.778 210.648 239.552C210.985 240.303 211.218 241.002 211.141 241.132C210.933 241.468 208.859 241.365 207.693 240.951C204.711 239.915 202.43 237.325 199.889 232.146C198.23 228.754 198.1 228.573 197.893 229.298C197.633 230.282 197.633 234.865 197.893 236.548L198.074 237.843L197.167 236.807C196.674 236.238 195.87 235.021 195.404 234.088C194.626 232.535 194.574 232.224 194.574 229.816C194.6 227.692 194.73 226.786 195.352 224.766C196.052 222.513 196.13 221.996 196.13 218.681C196.104 215.315 196.052 214.875 195.3 212.725C194.859 211.456 194.574 210.265 194.626 210.058C194.781 209.721 202.17 204.051 202.481 204.051C202.585 204.051 203.233 205.293 203.933 206.821ZM192.863 213.968C193.874 218.526 193.822 221.063 192.604 225.621C192.137 227.278 191.981 227.563 191.696 227.33C191.256 226.967 191.23 225.362 191.618 222.824C192.085 219.536 191.981 217.076 191.23 215.082C190.867 214.124 190.556 213.088 190.556 212.855C190.556 212.337 191.774 211.223 192.111 211.431C192.241 211.508 192.578 212.648 192.863 213.968ZM88.7444 212.156L89.4703 212.725L88.9518 214.667C88.1481 217.516 88.0185 220.261 88.5111 223.316C88.8481 225.31 88.874 226.087 88.6407 226.76C88.4852 227.226 88.2518 227.615 88.1222 227.615C87.9926 227.615 87.8889 227.537 87.8889 227.459C87.8889 227.382 87.5259 225.699 87.0592 223.756C86.1 219.639 86.0481 217.956 86.8 215.833C87.0852 214.978 87.4222 213.657 87.5259 212.907C87.6037 212.156 87.7592 211.56 87.8629 211.56C87.9407 211.56 88.3555 211.819 88.7444 212.156ZM189.726 214.771C189.907 215.341 190.193 216.687 190.322 217.749C190.685 220.235 190.348 224.766 189.804 224.766C189.57 224.766 184.852 216.92 184.67 216.273C184.567 215.859 184.93 215.548 186.459 214.693C188.767 213.399 189.285 213.424 189.726 214.771ZM93.3333 214.875C95.0703 215.729 95.2777 215.91 95.2 216.48C95.0963 217.153 90.4814 224.999 90.1703 225.025C89.8852 225.025 89.6259 221.737 89.7555 219.38C89.8852 216.946 90.637 213.891 91.1037 213.891C91.2592 213.916 92.2703 214.357 93.3333 214.875ZM71.5296 221.245C72.7481 222.695 72.074 227.019 69.3259 235.461C68.0555 239.319 67.4852 240.122 66.3963 239.526C65.8777 239.267 65.8777 239.241 66.5259 237.765C68.6259 233.156 70.2592 226.372 69.6889 224.715C69.3777 223.834 68.6 223.756 67.7444 224.559C67.4074 224.87 67.0703 225.051 66.9926 224.948C66.7852 224.766 67.2777 223.316 67.8222 222.488C68.6777 221.167 70.8555 220.442 71.5296 221.245ZM210.778 221.452C211.581 221.866 212.126 222.384 212.541 223.161C213.293 224.481 213.189 224.999 212.359 224.274C211.633 223.627 211.53 223.627 210.907 224.067C210.493 224.404 210.467 224.715 210.596 227.252C210.778 230.593 211.348 232.742 212.981 236.108C213.63 237.455 214.148 238.698 214.148 238.879C214.148 239.475 213.474 239.811 212.774 239.552C212.281 239.371 211.97 238.853 211.478 237.532C208.859 230.463 207.407 223.523 208.185 221.659C208.574 220.701 209.196 220.649 210.778 221.452ZM214.07 226.76C214.148 227.019 214.822 228.029 215.574 229.039C217.363 231.395 217.7 232.509 217.259 234.658C216.793 237.144 216.118 237.714 215.911 235.797C215.833 235.15 215.185 233.363 214.433 231.836C213.448 229.738 213.111 228.728 213.111 227.848C213.111 227.2 213.189 226.579 213.293 226.501C213.578 226.191 213.889 226.294 214.07 226.76ZM202.896 239.449C203.648 240.2 204.815 241.08 205.463 241.365C206.604 241.883 206.656 241.935 206.241 242.375C205.126 243.592 202.43 243.462 201.159 242.09C200.356 241.235 199.474 238.257 199.215 235.642L199.059 233.959L200.304 236.005C200.978 237.118 202.144 238.672 202.896 239.449ZM80.6296 237.791C80.4481 239.008 80.0592 240.174 79.4629 241.209C78.1926 243.488 77 243.903 74.7963 242.867C74.1481 242.556 73.5777 242.219 73.5 242.142C73.4481 242.038 73.8629 241.753 74.4074 241.494C75.8852 240.847 77.9592 238.827 79.4629 236.6C80.5777 234.917 80.7592 234.736 80.837 235.28C80.8889 235.642 80.7852 236.756 80.6296 237.791Z" fill="black"/>
<path d="M132.222 43.27C128.515 43.5549 122.111 44.5906 118.637 45.4711C90.6629 52.5403 67.4333 74.1106 57.8148 101.947C53.1222 115.516 52.1629 131.157 55.1185 145.787C58.9296 164.716 68.6777 181.807 82.3666 193.615C94.474 204.076 107.722 210.524 123.407 213.606C130.252 214.952 134.011 215.263 142.307 215.108C149.8 214.978 151.667 214.797 157.63 213.606C168.726 211.379 181.3 205.682 190.659 198.613C202.378 189.782 211.193 179.217 217.518 166.374C221.926 157.44 224.181 149.775 225.478 139.495C225.996 135.3 226.048 125.408 225.607 121.317C223.274 100.86 214.926 82.63 201.6 68.9317C184.152 51.0125 158.018 41.3538 132.222 43.27ZM146.767 46.8694C157.293 47.9052 166.833 50.5982 176.167 55.1298C185.578 59.7132 191.981 64.2965 199.007 71.5471C211.011 83.8989 218.763 100.497 221.304 119.245C221.874 123.492 221.952 133.979 221.433 138.148C218.789 160.003 208.107 179.01 190.633 192.942C186.2 196.463 182.207 199.053 176.996 201.72C168.804 205.915 161.441 208.245 151.407 209.773C146.3 210.576 134.685 210.628 129.5 209.903C107.333 206.847 89.237 196.67 75.5481 179.606C72.7481 176.11 70.1814 172.226 70.7777 172.381C71.2444 172.511 71.2962 172.381 71.2962 171.009C71.2962 168.73 71.4777 168.316 72.4111 168.316C73.7333 168.316 74.4074 169.17 74.4074 170.931C74.4074 172.588 74.874 173.287 75.5999 172.692C76.3777 172.045 75.5481 168.083 74.5111 167.461C73.9666 167.15 74.0703 166.503 74.9259 165.079C75.3407 164.354 75.7036 163.447 75.7036 163.033V162.256L74.7962 163.137C74.2777 163.629 73.5777 164.639 73.1888 165.39C72.4888 166.814 72.1259 167.021 71.4518 166.348C71.1407 166.037 71.0629 165.649 71.1925 164.587C71.3222 163.525 71.2703 163.189 70.9073 162.878C70.1296 162.23 69.974 163.059 70.0518 167.591C70.1036 169.947 70.1036 171.889 70.1036 171.863C68.7814 170.18 64.7888 162.308 63.1555 158.165C56.4925 141.256 55.8185 121.213 61.3666 103.967C68.2111 82.6559 84.0259 64.4519 104.352 54.5083C112.907 50.3134 121.489 47.8793 130.926 46.8953C134.089 46.5845 143.63 46.5586 146.767 46.8694Z" fill="black"/>
<path d="M126.674 50.7537C124.963 52.6958 124.341 54.4567 124.341 57.4864C124.341 60.2312 124.6 61.0339 126.467 63.9341C128.229 66.6272 128.229 68.0514 126.518 69.6051C125.274 70.7186 125.196 71.4954 126.129 73.4893C127.4 76.1824 127.322 77.736 125.87 78.3316C124.885 78.7459 124.548 79.471 124.963 80.2478C125.3 80.9211 126.026 81.3095 126.881 81.3095H127.555L126.804 82.3453C126.389 82.915 125.896 83.9767 125.741 84.7017C125.326 86.4108 125.533 89.2074 126.129 90.3727L126.622 91.279L126.985 90.295C127.192 89.7771 127.426 89.3369 127.529 89.3369C127.607 89.3369 128.074 90.3727 128.567 91.6156C129.941 95.1632 132.533 100.472 132.87 100.472C133.233 100.472 135.074 98.5295 135.074 98.1411C135.074 97.3901 135.722 98.0893 136.448 99.6171C137.174 101.197 137.278 101.637 137.278 103.76C137.278 105.21 137.381 106.168 137.537 106.168C138.055 106.168 140.441 104.382 141.97 102.854C142.826 101.974 143.967 100.523 144.511 99.5912C145.055 98.6331 145.548 97.8821 145.574 97.8821C145.6 97.8821 146.17 98.5295 146.818 99.3322L148.011 100.756L148.633 99.7725C149.929 97.7009 152.107 92.9104 153.17 89.7253L153.429 88.9485L153.922 90.0878C154.311 90.9682 154.467 91.1236 154.674 90.8647C155.244 90.1655 155.555 88.7154 155.555 86.9028C155.555 85.4009 155.426 84.7535 154.804 83.4847C154.389 82.6042 153.922 81.8015 153.767 81.7238C153.196 81.3613 153.507 81.0506 154.389 81.0506C155.27 81.0506 156.592 80.5845 156.592 80.2737C156.592 80.196 156.178 79.704 155.659 79.212C154.415 78.0209 154 77.1664 154 75.7421C154 74.7581 154.129 74.3956 154.752 73.7741C155.192 73.3598 155.581 72.7901 155.685 72.5312C155.892 71.8838 155.296 70.615 154.104 69.139C153.274 68.1032 153.17 67.8701 153.274 66.8085C153.352 65.9539 153.715 65.1512 154.492 63.9859C156.048 61.7072 156.592 60.3348 156.774 58.315C157.007 55.4666 155.97 52.3851 154.129 50.4171C153.767 50.0287 153.378 49.7179 153.274 49.7179C153.17 49.7179 153.092 50.8055 153.067 52.1261C153.041 54.9746 152.418 56.6318 150.992 57.4864C148.867 58.807 147.467 58.6257 145.704 56.8131C143.889 54.9746 142.852 54.5085 140.389 54.5085C137.874 54.5085 136.681 55.0522 135.229 56.8131C134.115 58.1855 132.974 58.6257 131.522 58.2114C129.033 57.5381 127.97 55.6219 127.944 51.8413C127.944 50.5466 127.918 49.459 127.892 49.459C127.892 49.459 127.322 50.0546 126.674 50.7537ZM155.4 57.2274C155.374 59.791 154.752 61.759 153.404 63.2868L152.574 64.2708L151.615 62.5876C151.07 61.6813 150.629 60.775 150.629 60.5937C150.629 60.4125 151.096 59.7392 151.692 59.1177C152.911 57.7971 153.87 55.7773 154.155 53.9647L154.337 52.6958L154.881 53.8611C155.27 54.7415 155.4 55.5442 155.4 57.2274ZM127.167 54.7933C127.504 56.58 127.944 57.5122 129.215 59.0141C130.278 60.283 130.355 60.9821 129.655 62.3805C128.904 63.8565 128.437 64.1413 127.815 63.5716C126.752 62.6135 125.715 59.9981 125.559 57.9525C125.404 55.855 126.026 52.9548 126.596 53.1619C126.752 53.2137 127.011 53.9388 127.167 54.7933ZM141.918 56.0104C142.437 56.7354 142.463 56.9944 142.385 63.3904C142.333 67.0415 142.178 70.1489 142.048 70.2784C141.685 70.6668 139.326 70.5891 138.833 70.1748C138.47 69.864 138.418 69.0613 138.496 63.0278C138.574 56.7354 138.6 56.2175 139.067 55.6996C139.818 54.8969 141.192 55.0522 141.918 56.0104ZM136.967 70.2007C136.681 70.4596 129.604 69.7087 129.215 69.372C128.8 69.0354 129.396 66.7049 130.537 64.3485C131.678 61.992 133.415 59.8946 135.411 58.3668L137.018 57.1756L137.096 63.5975C137.122 67.1192 137.07 70.0971 136.967 70.2007ZM145.963 58.548C147.804 60.0758 149.541 62.3028 150.629 64.5815C151.381 66.187 152.289 69.139 152.081 69.3461C151.77 69.631 149.67 69.9417 146.948 70.0971L143.889 70.2525V63.7529C143.889 59.8169 143.992 57.2274 144.122 57.2274C144.278 57.2274 145.107 57.823 145.963 58.548ZM154.129 71.2365C154.389 71.9874 154.104 72.8419 153.507 73.2045C152.496 73.8259 145.678 74.1367 136.759 73.9554C129.059 73.8 128.152 73.7482 127.555 73.308C126.804 72.7642 126.596 71.8838 127.089 71.2882C127.452 70.848 128.852 70.8739 134.426 71.4954C137.848 71.8579 147.596 71.6249 150.889 71.107C153.948 70.615 153.948 70.615 154.129 71.2365ZM152.47 76.4154C152.626 77.3217 152.911 78.3316 153.118 78.6424C153.611 79.4192 153.585 79.4969 152.781 79.4969C151.07 79.5228 151.07 80.3773 152.729 83.6918C153.689 85.608 154.026 87.0064 153.507 87.0064C153.17 87.0064 151.407 84.8571 149.748 82.3712C148.218 80.0666 148.089 79.7558 148.659 79.7558C149.774 79.7558 151.226 77.6325 151.537 75.535C151.796 73.9295 152.133 74.2661 152.47 76.4154ZM130.226 77.8655C130.692 78.7459 131.833 79.7558 132.378 79.7558C132.585 79.7558 132.741 79.8335 132.741 79.9371C132.715 80.6621 128.048 86.9546 127.504 86.9805C126.985 87.0322 127.374 85.3232 128.229 83.7177C129.889 80.6362 129.889 79.4969 128.307 79.4969C127.633 79.4969 127.529 79.4192 127.685 79.0308C127.789 78.7977 128.178 77.6842 128.567 76.5708L129.241 74.5769L129.526 75.7939C129.681 76.4931 129.992 77.3994 130.226 77.8655ZM131.833 75.6127C132.922 77.3476 134.97 77.6325 136.578 76.26C137.874 75.1725 138.367 75.4832 137.381 76.752C135.748 78.8236 132.585 78.6165 131.185 76.3377C130.641 75.4314 130.511 74.5769 130.926 74.5769C131.055 74.5769 131.47 75.043 131.833 75.6127ZM148.296 75.0948C148.296 75.5868 147.259 76.3895 146.637 76.3895C146.3 76.3895 145.755 76.1565 145.418 75.8975L144.796 75.4055L145.444 75.2501C145.807 75.1725 146.559 75.0689 147.129 75.0171C147.7 74.9653 148.192 74.9135 148.244 74.8876C148.27 74.8617 148.296 74.9394 148.296 75.0948ZM150.37 75.1466C150.37 75.3278 150.137 75.8716 149.852 76.3377C148.452 78.6165 145.289 78.8236 143.655 76.752C142.592 75.4055 143.215 75.1984 144.77 76.3895C146.352 77.5807 147.492 77.4771 148.867 76.0011C150.007 74.8099 150.37 74.6028 150.37 75.1466ZM135.67 75.3278C136.085 75.4832 136.111 75.5609 135.8 75.7939C134.918 76.5449 133.104 76.3118 132.792 75.4055C132.689 75.0689 134.841 74.9912 135.67 75.3278ZM141.296 75.8716C141.581 76.1565 141.815 76.4931 141.815 76.6226C141.815 76.7261 142.152 77.2699 142.567 77.7878C143.629 79.1085 143.137 80.2737 141.322 80.7916C140.544 80.9988 140.207 80.947 139.248 80.455C137.459 79.5746 137.407 79.3415 138.781 77.2181C139.455 76.1824 140.155 75.3537 140.389 75.3537C140.596 75.3537 141.011 75.5868 141.296 75.8716ZM137.744 81.2836C139.274 82.3194 139.741 82.915 139.922 84.0026L140.078 84.9348H138.963C136.863 84.9348 135.411 86.0741 135.1 87.9386C135.022 88.4306 134.841 88.8449 134.685 88.8708C134.244 88.8967 132.922 85.9447 132.792 84.624C132.663 83.1221 133.052 82.0346 134.089 81.18C135.126 80.2996 136.37 80.3255 137.744 81.2836ZM147.104 81.4131C148.607 82.9409 148.659 84.9866 147.233 87.4984L146.429 88.8967L145.729 87.4984C145.185 86.3849 144.822 85.9706 143.889 85.5045C143.267 85.1937 142.359 84.9348 141.892 84.9348C141.115 84.9348 141.037 84.8571 141.037 84.1579C141.037 83.6659 141.322 83.0704 141.867 82.4489C143.785 80.2737 145.6 79.9371 147.104 81.4131ZM131.626 86.0224C131.807 86.6438 132.429 87.9386 133.052 88.9485C134.141 90.7352 134.167 90.787 134.167 93.0916C134.141 95.4998 133.674 97.7527 133.259 97.4937C133.129 97.416 132.844 96.7428 132.611 96.0177C132.404 95.3186 131.704 93.8944 131.055 92.8845C130.044 91.3049 129.889 90.8647 129.889 89.6735C129.889 88.3788 130.822 84.9348 131.159 84.9348C131.263 84.9348 131.47 85.4268 131.626 86.0224ZM150.5 86.0224C151.511 88.4565 151.2 90.7611 149.489 93.739C148.867 94.8007 148.192 96.1472 148.011 96.7169L147.7 97.7527L147.311 96.8464C147.104 96.3544 146.87 94.9819 146.792 93.8167L146.689 91.6933L148.192 88.4565C149.048 86.6697 149.826 85.1937 149.929 85.1937C150.033 85.1937 150.292 85.5821 150.5 86.0224ZM142.955 86.851C144.641 87.5501 145.341 90.7352 144.563 94.1015C143.837 97.1571 140.804 102.284 139.741 102.284C139.222 102.284 139.222 102.258 139.637 101.3C140.648 99.0733 141.011 97.6491 141.037 96.1731C141.063 92.1594 139.481 91.9522 138.833 95.8882C138.729 96.4838 138.548 96.8464 138.367 96.7687C138.185 96.7169 137.641 95.8882 137.148 94.9042C136.344 93.3506 136.241 92.9104 136.241 91.1754C136.241 88.6636 136.863 87.2912 138.185 86.8251C139.429 86.4108 141.918 86.4108 142.955 86.851Z" fill="black"/>
<path d="M76.8184 98.4001C74.4073 98.7367 71.5554 99.5912 68.211 101.015C64.6332 102.517 63.6999 103.061 63.1036 103.967C62.6628 104.615 62.6888 104.692 63.2591 105.858C63.8295 106.997 63.8813 107.515 64.0628 112.901C64.1665 116.112 64.2702 123 64.2702 128.205C64.2962 138.899 64.1925 139.78 62.585 141.282L61.7295 142.11L64.0369 142.292C69.1962 142.706 76.9221 141.722 82.9628 139.935C88.848 138.174 91.8554 135.171 92.9702 129.992C94.1888 124.269 91.3369 117.433 85.8406 113.031C84.985 112.306 84.2591 111.555 84.2591 111.322C84.2591 110.7 85.2443 109.923 87.3702 108.965C90.5073 107.515 91.4147 106.117 90.4813 104.226C89.8073 102.932 89.0554 102.051 87.4999 100.86C84.7776 98.7885 80.7332 97.8563 76.8184 98.4001ZM81.7962 102.647C83.4554 103.346 84.2591 105.599 83.3258 106.919C83.0925 107.256 81.0962 108.836 78.9184 110.467C76.1443 112.539 74.8739 113.626 74.7702 114.092C74.6665 114.455 74.6406 114.766 74.6925 114.817C74.7443 114.843 75.8591 115.439 77.1295 116.138C84.2591 119.97 87.5776 123.466 88.4332 128.05C88.6665 129.318 88.6147 129.784 88.1739 131.286C86.7999 135.792 82.0813 138.407 74.2517 138.951C70.6739 139.21 70.9591 140.712 71.1147 123.078C71.1925 112.435 71.3221 108.059 71.5554 107.282C72.385 104.485 75.7554 102.336 79.411 102.31C80.2406 102.284 81.3036 102.44 81.7962 102.647Z" fill="black"/>
<path d="M109.563 108.732C108.474 109.276 106.815 110.286 105.856 110.985C103.833 112.409 100.204 115.931 99.1666 117.51C98.7777 118.106 98.3629 118.52 98.2592 118.468C98.1296 118.391 97.974 117.614 97.8703 116.708C97.6629 114.688 98.2074 111.917 99.2185 110.027C99.6074 109.25 99.9703 108.551 100.022 108.421C100.074 108.318 98.7 108.24 96.9888 108.24C95.2518 108.24 93.8518 108.292 93.8518 108.369C93.8518 108.421 94.1888 109.017 94.6037 109.664C95.7963 111.529 96.0296 113.523 95.874 120.281C95.6407 129.655 96.1851 134.471 97.974 138.925C98.8296 141.075 100.67 144.052 101.63 144.881L102.226 145.399L102.044 144.26C101.941 143.638 101.37 141.903 100.748 140.375C99.4 137.139 99.037 135.404 99.037 132.193C99.037 125.408 102.848 119.245 108.941 116.112C109.9 115.62 110.963 115.232 111.326 115.232C112.648 115.232 112.648 115.18 112.57 127.635C112.518 134.264 112.389 139.521 112.233 140.013C112.078 140.453 111.559 141.126 111.067 141.515C110.6 141.877 110.185 142.292 110.185 142.447C110.185 142.706 116.485 142.784 116.744 142.525C116.848 142.421 116.615 142.007 116.278 141.592C115.085 140.194 115.033 139.547 114.93 127.972C114.8 115.646 114.878 114.74 116.278 113.186L117.159 112.228L116.511 111.063C115.267 108.913 113.789 107.722 112.285 107.722C111.87 107.722 110.626 108.188 109.563 108.732Z" fill="black"/>
<path d="M162.27 108.577C158.667 110.441 155.322 113.082 153.041 115.853C152.367 116.682 151.537 117.691 151.2 118.054L150.63 118.727L150.681 114.688C150.759 110.286 150.863 109.949 152.392 109.198C153.896 108.473 152.833 108.059 149.307 108.007C148.063 108.007 146.689 108.059 146.248 108.136L145.444 108.318L146.43 109.379C148.296 111.399 148.426 112.098 148.037 118.468C147.415 128.697 148.296 135.196 151.018 140.608C152.081 142.732 154.181 145.606 154.518 145.399C155.011 145.088 154.752 144.078 153.507 141.515C151.744 137.967 151.304 136.206 151.304 132.581C151.304 130.173 151.407 129.241 151.9 127.661C153.533 122.327 157.085 118.132 161.907 115.801C164.811 114.377 164.5 113.056 164.578 127.273C164.63 136.154 164.552 139.909 164.344 140.427C164.189 140.815 163.696 141.333 163.307 141.566C162.115 142.291 162.4 142.602 164.396 142.783C166.626 142.991 169.555 142.732 169.555 142.317C169.555 142.162 169.167 141.722 168.674 141.333C167.274 140.22 167.196 139.391 167.274 126.34C167.352 115.646 167.378 114.765 167.844 114.092C168.104 113.678 168.544 113.289 168.804 113.238C169.633 113.005 169.426 111.606 168.389 110.234C166.392 107.618 164.863 107.204 162.27 108.577Z" fill="black"/>
<path d="M121.541 108.188C120.426 108.24 119.518 108.344 119.518 108.473C119.518 108.577 119.804 108.939 120.167 109.276C120.53 109.612 120.918 110.312 121.074 110.804C121.437 112.15 121.411 137.864 121.048 139.624C120.841 140.557 120.478 141.256 119.907 141.826C119.259 142.473 119.155 142.68 119.467 142.81C120.192 143.094 125.352 143.276 127.115 143.094L128.852 142.887L128.23 142.136C127.063 140.764 126.959 139.909 126.855 131.675C126.778 124.606 126.804 123.829 127.218 123C127.789 121.887 128.748 121.654 130.667 122.146C132.767 122.663 134.504 123.725 136.396 125.59C140.726 129.836 141.711 135.947 138.963 141.385C138.522 142.266 137.77 143.405 137.278 143.949C136.241 145.088 136.189 145.27 136.837 145.27C138.315 145.27 141.581 142.084 143.007 139.262C145.73 133.876 145.081 128.075 141.296 123.311C139.974 121.679 137.148 119.608 135.307 118.96C133.881 118.443 133.467 117.951 133.7 117.096C133.778 116.785 135.981 114.662 138.6 112.357C141.218 110.079 143.37 108.136 143.37 108.059C143.37 107.903 133.233 108.24 132.948 108.395C132.87 108.447 133.181 108.887 133.674 109.379C134.192 109.897 134.555 110.519 134.555 110.881C134.555 112.668 130.407 116.941 127.918 117.666C127.167 117.899 127.011 117.433 126.855 114.662C126.726 112.59 126.752 112.28 127.4 110.985C127.815 110.156 128.437 109.354 128.904 109.043L129.733 108.525L129.111 108.395C128.23 108.214 123.952 108.085 121.541 108.188Z" fill="black"/>
<path d="M172.33 108.214L171.059 108.369L171.863 109.12C172.304 109.535 172.874 110.415 173.107 111.062C173.626 112.409 173.678 115.801 173.367 128.049C173.056 139.521 172.926 140.427 171.474 141.774C171.085 142.136 170.852 142.524 170.956 142.628C171.215 142.887 180.885 142.861 181.144 142.602C181.248 142.473 181.093 142.188 180.781 141.955C180.47 141.722 179.926 140.919 179.615 140.22C179.019 138.951 179.019 138.77 179.019 129.836C179.019 121.239 179.044 120.695 179.511 120.177C179.978 119.685 180.263 119.634 183.737 119.634C187.133 119.634 187.496 119.685 187.989 120.177C188.507 120.695 188.507 120.902 188.43 129.94C188.352 138.278 188.3 139.288 187.859 140.298C187.6 140.893 187.107 141.618 186.744 141.903L186.096 142.395L186.848 142.602C188.015 142.939 195.274 142.835 195.87 142.499C196.156 142.317 196.233 142.162 196.078 142.162C195.896 142.162 195.481 141.67 195.17 141.048C194.652 140.064 194.6 139.495 194.496 135.559C194.47 133.125 194.522 126.599 194.626 121.058C194.833 110.959 194.833 110.933 195.507 109.612L196.156 108.292L191.593 108.188C189.104 108.136 187.004 108.11 186.952 108.162C186.9 108.188 187.185 108.965 187.574 109.845C188.585 112.046 188.793 115.309 188.041 116.241C187.47 116.94 185.63 117.277 181.974 117.277C180.289 117.303 179.926 117.225 179.511 116.759C178.578 115.723 179.07 111.114 180.341 109.094C180.548 108.784 180.6 108.473 180.496 108.421C180.159 108.188 173.6 108.033 172.33 108.214Z" fill="black"/>
<path d="M203.985 109.509C199.656 109.612 197.737 109.768 197.53 109.975C197.348 110.156 197.244 110.337 197.322 110.363C197.374 110.415 197.763 110.622 198.204 110.829C199.293 111.399 200.07 112.668 200.226 114.247C200.33 114.998 200.304 121.265 200.174 128.179C199.967 141.67 199.941 141.877 198.541 143.379L198.022 143.923L199.267 144.13C200.511 144.311 208.107 144.13 208.341 143.897C208.393 143.845 208.107 143.431 207.693 142.965C207.278 142.525 206.733 141.592 206.5 140.919C205.826 139.003 205.567 133.358 205.644 123.44C205.722 115.024 205.748 114.247 206.215 113.341C207.278 111.347 210.259 110.803 212.93 112.124C213.552 112.435 215.263 113.807 216.741 115.18C218.219 116.526 219.489 117.51 219.541 117.355C219.696 116.837 216.326 110.156 215.678 109.716C215.004 109.25 215.367 109.25 203.985 109.509Z" fill="black"/>
<path d="M88.9259 150.008C88.4333 150.19 87.9926 150.526 87.9407 150.759C87.863 151.199 90.5333 151.225 141.4 151.225C175.544 151.225 195.17 151.122 195.585 150.966C196.415 150.656 196.441 150.319 195.689 150.034C195.352 149.905 171.422 149.775 142.463 149.749C101.993 149.698 89.6259 149.775 88.9259 150.008Z" fill="black"/>
<path d="M66.4481 152.624L65.7222 153.245L65.774 156.689C65.8259 160.185 66.0333 160.91 66.7592 160.288C67.0703 160.029 67.1481 159.382 67.1481 157.259C67.1481 154.151 67.3555 153.556 68.4444 153.556H69.2222V156.456C69.2222 158.061 69.2999 159.641 69.3777 159.952C69.5851 160.754 70.2074 160.703 70.5185 159.874C70.8555 158.994 70.8555 154.358 70.4925 153.349C69.9999 151.95 67.7185 151.536 66.4481 152.624Z" fill="black"/>
<path d="M73.0332 152.52C72.1517 153.219 71.8147 154.902 71.8147 158.709C71.8147 161.609 72.1258 163.396 72.6184 163.396C72.8777 163.396 73.3703 161.713 73.3703 160.754C73.3703 160.107 73.4221 160.081 74.2517 160.211C75.3665 160.392 76.0406 160.004 76.5851 158.864C77.1554 157.673 77.1814 154.669 76.6369 153.582C75.8073 152.002 74.2777 151.562 73.0332 152.52ZM75.5221 155.705C75.7554 157.906 75.4184 158.994 74.4591 158.994C73.6036 158.994 73.3703 158.424 73.3703 156.378C73.3703 154.177 73.7332 153.452 74.7703 153.608C75.2369 153.685 75.3406 153.918 75.5221 155.705Z" fill="black"/>
<path d="M78.8407 152.675C77.7518 154.048 77.5185 157.932 78.4518 159.175C79.6444 160.78 81.2 160.884 82.2889 159.434C82.937 158.554 83.1963 155.394 82.7037 153.944C82.1074 152.158 79.8518 151.407 78.8407 152.675ZM81.3037 154.229C81.5889 154.643 81.7444 155.446 81.7703 156.456C81.7963 157.777 81.7185 158.087 81.174 158.502C80.5518 159.02 79.7222 159.149 79.4889 158.761C79.4111 158.631 79.2555 157.725 79.1777 156.715C79.0222 155.213 79.074 154.747 79.437 154.203C79.9814 153.375 80.7592 153.375 81.3037 154.229Z" fill="black"/>
<path d="M84.1556 152.183C84.0778 152.287 84 153.608 84 155.161C84 158.191 84.2593 159.123 85.3481 159.874C85.9444 160.314 87.2926 160.418 87.7852 160.081C88.4593 159.641 88.6667 158.631 88.6667 155.834C88.6667 153.685 88.563 152.727 88.3037 152.365C88.0963 152.106 87.863 151.95 87.7593 152.028C87.6815 152.132 87.5519 153.633 87.5 155.368C87.4222 157.103 87.3185 158.631 87.2407 158.761C86.9815 159.175 86.1778 159.02 85.6593 158.45C85.2444 157.984 85.1667 157.466 85.1407 155.394C85.1407 154.022 85.1148 152.779 85.0889 152.624C85.037 152.261 84.3889 151.976 84.1556 152.183Z" fill="black"/>
<path d="M198.593 153.789L198.307 155.55L197.478 155.394C196.752 155.239 196.648 155.109 196.57 154.333C196.467 152.857 196.259 152.261 195.896 152.261C195.326 152.261 195.222 152.882 195.222 156.689C195.222 159.719 195.3 160.34 195.611 160.47C196.207 160.677 196.259 160.547 196.57 158.502C196.778 157.077 196.933 156.663 197.27 156.663C198.281 156.689 198.904 157.88 198.67 159.382C198.515 160.262 198.567 160.34 199.137 160.237C199.759 160.159 199.759 160.133 199.837 156.663C199.915 152.857 199.811 152.002 199.267 152.002C199.007 152.002 198.8 152.572 198.593 153.789Z" fill="black"/>
<path d="M201.341 152.96C201.082 154.669 201.185 157.673 201.548 158.554C202.274 160.314 204.556 160.91 205.567 159.615C206.059 158.994 206.111 158.579 206.111 155.757C206.111 153.193 206.033 152.52 205.696 152.235C205.359 151.976 205.256 151.976 205.048 152.287C204.815 152.675 204.685 154.488 204.789 156.456C204.919 158.554 204.219 159.486 203.233 158.579C202.819 158.217 202.741 157.751 202.741 155.731C202.741 154.41 202.637 153.038 202.482 152.675C202.119 151.691 201.548 151.847 201.341 152.96Z" fill="black"/>
<path d="M208.548 152.261C207.2 152.805 206.759 154.643 207.563 156.223C207.978 156.974 207.952 157.129 207.537 158.346C206.759 160.651 207.096 160.858 208.574 159.045C209.3 158.191 210.052 157.492 210.259 157.518C210.518 157.544 210.7 157.984 210.778 158.864C210.881 159.77 211.037 160.185 211.322 160.237C211.867 160.34 212.074 159.33 212.074 156.818C212.074 154.669 211.737 153.297 211.089 152.701C210.493 152.157 209.274 151.95 208.548 152.261ZM210.415 154.203C210.778 154.747 210.804 155.006 210.57 155.498C210.026 156.663 208.444 155.964 208.444 154.566C208.444 153.4 209.741 153.167 210.415 154.203Z" fill="black"/>
<path d="M90.8704 152.572C89.8074 153.141 89.4444 154.048 89.937 154.825C90.1444 155.135 90.3259 155.032 90.8963 154.358C91.8037 153.271 92.6852 153.323 92.6852 154.462C92.6852 155.161 92.5815 155.265 91.7778 155.368C91.0778 155.472 90.8704 155.627 90.8704 156.016C90.8704 156.404 91.0778 156.559 91.6481 156.611C92.6593 156.741 93.0741 157.103 93.0741 157.854C93.0741 159.123 91.4148 159.175 90.5333 157.906C90.0926 157.285 89.7296 157.518 89.8852 158.346C90.0926 159.33 91.2074 160.288 92.1667 160.288C92.8148 160.288 93.2037 160.081 93.7222 159.46C94.3444 158.735 94.3963 158.502 94.2407 157.44C94.137 156.793 94.0852 155.601 94.1111 154.799C94.137 153.633 94.0333 153.219 93.6185 152.805C93.0222 152.209 91.7259 152.106 90.8704 152.572Z" fill="black"/>
<path d="M96.5222 152.649C95.6148 153.271 95.3296 154.643 95.5111 157.129C95.7703 160.185 95.9 160.366 97.6629 160.236C98.7 160.133 99.2444 159.952 99.7111 159.486C100.333 158.864 100.333 158.786 100.178 156.145C100.022 153.815 99.9185 153.374 99.4 152.856C98.7 152.157 97.3518 152.054 96.5222 152.649ZM98.4926 153.918C98.9074 154.436 98.4148 155.368 97.7407 155.368C97.0666 155.368 96.574 154.436 96.9888 153.918C97.1444 153.711 97.4814 153.556 97.7407 153.556C98 153.556 98.337 153.711 98.4926 153.918ZM98.8037 157.207C99.2185 157.984 98.7259 158.994 97.9222 158.994C96.2111 158.994 96.3407 156.689 98.0518 156.663C98.3111 156.663 98.6222 156.922 98.8037 157.207Z" fill="black"/>
<path d="M102.122 152.753C101.552 153.193 101.5 153.478 101.422 155.808C101.37 157.854 101.448 158.527 101.811 159.252C102.226 160.055 102.407 160.159 103.419 160.236C104.352 160.314 104.663 160.211 105.285 159.615C106.504 158.45 106.919 155.964 106.193 154.229C105.441 152.442 103.419 151.717 102.122 152.753ZM104.689 153.996C105.13 154.85 105.311 156.922 105 157.828C104.793 158.45 104.507 158.786 104.041 158.89C103.159 159.123 102.744 158.553 102.537 156.818C102.304 155.006 102.874 153.556 103.807 153.556C104.17 153.556 104.559 153.763 104.689 153.996Z" fill="black"/>
<path d="M108.63 152.779C107.852 153.556 107.593 154.41 107.593 156.223C107.593 157.388 107.411 158.217 106.944 159.201C106.193 160.832 106.141 161.272 106.711 161.505C106.97 161.609 107.333 161.402 107.67 160.962C108.733 159.667 111.559 159.848 111.896 161.221C112.078 161.946 112.415 162.023 112.752 161.376C112.907 161.091 112.83 160.34 112.493 159.123C112.233 158.113 112.026 156.378 112.026 155.213C112 153.53 111.896 153.038 111.533 152.701C110.859 152.08 109.278 152.132 108.63 152.779ZM110.911 155.99C110.989 158.528 110.807 158.994 109.641 158.994H108.889V156.844C108.889 155.006 108.967 154.592 109.433 154.1C109.719 153.789 110.159 153.556 110.393 153.608C110.756 153.685 110.859 154.1 110.911 155.99Z" fill="black"/>
<path d="M114.878 152.598C113.659 153.219 113.167 154.229 113.167 156.093C113.193 158.191 113.737 159.356 114.956 159.952C116.485 160.677 118.222 159.745 118.222 158.217C118.222 157.259 117.445 157.129 117.056 158.01C116.719 158.761 115.733 158.916 115.085 158.32C114.359 157.673 114.385 154.799 115.111 154.074C115.811 153.374 116.045 153.426 116.978 154.333C117.393 154.747 117.782 155.109 117.833 155.109C118.093 155.109 118.17 154.229 117.937 153.556C117.496 152.313 116.226 151.898 114.878 152.598Z" fill="black"/>
<path d="M119.052 152.442C118.326 152.572 118.43 153.064 119.259 153.478C120.193 153.944 120.296 154.307 120.141 156.793C119.985 159.227 120.244 160.547 120.919 160.547C121.411 160.547 121.593 159.382 121.593 156.249C121.593 154.203 121.67 153.556 121.93 153.556C122.344 153.556 123.33 152.857 123.148 152.701C122.941 152.494 119.726 152.287 119.052 152.442Z" fill="black"/>
<path d="M124.704 152.96C123.693 153.866 123.382 155.213 123.589 157.543C123.77 159.563 124.263 160.288 125.43 160.288C126.622 160.288 128.048 159.77 128.333 159.227C128.644 158.683 128.463 155.42 128.048 153.763C127.633 152.131 126.052 151.743 124.704 152.96ZM126.907 153.841C127.27 154.384 126.778 155.368 126.182 155.368C125.17 155.368 124.833 154.98 125.17 154.229C125.482 153.53 126.57 153.271 126.907 153.841ZM127.244 157.751C127.193 158.398 127.011 158.657 126.441 158.838C125.585 159.149 125.3 158.916 125.067 157.751L124.911 156.922H126.104C127.322 156.922 127.322 156.922 127.244 157.751Z" fill="black"/>
<path d="M131.03 152.546C130.07 153.038 129.63 154.151 129.63 156.119C129.63 159.123 130.381 160.288 132.326 160.288C133.415 160.288 134.296 159.33 134.296 158.139V157.336L133.544 158.061C132.689 158.89 131.133 158.942 130.978 158.165C130.9 157.699 131.004 157.621 132.948 156.922C133.856 156.559 134.556 155.524 134.556 154.488C134.556 153.012 132.43 151.847 131.03 152.546ZM132.844 154.048C133.207 154.436 133.233 154.669 133.026 155.083C132.715 155.653 131.652 156.042 131.211 155.757C130.796 155.524 130.874 154.436 131.341 153.97C131.885 153.426 132.3 153.452 132.844 154.048Z" fill="black"/>
<path d="M139.352 152.598C139.274 152.753 139.119 153.426 139.015 154.074C138.833 155.187 138.782 155.239 137.926 155.239C137.019 155.239 137.019 155.213 136.889 153.944C136.733 152.365 136.033 151.976 135.748 153.323C135.437 154.902 135.567 159.641 135.93 160.159C136.5 160.91 136.889 160.366 136.889 158.89C136.889 157.388 137.459 156.534 138.367 156.715C138.73 156.793 138.859 157.155 139.015 158.45C139.222 160.262 139.533 160.858 140.078 160.34C140.415 159.978 140.674 154.876 140.415 153.426C140.233 152.546 139.559 152.028 139.352 152.598Z" fill="black"/>
<path d="M148.685 152.908C148.322 153.245 148.037 153.841 148.037 154.203V154.876L148.996 154.203C150.163 153.426 150.422 153.4 151.019 154.074C151.407 154.488 151.407 154.643 151.148 154.98C150.967 155.187 150.604 155.368 150.319 155.368C148.167 155.368 146.922 158.243 148.452 159.641C149.23 160.366 150.707 160.495 151.459 159.926C153.119 158.683 153.093 153.426 151.459 152.546C150.552 152.054 149.359 152.209 148.685 152.908ZM150.915 156.922C151.174 157.077 151.407 157.388 151.407 157.621C151.407 158.139 150.682 158.994 150.215 158.994C149.774 158.994 149.074 158.269 149.074 157.828C149.074 157.414 149.774 156.663 150.137 156.663C150.293 156.663 150.63 156.793 150.915 156.922Z" fill="black"/>
<path d="M154.259 152.908C153.715 153.478 153.689 153.685 153.87 154.902C154.207 157.026 154.13 158.631 153.663 159.356C153.119 160.185 153.119 160.288 153.689 160.288C154.259 160.288 155.063 159.46 155.659 158.269C156.307 157 156.956 157.259 157.137 158.812C157.267 159.978 157.733 160.677 158.2 160.392C158.589 160.133 158.433 154.359 158.019 153.556C157.267 152.106 155.322 151.769 154.259 152.908ZM156.619 153.815C157.163 154.126 157.319 155.731 156.826 156.016C156.333 156.352 155.27 155.886 155.037 155.213C154.544 153.97 155.426 153.193 156.619 153.815Z" fill="black"/>
<path d="M166.859 152.908C166.444 153.323 165.822 154.126 165.485 154.643C164.681 155.835 164.267 155.653 164.448 154.203C164.604 153.116 164.344 152.52 163.67 152.52C163.152 152.52 163.178 159.848 163.722 160.288C164.293 160.755 164.63 160.366 164.63 159.279C164.63 157.751 164.915 156.663 165.304 156.663C166.056 156.663 166.704 157.673 166.704 158.838C166.704 159.978 167.196 160.755 167.741 160.418C168.181 160.159 168.026 157.906 167.481 156.689C166.859 155.343 166.833 155.058 167.378 154.048C167.585 153.608 167.741 153.012 167.689 152.701C167.611 152.158 167.585 152.158 166.859 152.908Z" fill="black"/>
<path d="M169.815 152.986C168.83 153.996 168.441 155.446 168.778 157.155C169.089 158.787 169.348 159.304 170.23 160.004C171.163 160.729 172.174 160.703 172.952 159.874C173.496 159.304 173.574 158.942 173.652 156.56C173.756 153.996 173.73 153.892 173.056 153.09C172.122 151.976 170.878 151.95 169.815 152.986ZM172.018 153.918C172.381 154.177 172.537 154.669 172.589 155.912C172.718 158.01 172.304 158.864 171.241 158.864H170.463L170.385 156.56C170.333 155.291 170.359 154.1 170.437 153.892C170.618 153.452 171.396 153.452 172.018 153.918Z" fill="black"/>
<path d="M184.074 152.416C183.193 152.779 183.037 153.375 183.063 156.508C183.063 159.771 183.218 160.651 183.711 160.34C184.411 159.9 184.593 158.994 184.437 156.844C184.281 154.851 184.307 154.618 184.826 154.1C185.111 153.815 185.578 153.556 185.863 153.556C186.304 153.556 186.356 153.841 186.459 156.793C186.589 160.263 186.9 161.117 187.6 160.185C188.093 159.486 188.118 153.608 187.6 152.908C187.263 152.416 184.904 152.106 184.074 152.416Z" fill="black"/>
<path d="M189.985 152.649C189.415 152.96 189.259 153.245 189.259 153.944C189.259 154.436 189.337 154.85 189.415 154.85C189.493 154.85 189.907 154.566 190.348 154.203C191.23 153.452 191.644 153.4 192.241 153.97C192.837 154.591 192.63 155.161 191.722 155.265C189.415 155.498 188.17 157.932 189.622 159.382C191.437 161.195 193.641 160.159 194.081 157.284C194.574 153.892 192.318 151.329 189.985 152.649ZM192.396 157.336C192.811 158.502 191.463 159.537 190.607 158.683C190.167 158.243 190.218 157.543 190.711 157.077C191.333 156.456 192.085 156.559 192.396 157.336Z" fill="black"/>
<path d="M141.996 152.675C141.737 152.96 141.789 160.237 142.048 160.418C142.592 160.729 143.111 159.719 143.111 158.32C143.111 157.051 143.163 156.922 143.785 156.767C144.77 156.508 145.289 157.181 145.444 158.942C145.548 160.081 145.678 160.444 146.041 160.495C146.455 160.573 146.481 160.314 146.429 156.611C146.352 152.857 146.326 152.649 145.833 152.649C145.418 152.649 145.341 152.805 145.392 153.478C145.496 154.462 144.667 155.446 143.811 155.317C143.344 155.265 143.215 155.032 143.111 153.944C143.033 153.064 142.852 152.623 142.592 152.572C142.359 152.546 142.1 152.572 141.996 152.675Z" fill="black"/>
<path d="M175.155 154.773C174.922 157.699 174.974 160.237 175.259 160.418C175.959 160.858 176.27 159.952 176.348 157.492L176.426 154.98L176.996 155.886C178.189 157.802 178.604 157.88 179.433 156.404C179.77 155.834 180.107 155.368 180.237 155.368C180.341 155.368 180.444 156.404 180.444 157.673C180.444 159.278 180.548 160.055 180.781 160.262C180.989 160.418 181.222 160.47 181.3 160.366C181.404 160.288 181.481 158.528 181.481 156.482C181.481 153.09 181.455 152.779 181.015 152.779C180.393 152.779 179.226 153.996 178.863 155.058C178.526 156.068 178.293 155.964 177.463 154.358C176.867 153.167 176.426 152.779 175.674 152.779C175.441 152.779 175.285 153.426 175.155 154.773Z" fill="black"/>
<path d="M154.259 163.033C154.104 163.396 154 165.053 154 166.71C154 169.093 154.104 169.973 154.493 170.802C155.815 173.728 159.289 173.728 159.833 170.828C160.144 169.222 159.885 163.215 159.496 162.826C159.211 162.541 159.081 162.567 158.77 162.981C158.485 163.37 158.407 164.38 158.407 167.151C158.407 171.087 158.304 171.423 157.059 171.423C155.893 171.423 155.633 170.672 155.478 166.892C155.322 163.448 155.167 162.36 154.752 162.36C154.622 162.36 154.389 162.671 154.259 163.033Z" fill="black"/>
<path d="M78.8148 162.8C78.0371 163.111 77.2593 164.017 77.1037 164.846C76.8445 166.27 77.2333 166.4 78.2963 165.234C79.3593 164.095 79.9296 163.94 80.8371 164.587C81.2259 164.872 81.4074 165.234 81.4074 165.882V166.762H80.1371C77.1815 166.762 75.7815 169.973 77.8296 172.122C79.0482 173.417 81.4852 173.003 82.3667 171.371C82.8593 170.439 83.0148 167.202 82.6259 165.467C82.3408 164.095 81.2 162.878 80.1111 162.748C79.6185 162.697 79.0222 162.697 78.8148 162.8ZM80.9148 168.316C81.2519 168.497 81.4074 168.86 81.4074 169.455C81.4074 170.595 80.6815 171.475 79.7222 171.475C78.2445 171.475 77.7519 169.559 78.9704 168.601C79.7482 168.005 80.163 167.927 80.9148 168.316Z" fill="black"/>
<path d="M88.5371 162.93C88.4853 163.111 88.3297 164.302 88.226 165.597C88.0445 167.772 87.9667 167.927 87.4223 168.005C85.9704 168.212 84.7779 166.503 84.7779 164.173C84.7779 163.059 84.7001 162.878 84.2593 162.878C83.8186 162.878 83.7408 163.059 83.7149 163.965C83.689 164.587 83.7149 165.364 83.7149 165.726C83.8704 167.85 85.1667 169.351 86.8519 169.351C87.3964 169.351 87.9149 169.455 87.9927 169.585C88.0964 169.714 88.226 170.543 88.3297 171.423C88.4593 172.847 88.5371 173.003 89.0297 172.925C89.5482 172.847 89.5742 172.692 89.6519 168.626C89.6779 166.322 89.626 164.043 89.4964 163.603C89.289 162.722 88.7445 162.36 88.5371 162.93Z" fill="black"/>
<path d="M93.1776 162.852C92.4517 163.163 91.6221 164.25 91.2332 165.39C90.8184 166.633 91.0776 170.31 91.6221 171.397C92.9443 173.909 96.9628 173.029 96.9628 170.232C96.9628 169.093 96.3406 169.067 95.7702 170.18C95.2517 171.216 94.9665 171.423 94.085 171.423C93.1776 171.423 92.5036 170.62 92.6073 169.688C92.685 169.041 92.8147 168.937 93.8517 168.834C95.3554 168.652 96.0813 168.212 96.7036 167.202C97.5073 165.882 97.248 164.457 95.9776 163.318C95.3813 162.774 93.9295 162.541 93.1776 162.852ZM95.0962 164.587C95.7962 165.079 95.848 166.244 95.2258 166.814C93.411 168.393 91.6221 166.71 93.0999 164.846C93.6962 164.069 94.2665 163.991 95.0962 164.587Z" fill="black"/>
<path d="M100.152 163.007C98.8297 163.577 98.5186 164.509 98.5186 167.798C98.5186 169.895 98.6223 170.879 98.9334 171.449C99.426 172.433 100.878 173.08 102.044 172.847C103.185 172.64 104.482 171.346 104.482 170.387C104.482 169.611 103.704 168.704 103.522 169.274C103.159 170.31 102.2 171.294 101.474 171.371C100.282 171.475 100.048 170.983 99.8926 168.135C99.763 165.804 99.7889 165.545 100.333 164.872C101.137 163.862 101.941 163.966 102.926 165.208C103.911 166.477 104.222 166.503 104.222 165.39C104.222 164.38 103.678 163.525 102.667 163.007C101.759 162.541 101.241 162.541 100.152 163.007Z" fill="black"/>
<path d="M113.685 162.8C113.4 162.878 112.959 163.111 112.674 163.37C111.663 164.25 111.481 165.079 111.481 168.445C111.481 171.553 111.507 171.734 112.13 172.329C113.556 173.754 116.744 172.666 117.444 170.491C117.678 169.792 117.652 169.455 117.211 168.523C116.77 167.565 116.744 167.254 117.004 166.322C117.393 164.846 116.796 163.525 115.5 162.981C114.567 162.593 114.541 162.593 113.685 162.8ZM115.215 164.587C115.837 165.208 115.733 166.166 114.981 166.658C114.385 167.047 114.281 167.047 113.685 166.658C113.037 166.244 112.933 165.959 113.037 165.208C113.167 164.173 114.463 163.81 115.215 164.587ZM115.474 168.601C116.356 169.274 116.356 170.206 115.474 170.879C113.867 172.148 112.389 171.009 112.933 168.911C113.193 167.979 114.463 167.824 115.474 168.601Z" fill="black"/>
<path d="M121.152 162.8C120.219 162.982 119.052 164.535 118.844 165.882C118.611 167.539 118.844 170.128 119.363 171.19C120.141 172.822 121.93 173.417 123.407 172.537C124.289 172.019 124.704 171.19 124.704 169.921L124.678 168.963L123.641 170.18C122.837 171.112 122.396 171.423 121.878 171.423C120.944 171.423 120.244 170.646 120.348 169.688C120.426 169.015 120.53 168.963 121.8 168.834C123.511 168.652 124.678 167.617 124.859 166.089C125.093 164.043 123.252 162.412 121.152 162.8ZM122.837 164.587C123.278 164.898 123.407 165.208 123.356 165.804C123.304 166.477 123.07 166.736 122.267 167.125C120.996 167.746 120.452 167.461 120.348 166.167C120.219 164.535 121.567 163.681 122.837 164.587Z" fill="black"/>
<path d="M126.7 162.8C126.596 162.878 126.519 165.079 126.519 167.668C126.519 171.604 126.596 172.459 126.907 172.718C127.556 173.236 127.763 172.77 127.996 170.387C128.204 168.264 128.23 168.186 128.878 168.109C129.319 168.057 129.837 168.264 130.278 168.652C130.952 169.222 131.004 169.403 130.978 170.983C130.952 172.537 131.004 172.718 131.444 172.718C132.3 172.718 132.482 171.863 132.482 168.135C132.482 164.639 132.196 162.619 131.678 162.619C131.263 162.619 130.926 163.862 130.926 165.364V166.762H129.5H128.074V165.649C128.074 163.551 127.374 162.101 126.7 162.8Z" fill="black"/>
<path d="M134.452 163.007C134.374 163.24 134.296 165.519 134.296 168.083C134.296 172.07 134.348 172.744 134.711 172.899C135.385 173.158 135.619 172.614 135.774 170.491C135.852 169.351 136.059 168.367 136.215 168.264C136.759 167.901 137.433 168.057 138.056 168.704C138.6 169.248 138.704 169.559 138.704 170.983C138.704 172.2 138.807 172.692 139.067 172.795C139.637 173.028 140.104 172.278 140.104 171.086C140.13 167.358 139.948 163.214 139.741 162.878C139.3 162.153 138.859 163.059 138.756 164.949L138.652 166.762H137.252H135.852L135.826 165.519C135.8 164.846 135.722 163.965 135.619 163.525C135.437 162.671 134.711 162.36 134.452 163.007Z" fill="black"/>
<path d="M143.422 162.878C142.541 163.24 141.789 165.208 141.633 167.539C141.452 169.973 141.789 171.138 143.007 172.2C144.018 173.08 145.03 173.21 146.196 172.588C148.193 171.578 148.815 166.374 147.233 164.147C146.326 162.878 144.744 162.36 143.422 162.878ZM145.807 164.665C146.378 165.286 146.767 168.212 146.481 169.481C146.093 171.19 144.848 171.993 143.889 171.216C143.267 170.698 142.748 167.953 142.981 166.451C143.318 164.509 144.796 163.551 145.807 164.665Z" fill="black"/>
<path d="M167.818 162.981C166.341 163.655 166.056 164.406 165.952 168.108C165.848 172.096 166.056 172.588 167.844 172.847C170.904 173.313 173.341 170.18 171.604 167.979C171.189 167.435 171.137 167.176 171.344 166.788C171.863 165.83 171.681 164.483 170.93 163.655C170.074 162.722 168.959 162.489 167.818 162.981ZM169.97 164.82C170.359 165.415 170.359 165.519 169.97 166.14C169.607 166.684 169.348 166.788 168.57 166.71C167.741 166.632 167.611 166.529 167.533 165.907C167.352 164.354 169.141 163.577 169.97 164.82ZM170.281 168.626C170.774 169.118 170.644 170.335 170.074 170.905C168.752 172.226 166.781 170.776 167.456 168.989C167.689 168.393 167.87 168.316 168.856 168.316C169.478 168.316 170.1 168.445 170.281 168.626Z" fill="black"/>
<path d="M180.574 162.8C178.604 163.292 177.437 165.493 177.67 168.186C177.982 171.371 179.174 172.977 181.248 172.977C182.493 172.977 183.815 171.527 183.815 170.154C183.815 169.559 183.711 169.093 183.607 169.093C183.296 169.093 182.519 169.973 182.519 170.31C182.519 170.75 181.611 171.423 181.015 171.423C179.641 171.423 178.941 169.559 179.278 166.736C179.641 163.732 181.482 163.292 182.985 165.856C183.244 166.296 183.322 166.322 183.556 165.985C183.711 165.778 183.763 165.234 183.685 164.82C183.426 163.422 181.948 162.464 180.574 162.8Z" fill="black"/>
<path d="M187.004 162.93C186.667 163.085 186.174 163.707 185.889 164.302C185.396 165.312 185.37 165.804 185.422 170.931C185.5 176.265 185.526 176.473 186.018 176.473C186.485 176.473 186.563 176.265 186.667 174.531C186.744 173.469 186.874 172.614 187.004 172.64C188.248 172.977 189.026 172.977 189.752 172.614C190.841 172.045 191.255 171.138 191.463 168.808C191.67 166.451 191.178 164.354 190.192 163.422C189.467 162.748 187.859 162.489 187.004 162.93ZM189.518 164.691C189.959 165.131 190.037 165.545 190.037 167.591C190.037 170.258 189.7 171.242 188.792 171.371C187.263 171.604 186.2 169.636 186.511 167.202C186.744 165.597 187.107 164.82 187.807 164.483C188.611 164.069 188.948 164.121 189.518 164.691Z" fill="black"/>
<path d="M194.367 163.137C193.096 164.121 192.785 165.079 192.759 167.798C192.759 169.947 192.837 170.387 193.356 171.242C194.496 173.028 196.648 173.546 197.893 172.303C198.748 171.449 199.5 168.29 199.267 166.555C198.878 163.603 196.182 161.712 194.367 163.137ZM197.141 165.027C197.789 165.882 198.022 168.6 197.556 169.973C196.856 172.096 194.989 172.148 194.419 170.076C194.03 168.626 194.237 165.674 194.807 164.82C195.378 163.939 196.389 164.043 197.141 165.027Z" fill="black"/>
<path d="M200.926 163.111C200.77 163.422 200.667 165.545 200.667 168.186V172.744L201.393 172.666C202.093 172.588 202.093 172.563 202.093 170.776C202.093 168.756 202.274 168.316 203.026 168.316C204.426 168.316 205.333 169.714 205.333 171.812C205.333 173.055 205.567 173.236 206.241 172.537C206.811 171.967 206.578 169.611 205.852 168.445C204.685 166.633 204.685 166.684 205.696 164.975C206.759 163.137 206.811 162.878 206.163 162.878C205.567 162.878 204.763 163.732 204.063 165.131C203.778 165.726 203.259 166.4 202.948 166.633L202.352 167.021L202.17 165.364C201.911 162.671 201.522 161.998 200.926 163.111Z" fill="black"/>
<path d="M104.637 163.111C104.43 163.422 105.259 164.121 106.244 164.457L107.074 164.742V168.73C107.074 172.122 107.126 172.77 107.489 172.899C108.319 173.21 108.5 172.511 108.604 168.419L108.681 164.432L109.381 164.276C110.652 163.965 111.041 163.655 110.678 163.24C110.444 162.981 109.693 162.878 107.567 162.878C106.037 162.878 104.715 162.981 104.637 163.111Z" fill="black"/>
<path d="M97.8703 180.512C99.3481 182.143 102.252 183.205 106.659 183.749C110.47 184.189 113.244 184.215 118.378 183.827C125.118 183.335 127.633 184.111 131.444 187.944C133.415 189.912 134.322 191.129 137.096 195.505C137.459 196.101 137.511 196.101 137.667 195.635C138.133 194.288 136.085 190.119 133.181 186.52C131.341 184.241 129.707 182.894 127.478 181.807C124.289 180.253 123.485 180.175 109.796 180.046L97.3777 179.942L97.8703 180.512Z" fill="black"/>
<path d="M162.944 180.227C156.048 180.927 151.537 184.345 147.752 191.776C146.585 194.107 146.093 196.023 146.715 196.023C146.844 196.023 147.752 194.728 148.711 193.123C150.993 189.446 154.13 186.157 156.593 184.94C159.004 183.749 161.337 183.438 164.967 183.827C174.404 184.759 183.815 183.361 186.407 180.616L187.004 179.968L175.881 179.994C169.763 180.02 163.956 180.124 162.944 180.227Z" fill="black"/>
<path d="M105.829 185.639C105.337 185.95 106.996 187.141 108.837 187.789C110.548 188.41 113.581 188.514 119.933 188.151C124.263 187.892 125.818 188.073 128.567 189.135C131.548 190.326 130.667 188.773 127.426 187.115C124.289 185.562 123.226 185.406 114.204 185.406C109.796 185.406 106.011 185.51 105.829 185.639Z" fill="black"/>
<path d="M161.13 185.588C158.796 186.08 156.982 186.831 155.582 187.866C153.041 189.731 153.533 190.016 157.111 188.773C159.652 187.892 161.7 187.789 167.767 188.281C170.463 188.514 171.733 188.488 173.159 188.255C175 187.944 178.137 186.597 178.293 186.028C178.345 185.847 177.774 185.665 176.789 185.562C175.052 185.38 161.959 185.406 161.13 185.588Z" fill="black"/>
<path d="M118.274 189.549C117.237 189.653 116.304 189.808 116.226 189.886C116.018 190.119 119.104 191.595 120.737 192.035C121.8 192.346 123.563 192.476 126.778 192.501C129.267 192.553 131.911 192.657 132.611 192.76L133.907 192.942L133.259 192.424C130.641 190.249 123.718 188.928 118.274 189.549Z" fill="black"/>
<path d="M158.485 189.653C154.933 190.326 149.878 192.346 150.241 192.916C150.5 193.304 151.874 193.227 152.781 192.76C153.455 192.398 154.13 192.346 156.748 192.476C161.441 192.683 164.422 192.139 166.807 190.663L167.844 189.99L167.222 189.731C166.133 189.316 160.533 189.265 158.485 189.653Z" fill="black"/>
<path d="M124.859 194.159C124.004 194.366 124.133 194.547 125.741 195.402C126.519 195.816 127.374 195.894 131.574 195.971C136.163 196.023 136.474 195.997 135.981 195.609C134.556 194.443 133.285 194.159 129.396 194.055C127.322 194.003 125.274 194.055 124.859 194.159Z" fill="black"/>
<path d="M151.641 194.366C148.97 194.832 148.296 195.117 148.296 195.764C148.296 196.256 148.426 196.256 152.004 196.127C156.359 195.946 157.967 195.687 159.185 194.936L160.093 194.366L159.445 194.185C158.356 193.874 153.741 193.978 151.641 194.366Z" fill="black"/>
</svg>
