<svg width="1440" height="431" viewBox="0 0 1440 431" fill="none" xmlns="http://www.w3.org/2000/svg">
<path d="M137.938 1.39294C115.896 4.46935 89.8254 12.2787 59.2516 25.2943C26.5447 39.0198 18.0125 43.9894 12.5613 52.272C8.53223 58.1882 8.76924 58.8981 13.9834 69.5472C19.1975 79.9597 19.6715 84.6926 21.3306 133.915C22.2786 163.259 23.2266 226.207 23.2266 273.773C23.4636 371.509 22.5156 379.555 7.82121 393.28L0 400.853L21.0936 402.509C68.2578 406.296 138.886 397.303 194.108 380.975C247.909 364.883 275.401 337.431 285.593 290.102C296.732 237.803 270.661 175.328 220.416 135.098C212.595 128.472 205.959 121.61 205.959 119.48C205.959 113.8 214.965 106.701 234.399 97.9449C263.077 84.6926 271.372 71.9137 262.84 54.6385C256.678 42.8061 249.805 34.7602 235.584 23.8744C210.699 4.94265 173.726 -3.57664 137.938 1.39294ZM183.443 40.203C198.611 46.5925 205.959 67.1808 197.426 79.2498C195.293 82.3262 177.044 96.7616 157.135 111.67C131.776 130.602 120.162 140.541 119.214 144.801C118.266 148.114 118.029 150.954 118.503 151.427C118.977 151.664 129.168 157.107 140.782 163.496C205.959 198.52 236.295 230.467 244.117 272.354C246.25 283.949 245.776 288.209 241.747 301.934C229.185 343.111 186.05 367.012 114.474 371.982C81.7672 374.348 84.3743 388.074 85.7963 226.917C86.5073 129.656 87.6924 89.6622 89.8254 82.5628C97.4096 57.005 128.22 37.3633 161.638 37.1266C169.223 36.89 178.94 38.3099 183.443 40.203Z" fill="#E8E8E8"/>
<path d="M437.278 95.8144C427.323 100.784 412.155 110.013 403.386 116.403C384.899 129.418 351.718 161.602 342.238 176.038C338.683 181.481 334.891 185.267 333.943 184.794C332.758 184.084 331.336 176.984 330.388 168.702C328.492 150.243 333.469 124.922 342.712 107.647C346.267 100.547 349.585 94.1579 350.059 92.9746C350.533 92.028 337.972 91.3181 322.33 91.3181C306.45 91.3181 293.652 91.7914 293.652 92.5013C293.652 92.9746 296.733 98.4175 300.525 104.334C311.427 121.372 313.56 139.594 312.138 201.359C310.005 287.025 314.982 331.041 331.336 371.745C339.157 391.386 355.984 418.601 364.754 426.173L370.205 430.906L368.546 420.494C367.598 414.814 362.384 398.959 356.695 384.997C344.371 355.416 341.053 339.561 341.053 310.216C341.053 248.215 375.893 191.893 431.589 163.259C440.359 158.762 450.076 155.213 453.394 155.213C465.481 155.213 465.481 154.739 464.77 268.567C464.296 329.148 463.111 377.187 461.689 381.684C460.267 385.707 455.527 391.86 451.024 395.409C446.758 398.722 442.966 402.509 442.966 403.929C442.966 406.295 500.558 407.005 502.928 404.638C503.876 403.692 501.743 399.906 498.662 396.119C487.76 383.34 487.286 377.424 486.338 271.643C485.153 158.999 485.864 150.716 498.662 136.518L506.72 127.762L500.795 117.113C489.419 97.4709 475.91 86.5852 462.163 86.5852C458.371 86.5852 446.995 90.8448 437.278 95.8144Z" fill="#E8E8E8"/>
<path d="M919.111 94.3914C886.167 111.43 855.593 135.568 834.737 160.889C828.575 168.462 820.99 177.691 817.909 181.004L812.695 187.157L813.169 150.24C813.88 110.01 814.828 106.934 828.812 100.071C842.558 93.4448 832.841 89.6584 800.608 89.1851C789.232 89.1851 776.67 89.6584 772.641 90.3684L765.294 92.0249L774.3 101.727C791.365 120.186 792.55 126.575 788.995 184.79C783.306 278.266 791.365 337.664 816.25 387.124C825.968 406.529 845.165 432.796 848.246 430.903C852.749 428.063 850.379 418.834 839.003 395.406C822.886 362.986 818.857 346.894 818.857 313.763C818.857 291.755 819.805 283.236 824.309 268.8C839.24 220.051 871.71 181.714 915.793 160.416C942.338 147.4 939.494 135.331 940.205 265.25C940.679 346.42 939.968 380.734 938.072 385.467C936.65 389.017 932.146 393.75 928.591 395.879C917.689 402.506 920.296 405.345 938.546 407.002C958.928 408.895 985.71 406.529 985.71 402.742C985.71 401.322 982.155 397.299 977.652 393.75C964.853 383.574 964.142 376.001 964.853 256.731C965.564 158.996 965.801 150.95 970.067 144.797C972.438 141.011 976.467 137.461 978.837 136.988C986.421 134.858 984.525 122.079 975.045 109.537C956.795 85.6354 942.812 81.8491 919.111 94.3914Z" fill="#E8E8E8"/>
<path d="M546.774 90.8454C536.583 91.3187 528.287 92.2653 528.287 93.4485C528.287 94.3951 530.895 97.7081 534.213 100.785C537.531 103.861 541.086 110.25 542.508 114.747C545.826 127.052 545.589 362.043 542.271 378.135C540.375 386.654 537.057 393.043 531.843 398.25C525.917 404.166 524.969 406.059 527.813 407.242C534.45 409.845 581.614 411.502 597.73 409.845L613.61 407.952L607.922 401.089C597.256 388.547 596.308 380.738 595.36 305.484C594.649 240.879 594.886 233.78 598.678 226.207C603.893 216.032 612.662 213.902 630.2 218.398C649.398 223.131 665.277 232.833 682.579 249.872C722.159 288.682 731.165 344.531 706.042 394.227C702.013 402.273 695.14 412.685 690.637 417.655C681.157 428.067 680.683 429.724 686.608 429.724C700.117 429.724 729.98 400.616 743.015 374.822C767.901 325.599 761.976 272.59 727.373 229.047C715.285 214.138 689.452 195.207 672.624 189.29C659.589 184.558 655.797 180.061 657.93 172.252C658.641 169.412 678.787 150.007 702.724 128.946C726.662 108.121 746.333 90.3721 746.333 89.6621C746.333 88.2423 653.664 91.3187 651.057 92.7385C650.346 93.2118 653.19 97.2348 657.693 101.731C662.433 106.464 665.751 112.144 665.751 115.457C665.751 131.785 627.83 170.832 605.078 177.458C598.204 179.588 596.782 175.328 595.36 150.007C594.175 131.075 594.412 128.236 600.337 116.403C604.13 108.831 609.818 101.494 614.084 98.6547L621.668 93.9218L615.98 92.7385C607.922 91.082 568.816 89.8988 546.774 90.8454Z" fill="#E8E8E8"/>
<path d="M1011.07 91.0781L999.457 92.498L1006.8 99.3608C1010.83 103.147 1016.05 111.193 1018.18 117.109C1022.92 129.415 1023.39 160.416 1020.55 272.35C1017.71 377.184 1016.52 385.467 1003.25 397.772C999.694 401.085 997.561 404.635 998.509 405.582C1000.88 407.948 1089.28 407.712 1091.65 405.345C1092.6 404.162 1091.18 401.559 1088.33 399.429C1085.49 397.299 1080.51 389.963 1077.67 383.574C1072.22 371.978 1072.22 370.321 1072.22 288.678C1072.22 210.111 1072.46 205.142 1076.72 200.409C1080.99 195.913 1083.59 195.439 1115.35 195.439C1146.4 195.439 1149.72 195.913 1154.22 200.409C1158.96 205.142 1158.96 207.035 1158.25 289.625C1157.54 365.825 1157.07 375.054 1153.04 384.284C1150.67 389.726 1146.16 396.352 1142.85 398.956L1136.92 403.452L1143.79 405.345C1154.46 408.421 1220.82 407.475 1226.27 404.398C1228.88 402.742 1229.59 401.322 1228.17 401.322C1226.51 401.322 1222.72 396.826 1219.87 391.146C1215.13 382.154 1214.66 376.947 1213.71 340.977C1213.47 318.732 1213.95 259.097 1214.9 208.455C1216.79 116.163 1216.79 115.926 1222.95 103.857L1228.88 91.7881L1187.17 90.8415C1164.41 90.3682 1145.22 90.1315 1144.74 90.6048C1144.27 90.8415 1146.88 97.9409 1150.43 105.987C1159.67 126.102 1161.57 155.919 1154.7 164.439C1149.48 170.828 1132.65 173.904 1099.24 173.904C1083.83 174.141 1080.51 173.431 1076.72 169.172C1068.19 159.706 1072.69 117.583 1084.31 99.1241C1086.2 96.2844 1086.68 93.4446 1085.73 92.9713C1082.65 90.8415 1022.68 89.4216 1011.07 91.0781Z" fill="#E8E8E8"/>
<path d="M1297.75 90.7155C1258.17 91.6621 1240.63 93.082 1238.73 94.9752C1237.07 96.6317 1236.13 98.2882 1236.84 98.5249C1237.31 98.9982 1240.87 100.891 1244.9 102.785C1254.85 107.991 1261.96 119.586 1263.38 134.022C1264.33 140.885 1264.09 198.153 1262.91 261.338C1261.01 384.631 1260.78 386.524 1247.98 400.25L1243.24 405.219L1254.61 407.112C1265.99 408.769 1335.43 407.112 1337.57 404.983C1338.04 404.509 1335.43 400.723 1331.64 396.463C1327.85 392.44 1322.87 383.921 1320.74 377.768C1314.58 360.256 1312.21 308.667 1312.92 218.032C1313.63 141.121 1313.86 134.022 1318.13 125.739C1327.85 107.517 1355.1 102.548 1379.52 114.617C1385.2 117.457 1400.85 129.999 1414.36 142.541C1427.87 154.847 1439.48 163.839 1439.95 162.42C1441.37 157.687 1410.56 96.6317 1404.64 92.6087C1398.48 88.3491 1401.79 88.3491 1297.75 90.7155Z" fill="#E8E8E8"/>
</svg>
