<svg xmlns="http://www.w3.org/2000/svg" width="41.3mm" height="41.3mm" viewBox="0 0 117.1 117.1"><title>Black_2024</title><path d="M77.7,361.5V478.6H194.8V361.5Zm46.6,39v2h-7.4a5.8,5.8,0,0,1,.8-2.2,19.5,19.5,0,0,1,2.3-2.7,14,14,0,0,0,1.8-1.8,2.2,2.2,0,0,0,.4-1.3,1.2,1.2,0,0,0-.4-1.1,1.2,1.2,0,0,0-1-.4,1.4,1.4,0,0,0-1.1.4,2.2,2.2,0,0,0-.4,1.3l-2.1-.2a3.2,3.2,0,0,1,1.2-2.5,3.8,3.8,0,0,1,2.4-.8,3.6,3.6,0,0,1,2.6.9,2.9,2.9,0,0,1,.9,2.2,7.7,7.7,0,0,1-.2,1.5,8,8,0,0,1-.9,1.4,8.8,8.8,0,0,1-1.4,1.4l-1.2,1.3-.5.6Zm5-9.3a2.9,2.9,0,0,1,2.5,1.2,7.4,7.4,0,0,1,1.1,4.5,7.5,7.5,0,0,1-1.1,4.6,2.9,2.9,0,0,1-2.5,1.2,3.3,3.3,0,0,1-2.6-1.3,7.8,7.8,0,0,1-1-4.5,7.4,7.4,0,0,1,1.1-4.5,2.9,2.9,0,0,1,2.5-1.2Zm0,1.8.7.2a3,3,0,0,1,.5,1,14.7,14.7,0,0,1,.2,2.7,8.5,8.5,0,0,1-.3,2.8c-.1.5-.2.8-.4.9a1,1,0,0,1-1.4,0c-.2-.1-.3-.5-.5-1a13.1,13.1,0,0,1-.2-2.7,9.4,9.4,0,0,1,.3-2.8,1.9,1.9,0,0,1,.4-.9l.7-.2Zm12.1,7.5v2H134a5.7,5.7,0,0,1,.7-2.2,15.8,15.8,0,0,1,2.4-2.7l1.7-1.8a2.4,2.4,0,0,0,.5-1.3,1.6,1.6,0,0,0-.4-1.1,1.4,1.4,0,0,0-1.1-.4,1.2,1.2,0,0,0-1,.4,2.2,2.2,0,0,0-.5,1.3l-2.1-.2a3.9,3.9,0,0,1,1.2-2.5,4.1,4.1,0,0,1,2.5-.8,3.3,3.3,0,0,1,2.5.9,2.7,2.7,0,0,1,1,2.2,4,4,0,0,1-.3,1.5l-.8,1.4-1.4,1.4-1.3,1.3-.4.6Zm5.5,2v-2.3h-4.5v-1.9l4.8-7.1H149v7.1h1.3v1.9H149v2.3Zm0-4.2h-2.5l2.5-3.8v3.8Zm-7.6,39.2h0a73.3,73.3,0,0,0,22-4.1h0v12.1h0c-24.5,15.3-48.9,8.7-48.9,8.7-11.6-2.5-28.8-10.1-28.8-32.5,0-27.6,26.7-35,44.2-34.9s29.2,7.7,33.3,10.1h0v13h0c-8.7-2.7-23.1-6.3-31.9-2s-9.3,13.8-9.3,13.8c.3,16.2,19.4,15.8,19.4,15.8Zm-32,11.1a5,5,0,0,1,0-10,5,5,0,0,1,0,10Zm2.7-5a2.7,2.7,0,1,1-5.3,0,2.7,2.7,0,0,1,5.3,0Zm9.9-2.3h-1.3a2.1,2.1,0,0,0-2.2,1.1,3.2,3.2,0,0,0-.3,1.4,3.1,3.1,0,0,0,.3,1.3,2.2,2.2,0,0,0,2.2,1.1h1.3v2.6h-1.4a4.3,4.3,0,0,1-4.2-2.3,6.3,6.3,0,0,1-.6-2.7,6.4,6.4,0,0,1,.6-2.8,4.5,4.5,0,0,1,4.3-2.3h1.3v2.6Zm8,0h-1.4a2,2,0,0,0-2.1,1.1,3.5,3.5,0,0,0-.3,1.4,2.8,2.8,0,0,0,.3,1.3,1.9,1.9,0,0,0,2.1,1.1h1.4v2.6h-1.4a4.3,4.3,0,0,1-4.2-2.2,7.1,7.1,0,0,1-.6-2.8,5.2,5.2,0,0,1,.6-2.8,4.4,4.4,0,0,1,4.2-2.3h1.4v2.6Zm10.3,7.5h-2.4v-6.2h0a.8.8,0,0,0-.1-.4h-.1c0,.1,0,.2-.1.2s-.1.3-.1.4h0l-3,5.9h-2.3V438.7h2.4V445h0v.3h.1c0-.1,0-.2.1-.2a.8.8,0,0,1,.2-.4h0l3-6h2.3v10.1Zm10.5,0h-2.4v-6.2h0c0-.1.1-.2,0-.3s0,0-.1,0,0,.2-.1.2a.8.8,0,0,1-.2.4h0l-2.9,5.9h-2.3V438.7h2.4V445h0v.3h.1c0-.1,0-.2.1-.2s.1-.2.1-.4h0l3.1-6h2.2v10.1Zm-54.3-7.6V408.6h0s.5-9.6,11.5-9.6,12.5,8,12.6,11.6-2.6,11-10.6,11c-4.7,0-4.8-.9-4.8-.9h0v-5.2h0s.4.7,3.4.7,5.9-1.9,5.8-5.8-4.5-5.6-6-5.6a6.2,6.2,0,0,0-4.1,1.2,5.8,5.8,0,0,0-1.9,3.4h0v36.5l-5.9-4.7Zm-6,31.2h0v-22h0c-1.1-1.4-2.3-2.2-3.7-4.2h0v-7h0c1.5,3.3,7.3,8.7,11.5,11.6h0v5h0A13.8,13.8,0,0,1,92,453h0v19.4Zm16-17.7h0c4.1,1.7,6.2,6,6.2,10.1s-2.7,7.8-6.6,7.8-6.1-5.1-6.1-9.8c0-1.7.4-5,1.3-6.5s2.8-2.7,5.2-1.6Zm-1.2,3.4c1.2.1,3.6,2.7,3.6,5.4s-.4,6.1-2.9,5.9-3.3-4.1-3.3-5.9c.1-5.5,2.6-5.4,2.6-5.4Zm20,6.5h0A4.4,4.4,0,0,1,125,466a4,4,0,0,1,1.1,2.7c0,3.5-4.1,3.7-4.1,3.7h-7V457h0l4.2.6,2.5.3a7.3,7.3,0,0,1,2,.5,2.9,2.9,0,0,1,2,2.9,3.4,3.4,0,0,1-2.5,3.3Zm-5.3,5.5v-4.2h2.4a2.8,2.8,0,0,1,2.1,2.5c.1,1.6-1.9,1.7-1.9,1.7h-2.6Zm0-10.3s4-.2,4.1,1.7a2,2,0,0,1-1.7,2.1h-2.5v-3.9Zm64.9-6.5h0s4.4,1.5,4.4,7.8-2,8.5-2.8,9.6a4.5,4.5,0,0,1-3.6,1.7h-5.7V440.9h0l6.1-3.4c.7-.5,2.6-1.9,3.7-.5s1.3,3.1,1.3,6.8-1.9,8.5-3.4,9.5Zm-4.5,13.8V456.7h0s4.7-1.5,4.8,4.1c.2,7.5-4.8,6.3-4.8,6.3Zm.1-14.7v-8.6h0a6.6,6.6,0,0,1,2.7-1c1.7,0,1.6,3.1.6,6a5.6,5.6,0,0,1-3.3,3.6ZM132.5,458h0c1.9-.1,3.8-.4,5.4-.6h0l4.1,14.9h-3.1l-.8-3.3h-5.9l-.8,3.2h-3.1l4.2-14.3Zm4.7,8.7h-4.3l1.5-6.4h1.5l1.3,6.4Zm31-20.8h0a2.9,2.9,0,0,1,2.3,1.6c.5.9,1.3,3,1.3,9.3s-.5,8.8-1.9,12.2c-.7,1.5-2.1,3.6-4.6,3.6a5.2,5.2,0,0,1-4.5-2.7,19,19,0,0,1-1.8-8.6,22.8,22.8,0,0,1,1.3-8.4,12.9,12.9,0,0,1,4.2-6,5.6,5.6,0,0,1,3.7-1Zm-2.2,5.6c2,0,2.3,5.2,2.3,7.8s-.4,8.1-3.2,8.3-2.9-5.6-2.8-8.1c.1-7.6,3.7-8,3.7-8Zm-14.3,1.9h0c2.2-.8,3.1-.1,3.3.2s1.4,2.1,1.5,4.9a11.2,11.2,0,0,1-.9,5.3,5.5,5.5,0,0,1-4.7,2.7l-3,.3h0v5.6h-3.1V455.6h0a71.5,71.5,0,0,0,6.9-2.2ZM147.9,464v-5.8h0c.3-.1,3.8-2,4.5-.2s.6,4.8-1.3,5.5h0l-3.2.5ZM84.8,404.6h0v-2.2h0c0-1.2,0-2.4-.1-3.6h0v-1.3h0a6.9,6.9,0,0,0,1-1.2h0v-.2h0q1.6-2.1,1.8-7.5c.1-2.2.1-4.8,0-7.3h0V368.4H98.3c0,2.8.1,10.7.1,10.7h0v11.1h0L95,392.5h0V373.6H90.7v6.2h0a99.1,99.1,0,0,1-.5,13.2c-.6,3.7-2.5,7-4.7,10.4h0l-.6.8h0c-.1.2-.2.3-.2.4Zm20.9-23.8h0c-.9-1.9-1.6-4-2.5-6.4s-1.3-3.9-2-5.8h4.1l2.8,8.8,2.4-8.9h3.8l-.3,1.1h0l-1.5,4.6h0l-2.2,7.3h0a23.3,23.3,0,0,1-1.5,3.6,6.1,6.1,0,0,1-3.1,2.6,8.5,8.5,0,0,1-2.2.4h0v-3.5h0l.9-.2h.2a2.1,2.1,0,0,0,1.7-2.1h-.1a6.3,6.3,0,0,0-.4-1.4Zm14-2.1h0a3.6,3.6,0,0,1-2.6-3.6v-6.7h3.3v5.5h0c0,.7.6,1.7,2.4,1.7a2.9,2.9,0,0,0,3.2-2.7h0v-4.5h3.5v15.4h0a20.5,20.5,0,0,0-3.5,0h0v-6.2h0a4.3,4.3,0,0,1-2,1.1,7.9,7.9,0,0,1-4.3,0Zm32.2-10.1h0v19.3h0a101.3,101.3,0,0,0-18.8-3.9h0V368.7h3.1v12l4.5.5V368.7h3.3v13l4.6,1V368.6Zm4.4,17.8h0V368.6h3.3V385l5.5-16.4h4.6l.2,28.4h0l-3.6-2.1h0V376.8l-5.4,14.9h0l-4.6-2.2h0v-3.1Zm17.5,13.2h0l-1.7-.9,5-14.5-4.2-15.6H177l3,13.2,3.2-13.2h3.6l-4.2,17.2,2.5,11.9,1,4.7,1.1,4.9-4.5-2.6-3.2-17.1-2.2,9.5-.9,3.7v.3l-2.5-1.5ZM138.2,419h0c-2,0-3,1.1-3,2.4a2.7,2.7,0,0,0,3,2.7h8.5v7.1h-9.1c-7.3,0-10.9-4.5-10.9-10s3.4-9.6,10.9-9.6h9V419Zm23.5,12.2h-8.2V419.1h-5.6v-7.2h19.5v7.2h-5.7v12.1Zm16.1-19.6h0a10.1,10.1,0,1,1-10,10.1,10.1,10.1,0,0,1,10-10.1Zm0,14.4a4.4,4.4,0,0,1-4.3-4.6,4.4,4.4,0,1,1,4.3,4.6Zm14.6,50.2H80.1V363.8H192.4V476.2Z" transform="translate(-77.7 -361.5)" fill="#fff" fill-rule="evenodd"/></svg>