<svg width="50" height="50" viewBox="0 0 50 50" fill="none" xmlns="http://www.w3.org/2000/svg">
<path d="M50 0H0V50H50V0Z" fill="#CD2C2C"/>
<path d="M11.6794 42.1773C11.6794 42.8943 11.6794 43.6002 11.6794 44.3172C11.6794 44.6481 11.5911 44.9239 11.2271 44.9239C10.8632 44.9239 10.7639 44.6371 10.7639 44.3172C10.7639 42.8943 10.7639 41.4714 10.7639 40.0485C10.7639 39.7286 10.8742 39.4639 11.2492 39.4639C11.6022 39.4639 11.6684 39.7396 11.6684 40.0375C11.6684 40.7544 11.6684 41.4604 11.6684 42.1773H11.6794Z" fill="white"/>
<path d="M11.6794 35.1542C11.6794 35.8712 11.6794 36.5771 11.6794 37.2941C11.6794 37.625 11.5911 37.9007 11.2271 37.9007C10.8632 37.9007 10.7639 37.614 10.7639 37.2941C10.7639 35.8712 10.7639 34.4483 10.7639 33.0254C10.7639 32.7055 10.8742 32.4408 11.2492 32.4408C11.6022 32.4408 11.6684 32.7165 11.6684 33.0144C11.6684 33.7313 11.6684 34.4373 11.6684 35.1542H11.6794Z" fill="white"/>
<path d="M41.6391 17.5716C40.4037 15.0456 38.5727 12.8837 36.1681 11.0637C34.304 9.66288 32.2524 8.65913 30.0243 8.05247C27.7962 7.44581 24.6636 7.13696 20.6266 7.13696H6.49684V29.2746H15.9167V14.7588H22.9429C26.1417 14.7588 28.7448 15.7957 30.7633 17.8804C32.7819 19.9651 33.7966 22.6565 33.7966 25.9545C33.7966 29.2526 32.7819 31.955 30.7633 34.0507C28.7448 36.1464 26.1306 37.1833 22.9429 37.1833H15.9167V44.8052H20.6266C24.4651 44.8052 27.366 44.5846 29.3294 44.1434C31.2818 43.7021 33.0687 42.9742 34.6901 41.9483C37.5469 40.1173 39.7309 37.8341 41.231 35.0986C42.7422 32.3631 43.4922 29.3187 43.4922 25.9545C43.4922 22.8881 42.8745 20.0864 41.6391 17.5716Z" fill="white"/>
<path d="M15.9086 27.7952C15.9307 28.4129 15.9307 29.0416 15.9086 29.6704C15.9086 30.2109 15.677 30.4315 15.1806 30.4315C14.5188 30.4425 14.4857 30.4425 14.5298 31.1705C14.5519 31.7661 14.4195 32.2735 14.1327 32.7588C13.6474 33.5971 13.2062 34.4575 12.765 35.3178C12.5665 35.7149 12.3017 35.9355 11.8826 35.8804C11.5848 35.8363 11.4524 35.9466 11.4745 36.2995C11.5076 36.6304 11.4745 36.9503 11.4745 37.2812C11.4745 37.5018 11.3752 37.6563 11.1766 37.6673C10.9671 37.6673 10.8678 37.5018 10.8568 37.2923C10.8568 36.9172 10.8568 36.5422 10.8568 36.1561C10.8568 35.9466 10.7796 35.8363 10.592 35.8804C10.0295 35.9686 9.74272 35.6377 9.48902 35.1303C9.12502 34.3692 8.72794 33.6192 8.30879 32.9133C7.94479 32.3176 7.77934 31.6999 7.83449 30.983C7.87861 30.4425 7.83449 30.4315 7.3271 30.4315C6.63219 30.4315 6.4888 30.266 6.4888 29.4939V27.9497C6.4888 27.2327 6.65425 27.0562 7.27195 27.0562H15.1916C15.6659 27.0562 15.8976 27.2658 15.9086 27.7952Z" fill="white"/>
</svg>
